0
SECTION
2
HEADER
9
$INSUNITS
70
4
0
ENDSEC
0
SECTION
2
ENTITIES
0
LWPOLYLINE
100
AcDbEntity
8
BOARD_OUTLINE
100
AcDbPolyline
90
4
70
1
10
0
20
0
10
88
20
0
10
88
20
40
10
0
20
40
0
LWPOLYLINE
100
AcDbEntity
8
TSIM7000G_KEEPIN
100
AcDbPolyline
90
4
70
1
10
18
20
6.5
10
84
20
6.5
10
84
20
33.5
10
18
20
33.5
0
LWPOLYLINE
100
AcDbEntity
8
BT1_18650_BOTTOM_ALT
100
AcDbPolyline
90
4
70
1
10
8
20
9.5
10
84
20
9.5
10
84
20
30.5
10
8
20
30.5
0
TEXT
100
AcDbEntity
8
NOTES
100
AcDbText
10
2
20
44
30
0
40
1.8
1
OBD tracker carrier v1: 88.0 x 40.0 mm, M2.5 holes at (4,4),(84,4),(84,36),(4,36)
0
CIRCLE
100
AcDbEntity
8
MOUNT_HOLES
100
AcDbCircle
10
4
20
4
30
0
40
1.35
0
CIRCLE
100
AcDbEntity
8
MOUNT_KEEPOUT
100
AcDbCircle
10
4
20
4
30
0
40
2.8
0
TEXT
100
AcDbEntity
8
NOTES
100
AcDbText
10
6.2
20
6
30
0
40
1.2
1
H1
0
CIRCLE
100
AcDbEntity
8
MOUNT_HOLES
100
AcDbCircle
10
84
20
4
30
0
40
1.35
0
CIRCLE
100
AcDbEntity
8
MOUNT_KEEPOUT
100
AcDbCircle
10
84
20
4
30
0
40
2.8
0
TEXT
100
AcDbEntity
8
NOTES
100
AcDbText
10
86.2
20
6
30
0
40
1.2
1
H2
0
CIRCLE
100
AcDbEntity
8
MOUNT_HOLES
100
AcDbCircle
10
84
20
36
30
0
40
1.35
0
CIRCLE
100
AcDbEntity
8
MOUNT_KEEPOUT
100
AcDbCircle
10
84
20
36
30
0
40
2.8
0
TEXT
100
AcDbEntity
8
NOTES
100
AcDbText
10
86.2
20
38
30
0
40
1.2
1
H3
0
CIRCLE
100
AcDbEntity
8
MOUNT_HOLES
100
AcDbCircle
10
4
20
36
30
0
40
1.35
0
CIRCLE
100
AcDbEntity
8
MOUNT_KEEPOUT
100
AcDbCircle
10
4
20
36
30
0
40
2.8
0
TEXT
100
AcDbEntity
8
NOTES
100
AcDbText
10
6.2
20
38
30
0
40
1.2
1
H4
0
ENDSEC
0
EOF
