  0
SECTION
  2
HEADER
  9
$ANGBASE
  50
0.0
  9
$ANGDIR
  70
1
  9
$MEASUREMENT
  70
0
  9
$INSUNITS
  70
1
  0
ENDSEC
  0
SECTION
  2
TABLES
  0
TABLE
  2
LTYPE
  70
4
  0
LTYPE
  5
40F
  2
CONTINUOUS
  70
0
  3
Solid line
  72
65
  73
0
  40
0.0
  0
LTYPE
  5
410
  2
DASHDOT
 70
0
  3
Dash Dot ____ _ ____ _
 72
65
 73
4
 40
2.0
 49
1.25
 49
-0.25
 49
0.25
 49
-0.25
  0
LTYPE
  5
411
  2
DASHED
 70
0
  3
Dashed __ __ __ __ __
 72
65
 73
2
 40
0.75
 49
0.5
 49
-0.25
  0
LTYPE
  5
43B
  2
DOTTED
 70
0
  3
Dotted .  .  .  .
 72
65
 73
2
 40
0.2
 49
0.0
 49
-0.2
  0
ENDTAB
  0
TABLE
  2
STYLE
  70
4
  0
STYLE
  2
KICAD
  70
0
  40
0
  41
1
  42
1
  50
0
  71
0
  3
isocp.shx
  0
STYLE
  2
KICADB
  70
0
  40
0
  41
1
  42
1
  50
0
  71
0
  3
isocp.shx
  0
STYLE
  2
KICADI
  70
0
  40
0
  41
1
  42
1
  50
15
  71
0
  3
isocp.shx
  0
STYLE
  2
KICADBI
  70
0
  40
0
  41
1
  42
1
  50
15
  71
0
  3
isocp.shx
  0
ENDTAB
  0
TABLE
  2
LAYER
  70
4
  0
LAYER
  2
Edge.Cuts
  70
0
  62
254
  420
13685453
  6
CONTINUOUS
  0
LAYER
  2
User.Drawings
  70
0
  62
9
  420
12763842
  6
CONTINUOUS
  0
LAYER
  2
F.Fab
  70
0
  62
9
  420
11513775
  6
CONTINUOUS
  0
LAYER
  2
B.Fab
  70
0
  62
155
  420
5791108
  6
CONTINUOUS
  0
ENDTAB
  0
ENDSEC
  0
SECTION
  2
ENTITIES
0
LINE
8
B.Fab
6
CONTINUOUS
10
0.3149606299212598
20
-0.3740157480314961
11
0.3669291338582677
21
-0.3740157480314961
0
LINE
8
B.Fab
6
CONTINUOUS
10
0.3858267716535433
20
-0.3740157480314961
11
0.4377952755905511
21
-0.3740157480314961
0
LINE
8
B.Fab
6
CONTINUOUS
10
0.4566929133858267
20
-0.3740157480314961
11
0.5086614173228347
21
-0.3740157480314961
0
LINE
8
B.Fab
6
CONTINUOUS
10
0.5275590551181102
20
-0.3740157480314961
11
0.5795275590551181
21
-0.3740157480314961
0
LINE
8
B.Fab
6
CONTINUOUS
10
0.5984251968503936
20
-0.3740157480314961
11
0.6503937007874016
21
-0.3740157480314961
0
LINE
8
B.Fab
6
CONTINUOUS
10
0.6692913385826772
20
-0.3740157480314961
11
0.721259842519685
21
-0.3740157480314961
0
LINE
8
B.Fab
6
CONTINUOUS
10
0.7401574803149606
20
-0.3740157480314961
11
0.7921259842519685
21
-0.3740157480314961
0
LINE
8
B.Fab
6
CONTINUOUS
10
0.8110236220472441
20
-0.3740157480314961
11
0.8629921259842519
21
-0.3740157480314961
0
LINE
8
B.Fab
6
CONTINUOUS
10
0.8818897637795275
20
-0.3740157480314961
11
0.9338582677165355
21
-0.3740157480314961
0
LINE
8
B.Fab
6
CONTINUOUS
10
0.952755905511811
20
-0.3740157480314961
11
1.0047244094488188
21
-0.3740157480314961
0
LINE
8
B.Fab
6
CONTINUOUS
10
1.0236220472440944
20
-0.3740157480314961
11
1.0755905511811024
21
-0.3740157480314961
0
LINE
8
B.Fab
6
CONTINUOUS
10
1.094488188976378
20
-0.3740157480314961
11
1.1464566929133857
21
-0.3740157480314961
0
LINE
8
B.Fab
6
CONTINUOUS
10
1.1653543307086613
20
-0.3740157480314961
11
1.2173228346456693
21
-0.3740157480314961
0
LINE
8
B.Fab
6
CONTINUOUS
10
1.2362204724409449
20
-0.3740157480314961
11
1.2881889763779528
21
-0.3740157480314961
0
LINE
8
B.Fab
6
CONTINUOUS
10
1.3070866141732282
20
-0.3740157480314961
11
1.3590551181102362
21
-0.3740157480314961
0
LINE
8
B.Fab
6
CONTINUOUS
10
1.3779527559055118
20
-0.3740157480314961
11
1.4299212598425197
21
-0.3740157480314961
0
LINE
8
B.Fab
6
CONTINUOUS
10
1.4488188976377951
20
-0.3740157480314961
11
1.5007874015748031
21
-0.3740157480314961
0
LINE
8
B.Fab
6
CONTINUOUS
10
1.5196850393700787
20
-0.3740157480314961
11
1.5716535433070866
21
-0.3740157480314961
0
LINE
8
B.Fab
6
CONTINUOUS
10
1.5905511811023623
20
-0.3740157480314961
11
1.64251968503937
21
-0.3740157480314961
0
LINE
8
B.Fab
6
CONTINUOUS
10
1.6614173228346456
20
-0.3740157480314961
11
1.7133858267716535
21
-0.3740157480314961
0
LINE
8
B.Fab
6
CONTINUOUS
10
1.7322834645669292
20
-0.3740157480314961
11
1.7842519685039369
21
-0.3740157480314961
0
LINE
8
B.Fab
6
CONTINUOUS
10
1.8031496062992125
20
-0.3740157480314961
11
1.8551181102362204
21
-0.3740157480314961
0
LINE
8
B.Fab
6
CONTINUOUS
10
1.8740157480314961
20
-0.3740157480314961
11
1.925984251968504
21
-0.3740157480314961
0
LINE
8
B.Fab
6
CONTINUOUS
10
1.9448818897637794
20
-0.3740157480314961
11
1.9968503937007873
21
-0.3740157480314961
0
LINE
8
B.Fab
6
CONTINUOUS
10
2.015748031496063
20
-0.3740157480314961
11
2.0677165354330707
21
-0.3740157480314961
0
LINE
8
B.Fab
6
CONTINUOUS
10
2.0866141732283463
20
-0.3740157480314961
11
2.1385826771653544
21
-0.3740157480314961
0
LINE
8
B.Fab
6
CONTINUOUS
10
2.1574803149606301
20
-0.3740157480314961
11
2.2094488188976378
21
-0.3740157480314961
0
LINE
8
B.Fab
6
CONTINUOUS
10
2.2283464566929134
20
-0.3740157480314961
11
2.2803149606299211
21
-0.3740157480314961
0
LINE
8
B.Fab
6
CONTINUOUS
10
2.2992125984251968
20
-0.3740157480314961
11
2.3511811023622045
21
-0.3740157480314961
0
LINE
8
B.Fab
6
CONTINUOUS
10
2.3700787401574801
20
-0.3740157480314961
11
2.4220472440944882
21
-0.3740157480314961
0
LINE
8
B.Fab
6
CONTINUOUS
10
2.4409448818897639
20
-0.3740157480314961
11
2.4929133858267716
21
-0.3740157480314961
0
LINE
8
B.Fab
6
CONTINUOUS
10
2.5118110236220472
20
-0.3740157480314961
11
2.5637795275590549
21
-0.3740157480314961
0
LINE
8
B.Fab
6
CONTINUOUS
10
2.5826771653543306
20
-0.3740157480314961
11
2.6346456692913387
21
-0.3740157480314961
0
LINE
8
B.Fab
6
CONTINUOUS
10
2.6535433070866139
20
-0.3740157480314961
11
2.705511811023622
21
-0.3740157480314961
0
LINE
8
B.Fab
6
CONTINUOUS
10
2.7244094488188977
20
-0.3740157480314961
11
2.7763779527559054
21
-0.3740157480314961
0
LINE
8
B.Fab
6
CONTINUOUS
10
2.795275590551181
20
-0.3740157480314961
11
2.8472440944881887
21
-0.3740157480314961
0
LINE
8
B.Fab
6
CONTINUOUS
10
2.8661417322834644
20
-0.3740157480314961
11
2.9181102362204725
21
-0.3740157480314961
0
LINE
8
B.Fab
6
CONTINUOUS
10
2.9370078740157481
20
-0.3740157480314961
11
2.9889763779527558
21
-0.3740157480314961
0
LINE
8
B.Fab
6
CONTINUOUS
10
3.0078740157480315
20
-0.3740157480314961
11
3.0598425196850392
21
-0.3740157480314961
0
LINE
8
B.Fab
6
CONTINUOUS
10
3.0787401574803148
20
-0.3740157480314961
11
3.130708661417323
21
-0.3740157480314961
0
LINE
8
B.Fab
6
CONTINUOUS
10
3.1496062992125982
20
-0.3740157480314961
11
3.2015748031496063
21
-0.3740157480314961
0
LINE
8
B.Fab
6
CONTINUOUS
10
3.2204724409448819
20
-0.3740157480314961
11
3.2724409448818896
21
-0.3740157480314961
0
LINE
8
B.Fab
6
CONTINUOUS
10
3.2913385826771653
20
-0.3740157480314961
11
3.3070866141732282
21
-0.3740157480314961
0
LINE
8
B.Fab
6
CONTINUOUS
10
3.3070866141732282
20
-0.3740157480314961
11
3.3070866141732282
21
-0.4259842519685039
0
LINE
8
B.Fab
6
CONTINUOUS
10
3.3070866141732282
20
-0.4448818897637795
11
3.3070866141732282
21
-0.4968503937007874
0
LINE
8
B.Fab
6
CONTINUOUS
10
3.3070866141732282
20
-0.515748031496063
11
3.3070866141732282
21
-0.5677165354330709
0
LINE
8
B.Fab
6
CONTINUOUS
10
3.3070866141732282
20
-0.5866141732283464
11
3.3070866141732282
21
-0.6385826771653543
0
LINE
8
B.Fab
6
CONTINUOUS
10
3.3070866141732282
20
-0.6574803149606299
11
3.3070866141732282
21
-0.7094488188976378
0
LINE
8
B.Fab
6
CONTINUOUS
10
3.3070866141732282
20
-0.7283464566929134
11
3.3070866141732282
21
-0.7803149606299212
0
LINE
8
B.Fab
6
CONTINUOUS
10
3.3070866141732282
20
-0.7992125984251969
11
3.3070866141732282
21
-0.8511811023622047
0
LINE
8
B.Fab
6
CONTINUOUS
10
3.3070866141732282
20
-0.8700787401574803
11
3.3070866141732282
21
-0.9220472440944881
0
LINE
8
B.Fab
6
CONTINUOUS
10
3.3070866141732282
20
-0.9409448818897638
11
3.3070866141732282
21
-0.9929133858267716
0
LINE
8
B.Fab
6
CONTINUOUS
10
3.3070866141732282
20
-1.0118110236220472
11
3.3070866141732282
21
-1.0637795275590551
0
LINE
8
B.Fab
6
CONTINUOUS
10
3.3070866141732282
20
-1.0826771653543308
11
3.3070866141732282
21
-1.1346456692913385
0
LINE
8
B.Fab
6
CONTINUOUS
10
3.3070866141732282
20
-1.1535433070866141
11
3.3070866141732282
21
-1.200787401574803
0
LINE
8
B.Fab
6
CONTINUOUS
10
3.3070866141732282
20
-1.200787401574803
11
3.2551181102362206
21
-1.200787401574803
0
LINE
8
B.Fab
6
CONTINUOUS
10
3.2362204724409449
20
-1.200787401574803
11
3.1842519685039368
21
-1.200787401574803
0
LINE
8
B.Fab
6
CONTINUOUS
10
3.1653543307086611
20
-1.200787401574803
11
3.1133858267716534
21
-1.200787401574803
0
LINE
8
B.Fab
6
CONTINUOUS
10
3.0944881889763778
20
-1.200787401574803
11
3.0425196850393701
21
-1.200787401574803
0
LINE
8
B.Fab
6
CONTINUOUS
10
3.0236220472440944
20
-1.200787401574803
11
2.9716535433070868
21
-1.200787401574803
0
LINE
8
B.Fab
6
CONTINUOUS
10
2.9527559055118111
20
-1.200787401574803
11
2.900787401574803
21
-1.200787401574803
0
LINE
8
B.Fab
6
CONTINUOUS
10
2.8818897637795273
20
-1.200787401574803
11
2.8299212598425196
21
-1.200787401574803
0
LINE
8
B.Fab
6
CONTINUOUS
10
2.811023622047244
20
-1.200787401574803
11
2.7590551181102363
21
-1.200787401574803
0
LINE
8
B.Fab
6
CONTINUOUS
10
2.7401574803149606
20
-1.200787401574803
11
2.6881889763779525
21
-1.200787401574803
0
LINE
8
B.Fab
6
CONTINUOUS
10
2.6692913385826773
20
-1.200787401574803
11
2.6173228346456692
21
-1.200787401574803
0
LINE
8
B.Fab
6
CONTINUOUS
10
2.5984251968503935
20
-1.200787401574803
11
2.5464566929133858
21
-1.200787401574803
0
LINE
8
B.Fab
6
CONTINUOUS
10
2.5275590551181102
20
-1.200787401574803
11
2.4755905511811025
21
-1.200787401574803
0
LINE
8
B.Fab
6
CONTINUOUS
10
2.4566929133858268
20
-1.200787401574803
11
2.4047244094488187
21
-1.200787401574803
0
LINE
8
B.Fab
6
CONTINUOUS
10
2.3858267716535431
20
-1.200787401574803
11
2.3338582677165354
21
-1.200787401574803
0
LINE
8
B.Fab
6
CONTINUOUS
10
2.3149606299212597
20
-1.200787401574803
11
2.262992125984252
21
-1.200787401574803
0
LINE
8
B.Fab
6
CONTINUOUS
10
2.2440944881889764
20
-1.200787401574803
11
2.1921259842519683
21
-1.200787401574803
0
LINE
8
B.Fab
6
CONTINUOUS
10
2.173228346456693
20
-1.200787401574803
11
2.1212598425196849
21
-1.200787401574803
0
LINE
8
B.Fab
6
CONTINUOUS
10
2.1023622047244093
20
-1.200787401574803
11
2.0503937007874016
21
-1.200787401574803
0
LINE
8
B.Fab
6
CONTINUOUS
10
2.0314960629921259
20
-1.200787401574803
11
1.979527559055118
21
-1.200787401574803
0
LINE
8
B.Fab
6
CONTINUOUS
10
1.9606299212598424
20
-1.200787401574803
11
1.9086614173228347
21
-1.200787401574803
0
LINE
8
B.Fab
6
CONTINUOUS
10
1.889763779527559
20
-1.200787401574803
11
1.8377952755905511
21
-1.200787401574803
0
LINE
8
B.Fab
6
CONTINUOUS
10
1.8188976377952755
20
-1.200787401574803
11
1.7669291338582678
21
-1.200787401574803
0
LINE
8
B.Fab
6
CONTINUOUS
10
1.7480314960629921
20
-1.200787401574803
11
1.6960629921259842
21
-1.200787401574803
0
LINE
8
B.Fab
6
CONTINUOUS
10
1.6771653543307086
20
-1.200787401574803
11
1.6251968503937007
21
-1.200787401574803
0
LINE
8
B.Fab
6
CONTINUOUS
10
1.6062992125984252
20
-1.200787401574803
11
1.5543307086614173
21
-1.200787401574803
0
LINE
8
B.Fab
6
CONTINUOUS
10
1.5354330708661417
20
-1.200787401574803
11
1.4834645669291338
21
-1.200787401574803
0
LINE
8
B.Fab
6
CONTINUOUS
10
1.4645669291338583
20
-1.200787401574803
11
1.4125984251968504
21
-1.200787401574803
0
LINE
8
B.Fab
6
CONTINUOUS
10
1.3937007874015748
20
-1.200787401574803
11
1.3417322834645669
21
-1.200787401574803
0
LINE
8
B.Fab
6
CONTINUOUS
10
1.3228346456692912
20
-1.200787401574803
11
1.2708661417322835
21
-1.200787401574803
0
LINE
8
B.Fab
6
CONTINUOUS
10
1.2519685039370079
20
-1.200787401574803
11
1.2
21
-1.200787401574803
0
LINE
8
B.Fab
6
CONTINUOUS
10
1.1811023622047243
20
-1.200787401574803
11
1.1291338582677166
21
-1.200787401574803
0
LINE
8
B.Fab
6
CONTINUOUS
10
1.110236220472441
20
-1.200787401574803
11
1.0582677165354331
21
-1.200787401574803
0
LINE
8
B.Fab
6
CONTINUOUS
10
1.0393700787401574
20
-1.200787401574803
11
0.9874015748031496
21
-1.200787401574803
0
LINE
8
B.Fab
6
CONTINUOUS
10
0.968503937007874
20
-1.200787401574803
11
0.9165354330708662
21
-1.200787401574803
0
LINE
8
B.Fab
6
CONTINUOUS
10
0.8976377952755905
20
-1.200787401574803
11
0.8456692913385827
21
-1.200787401574803
0
LINE
8
B.Fab
6
CONTINUOUS
10
0.8267716535433071
20
-1.200787401574803
11
0.7748031496062991
21
-1.200787401574803
0
LINE
8
B.Fab
6
CONTINUOUS
10
0.7559055118110236
20
-1.200787401574803
11
0.7039370078740157
21
-1.200787401574803
0
LINE
8
B.Fab
6
CONTINUOUS
10
0.6850393700787402
20
-1.200787401574803
11
0.6330708661417322
21
-1.200787401574803
0
LINE
8
B.Fab
6
CONTINUOUS
10
0.6141732283464567
20
-1.200787401574803
11
0.5622047244094488
21
-1.200787401574803
0
LINE
8
B.Fab
6
CONTINUOUS
10
0.5433070866141733
20
-1.200787401574803
11
0.4913385826771653
21
-1.200787401574803
0
LINE
8
B.Fab
6
CONTINUOUS
10
0.4724409448818898
20
-1.200787401574803
11
0.4204724409448819
21
-1.200787401574803
0
LINE
8
B.Fab
6
CONTINUOUS
10
0.4015748031496063
20
-1.200787401574803
11
0.3496062992125984
21
-1.200787401574803
0
LINE
8
B.Fab
6
CONTINUOUS
10
0.3307086614173228
20
-1.200787401574803
11
0.3149606299212598
21
-1.200787401574803
0
LINE
8
B.Fab
6
CONTINUOUS
10
0.3149606299212598
20
-1.200787401574803
11
0.3149606299212598
21
-1.1488188976377953
0
LINE
8
B.Fab
6
CONTINUOUS
10
0.3149606299212598
20
-1.1299212598425197
11
0.3149606299212598
21
-1.0779527559055118
0
LINE
8
B.Fab
6
CONTINUOUS
10
0.3149606299212598
20
-1.0590551181102361
11
0.3149606299212598
21
-1.0070866141732284
0
LINE
8
B.Fab
6
CONTINUOUS
10
0.3149606299212598
20
-0.9881889763779528
11
0.3149606299212598
21
-0.9362204724409449
0
LINE
8
B.Fab
6
CONTINUOUS
10
0.3149606299212598
20
-0.9173228346456692
11
0.3149606299212598
21
-0.8653543307086614
0
LINE
8
B.Fab
6
CONTINUOUS
10
0.3149606299212598
20
-0.8464566929133858
11
0.3149606299212598
21
-0.794488188976378
0
LINE
8
B.Fab
6
CONTINUOUS
10
0.3149606299212598
20
-0.7755905511811023
11
0.3149606299212598
21
-0.7236220472440945
0
LINE
8
B.Fab
6
CONTINUOUS
10
0.3149606299212598
20
-0.7047244094488189
11
0.3149606299212598
21
-0.6527559055118111
0
LINE
8
B.Fab
6
CONTINUOUS
10
0.3149606299212598
20
-0.6338582677165354
11
0.3149606299212598
21
-0.5818897637795275
0
LINE
8
B.Fab
6
CONTINUOUS
10
0.3149606299212598
20
-0.562992125984252
11
0.3149606299212598
21
-0.5110236220472441
0
LINE
8
B.Fab
6
CONTINUOUS
10
0.3149606299212598
20
-0.4921259842519685
11
0.3149606299212598
21
-0.4401574803149606
0
LINE
8
B.Fab
6
CONTINUOUS
10
0.3149606299212598
20
-0.421259842519685
11
0.3149606299212598
21
-0.3740157480314961
0
LINE
8
B.Fab
6
CONTINUOUS
10
1.0652417322834646
20
-0.7849467716535433
11
1.0703036220472442
21
-0.7866340551181102
0
LINE
8
B.Fab
6
CONTINUOUS
10
1.0703036220472442
20
-0.7866340551181102
11
1.0719909055118111
21
-0.7883213385826772
0
LINE
8
B.Fab
6
CONTINUOUS
10
1.0719909055118111
20
-0.7883213385826772
11
1.073678188976378
21
-0.7916959448818898
0
LINE
8
B.Fab
6
CONTINUOUS
10
1.073678188976378
20
-0.7916959448818898
11
1.073678188976378
21
-0.7967577952755905
0
LINE
8
B.Fab
6
CONTINUOUS
10
1.073678188976378
20
-0.7967577952755905
11
1.0719909055118111
21
-0.8001323622047244
0
LINE
8
B.Fab
6
CONTINUOUS
10
1.0719909055118111
20
-0.8001323622047244
11
1.0703036220472442
21
-0.8018196850393701
0
LINE
8
B.Fab
6
CONTINUOUS
10
1.0703036220472442
20
-0.8018196850393701
11
1.0669290157480316
21
-0.803506968503937
0
LINE
8
B.Fab
6
CONTINUOUS
10
1.0669290157480316
20
-0.803506968503937
11
1.0534307086614172
21
-0.803506968503937
0
LINE
8
B.Fab
6
CONTINUOUS
10
1.0534307086614172
20
-0.803506968503937
11
1.0534307086614172
21
-0.7680738976377952
0
LINE
8
B.Fab
6
CONTINUOUS
10
1.0534307086614172
20
-0.7680738976377952
11
1.0652417322834646
21
-0.7680738976377952
0
LINE
8
B.Fab
6
CONTINUOUS
10
1.0652417322834646
20
-0.7680738976377952
11
1.0686163385826772
21
-0.7697611811023621
0
LINE
8
B.Fab
6
CONTINUOUS
10
1.0686163385826772
20
-0.7697611811023621
11
1.0703036220472442
21
-0.7714484645669292
0
LINE
8
B.Fab
6
CONTINUOUS
10
1.0703036220472442
20
-0.7714484645669292
11
1.0719909055118111
21
-0.774823031496063
0
LINE
8
B.Fab
6
CONTINUOUS
10
1.0719909055118111
20
-0.774823031496063
11
1.0719909055118111
21
-0.7781976377952756
0
LINE
8
B.Fab
6
CONTINUOUS
10
1.0719909055118111
20
-0.7781976377952756
11
1.0703036220472442
21
-0.7815722047244095
0
LINE
8
B.Fab
6
CONTINUOUS
10
1.0703036220472442
20
-0.7815722047244095
11
1.0686163385826772
21
-0.7832594881889764
0
LINE
8
B.Fab
6
CONTINUOUS
10
1.0686163385826772
20
-0.7832594881889764
11
1.0652417322834646
21
-0.7849467716535433
0
LINE
8
B.Fab
6
CONTINUOUS
10
1.0652417322834646
20
-0.7849467716535433
11
1.0534307086614172
21
-0.7849467716535433
0
LINE
8
B.Fab
6
CONTINUOUS
10
1.0939256692913386
20
-0.803506968503937
11
1.090551062992126
21
-0.8018196850393701
0
LINE
8
B.Fab
6
CONTINUOUS
10
1.090551062992126
20
-0.8018196850393701
11
1.0888637795275591
21
-0.8001323622047244
0
LINE
8
B.Fab
6
CONTINUOUS
10
1.0888637795275591
20
-0.8001323622047244
11
1.0871764960629922
21
-0.7967577952755905
0
LINE
8
B.Fab
6
CONTINUOUS
10
1.0871764960629922
20
-0.7967577952755905
11
1.0871764960629922
21
-0.7866340551181102
0
LINE
8
B.Fab
6
CONTINUOUS
10
1.0871764960629922
20
-0.7866340551181102
11
1.0888637795275591
21
-0.7832594881889764
0
LINE
8
B.Fab
6
CONTINUOUS
10
1.0888637795275591
20
-0.7832594881889764
11
1.090551062992126
21
-0.7815722047244095
0
LINE
8
B.Fab
6
CONTINUOUS
10
1.090551062992126
20
-0.7815722047244095
11
1.0939256692913386
21
-0.7798849212598425
0
LINE
8
B.Fab
6
CONTINUOUS
10
1.0939256692913386
20
-0.7798849212598425
11
1.0989875196850394
21
-0.7798849212598425
0
LINE
8
B.Fab
6
CONTINUOUS
10
1.0989875196850394
20
-0.7798849212598425
11
1.1023620866141732
21
-0.7815722047244095
0
LINE
8
B.Fab
6
CONTINUOUS
10
1.1023620866141732
20
-0.7815722047244095
11
1.1040494094488189
21
-0.7832594881889764
0
LINE
8
B.Fab
6
CONTINUOUS
10
1.1040494094488189
20
-0.7832594881889764
11
1.1057366929133858
21
-0.7866340551181102
0
LINE
8
B.Fab
6
CONTINUOUS
10
1.1057366929133858
20
-0.7866340551181102
11
1.1057366929133858
21
-0.7967577952755905
0
LINE
8
B.Fab
6
CONTINUOUS
10
1.1057366929133858
20
-0.7967577952755905
11
1.1040494094488189
21
-0.8001323622047244
0
LINE
8
B.Fab
6
CONTINUOUS
10
1.1040494094488189
20
-0.8001323622047244
11
1.1023620866141732
21
-0.8018196850393701
0
LINE
8
B.Fab
6
CONTINUOUS
10
1.1023620866141732
20
-0.8018196850393701
11
1.0989875196850394
21
-0.803506968503937
0
LINE
8
B.Fab
6
CONTINUOUS
10
1.0989875196850394
20
-0.803506968503937
11
1.0939256692913386
21
-0.803506968503937
0
LINE
8
B.Fab
6
CONTINUOUS
10
1.1158604330708661
20
-0.7798849212598425
11
1.1293587401574803
21
-0.7798849212598425
0
LINE
8
B.Fab
6
CONTINUOUS
10
1.1209222834645669
20
-0.7680738976377952
11
1.1209222834645669
21
-0.7984450787401575
0
LINE
8
B.Fab
6
CONTINUOUS
10
1.1209222834645669
20
-0.7984450787401575
11
1.1226095669291338
21
-0.8018196850393701
0
LINE
8
B.Fab
6
CONTINUOUS
10
1.1226095669291338
20
-0.8018196850393701
11
1.1259841732283464
21
-0.803506968503937
0
LINE
8
B.Fab
6
CONTINUOUS
10
1.1259841732283464
20
-0.803506968503937
11
1.1293587401574803
21
-0.803506968503937
0
LINE
8
B.Fab
6
CONTINUOUS
10
1.1361079133858267
20
-0.7798849212598425
11
1.1496062204724409
21
-0.7798849212598425
0
LINE
8
B.Fab
6
CONTINUOUS
10
1.1411697637795275
20
-0.7680738976377952
11
1.1411697637795275
21
-0.7984450787401575
0
LINE
8
B.Fab
6
CONTINUOUS
10
1.1411697637795275
20
-0.7984450787401575
11
1.1428570472440944
21
-0.8018196850393701
0
LINE
8
B.Fab
6
CONTINUOUS
10
1.1428570472440944
20
-0.8018196850393701
11
1.146231653543307
21
-0.803506968503937
0
LINE
8
B.Fab
6
CONTINUOUS
10
1.146231653543307
20
-0.803506968503937
11
1.1496062204724409
21
-0.803506968503937
0
LINE
8
B.Fab
6
CONTINUOUS
10
1.1664791338582676
20
-0.803506968503937
11
1.163104527559055
21
-0.8018196850393701
0
LINE
8
B.Fab
6
CONTINUOUS
10
1.163104527559055
20
-0.8018196850393701
11
1.1614172440944881
21
-0.8001323622047244
0
LINE
8
B.Fab
6
CONTINUOUS
10
1.1614172440944881
20
-0.8001323622047244
11
1.1597299606299212
21
-0.7967577952755905
0
LINE
8
B.Fab
6
CONTINUOUS
10
1.1597299606299212
20
-0.7967577952755905
11
1.1597299606299212
21
-0.7866340551181102
0
LINE
8
B.Fab
6
CONTINUOUS
10
1.1597299606299212
20
-0.7866340551181102
11
1.1614172440944881
21
-0.7832594881889764
0
LINE
8
B.Fab
6
CONTINUOUS
10
1.1614172440944881
20
-0.7832594881889764
11
1.163104527559055
21
-0.7815722047244095
0
LINE
8
B.Fab
6
CONTINUOUS
10
1.163104527559055
20
-0.7815722047244095
11
1.1664791338582676
21
-0.7798849212598425
0
LINE
8
B.Fab
6
CONTINUOUS
10
1.1664791338582676
20
-0.7798849212598425
11
1.1715409842519684
21
-0.7798849212598425
0
LINE
8
B.Fab
6
CONTINUOUS
10
1.1715409842519684
20
-0.7798849212598425
11
1.1749155511811022
21
-0.7815722047244095
0
LINE
8
B.Fab
6
CONTINUOUS
10
1.1749155511811022
20
-0.7815722047244095
11
1.1766028740157479
21
-0.7832594881889764
0
LINE
8
B.Fab
6
CONTINUOUS
10
1.1766028740157479
20
-0.7832594881889764
11
1.1782901574803148
21
-0.7866340551181102
0
LINE
8
B.Fab
6
CONTINUOUS
10
1.1782901574803148
20
-0.7866340551181102
11
1.1782901574803148
21
-0.7967577952755905
0
LINE
8
B.Fab
6
CONTINUOUS
10
1.1782901574803148
20
-0.7967577952755905
11
1.1766028740157479
21
-0.8001323622047244
0
LINE
8
B.Fab
6
CONTINUOUS
10
1.1766028740157479
20
-0.8001323622047244
11
1.1749155511811022
21
-0.8018196850393701
0
LINE
8
B.Fab
6
CONTINUOUS
10
1.1749155511811022
20
-0.8018196850393701
11
1.1715409842519684
21
-0.803506968503937
0
LINE
8
B.Fab
6
CONTINUOUS
10
1.1715409842519684
20
-0.803506968503937
11
1.1664791338582676
21
-0.803506968503937
0
LINE
8
B.Fab
6
CONTINUOUS
10
1.1934757480314961
20
-0.803506968503937
11
1.1934757480314961
21
-0.7798849212598425
0
LINE
8
B.Fab
6
CONTINUOUS
10
1.1934757480314961
20
-0.7832594881889764
11
1.1951630314960631
21
-0.7815722047244095
0
LINE
8
B.Fab
6
CONTINUOUS
10
1.1951630314960631
20
-0.7815722047244095
11
1.1985376377952757
21
-0.7798849212598425
0
LINE
8
B.Fab
6
CONTINUOUS
10
1.1985376377952757
20
-0.7798849212598425
11
1.2035994881889764
21
-0.7798849212598425
0
LINE
8
B.Fab
6
CONTINUOUS
10
1.2035994881889764
20
-0.7798849212598425
11
1.2069740551181103
21
-0.7815722047244095
0
LINE
8
B.Fab
6
CONTINUOUS
10
1.2069740551181103
20
-0.7815722047244095
11
1.208661377952756
21
-0.7849467716535433
0
LINE
8
B.Fab
6
CONTINUOUS
10
1.208661377952756
20
-0.7849467716535433
11
1.208661377952756
21
-0.803506968503937
0
LINE
8
B.Fab
6
CONTINUOUS
10
1.208661377952756
20
-0.7849467716535433
11
1.2103486614173229
21
-0.7815722047244095
0
LINE
8
B.Fab
6
CONTINUOUS
10
1.2103486614173229
20
-0.7815722047244095
11
1.2137232283464567
21
-0.7798849212598425
0
LINE
8
B.Fab
6
CONTINUOUS
10
1.2137232283464567
20
-0.7798849212598425
11
1.2187850787401575
21
-0.7798849212598425
0
LINE
8
B.Fab
6
CONTINUOUS
10
1.2187850787401575
20
-0.7798849212598425
11
1.2221596850393701
21
-0.7815722047244095
0
LINE
8
B.Fab
6
CONTINUOUS
10
1.2221596850393701
20
-0.7815722047244095
11
1.223846968503937
21
-0.7849467716535433
0
LINE
8
B.Fab
6
CONTINUOUS
10
1.223846968503937
20
-0.7849467716535433
11
1.223846968503937
21
-0.803506968503937
0
LINE
8
B.Fab
6
CONTINUOUS
10
1.286276653543307
20
-0.803506968503937
11
1.2660291732283464
21
-0.803506968503937
0
LINE
8
B.Fab
6
CONTINUOUS
10
1.2761529133858267
20
-0.803506968503937
11
1.2761529133858267
21
-0.7680738976377952
0
LINE
8
B.Fab
6
CONTINUOUS
10
1.2761529133858267
20
-0.7680738976377952
11
1.2727783464566929
21
-0.7731357480314961
0
LINE
8
B.Fab
6
CONTINUOUS
10
1.2727783464566929
20
-0.7731357480314961
11
1.2694037401574803
21
-0.7765103149606299
0
LINE
8
B.Fab
6
CONTINUOUS
10
1.2694037401574803
20
-0.7765103149606299
11
1.2660291732283464
21
-0.7781976377952756
0
LINE
8
B.Fab
6
CONTINUOUS
10
1.3065241338582676
20
-0.7832594881889764
11
1.303149527559055
21
-0.7815722047244095
0
LINE
8
B.Fab
6
CONTINUOUS
10
1.303149527559055
20
-0.7815722047244095
11
1.3014622440944881
21
-0.7798849212598425
0
LINE
8
B.Fab
6
CONTINUOUS
10
1.3014622440944881
20
-0.7798849212598425
11
1.2997749606299212
21
-0.7765103149606299
0
LINE
8
B.Fab
6
CONTINUOUS
10
1.2997749606299212
20
-0.7765103149606299
11
1.2997749606299212
21
-0.774823031496063
0
LINE
8
B.Fab
6
CONTINUOUS
10
1.2997749606299212
20
-0.774823031496063
11
1.3014622440944881
21
-0.7714484645669292
0
LINE
8
B.Fab
6
CONTINUOUS
10
1.3014622440944881
20
-0.7714484645669292
11
1.303149527559055
21
-0.7697611811023621
0
LINE
8
B.Fab
6
CONTINUOUS
10
1.303149527559055
20
-0.7697611811023621
11
1.3065241338582676
21
-0.7680738976377952
0
LINE
8
B.Fab
6
CONTINUOUS
10
1.3065241338582676
20
-0.7680738976377952
11
1.3132732677165353
21
-0.7680738976377952
0
LINE
8
B.Fab
6
CONTINUOUS
10
1.3132732677165353
20
-0.7680738976377952
11
1.3166478740157479
21
-0.7697611811023621
0
LINE
8
B.Fab
6
CONTINUOUS
10
1.3166478740157479
20
-0.7697611811023621
11
1.3183351574803148
21
-0.7714484645669292
0
LINE
8
B.Fab
6
CONTINUOUS
10
1.3183351574803148
20
-0.7714484645669292
11
1.320022440944882
21
-0.774823031496063
0
LINE
8
B.Fab
6
CONTINUOUS
10
1.320022440944882
20
-0.774823031496063
11
1.320022440944882
21
-0.7765103149606299
0
LINE
8
B.Fab
6
CONTINUOUS
10
1.320022440944882
20
-0.7765103149606299
11
1.3183351574803148
21
-0.7798849212598425
0
LINE
8
B.Fab
6
CONTINUOUS
10
1.3183351574803148
20
-0.7798849212598425
11
1.3166478740157479
21
-0.7815722047244095
0
LINE
8
B.Fab
6
CONTINUOUS
10
1.3166478740157479
20
-0.7815722047244095
11
1.3132732677165353
21
-0.7832594881889764
0
LINE
8
B.Fab
6
CONTINUOUS
10
1.3132732677165353
20
-0.7832594881889764
11
1.3065241338582676
21
-0.7832594881889764
0
LINE
8
B.Fab
6
CONTINUOUS
10
1.3065241338582676
20
-0.7832594881889764
11
1.303149527559055
21
-0.7849467716535433
0
LINE
8
B.Fab
6
CONTINUOUS
10
1.303149527559055
20
-0.7849467716535433
11
1.3014622440944881
21
-0.7866340551181102
0
LINE
8
B.Fab
6
CONTINUOUS
10
1.3014622440944881
20
-0.7866340551181102
11
1.2997749606299212
21
-0.7900086614173228
0
LINE
8
B.Fab
6
CONTINUOUS
10
1.2997749606299212
20
-0.7900086614173228
11
1.2997749606299212
21
-0.7967577952755905
0
LINE
8
B.Fab
6
CONTINUOUS
10
1.2997749606299212
20
-0.7967577952755905
11
1.3014622440944881
21
-0.8001323622047244
0
LINE
8
B.Fab
6
CONTINUOUS
10
1.3014622440944881
20
-0.8001323622047244
11
1.303149527559055
21
-0.8018196850393701
0
LINE
8
B.Fab
6
CONTINUOUS
10
1.303149527559055
20
-0.8018196850393701
11
1.3065241338582676
21
-0.803506968503937
0
LINE
8
B.Fab
6
CONTINUOUS
10
1.3065241338582676
20
-0.803506968503937
11
1.3132732677165353
21
-0.803506968503937
0
LINE
8
B.Fab
6
CONTINUOUS
10
1.3132732677165353
20
-0.803506968503937
11
1.3166478740157479
21
-0.8018196850393701
0
LINE
8
B.Fab
6
CONTINUOUS
10
1.3166478740157479
20
-0.8018196850393701
11
1.3183351574803148
21
-0.8001323622047244
0
LINE
8
B.Fab
6
CONTINUOUS
10
1.3183351574803148
20
-0.8001323622047244
11
1.320022440944882
21
-0.7967577952755905
0
LINE
8
B.Fab
6
CONTINUOUS
10
1.320022440944882
20
-0.7967577952755905
11
1.320022440944882
21
-0.7900086614173228
0
LINE
8
B.Fab
6
CONTINUOUS
10
1.320022440944882
20
-0.7900086614173228
11
1.3183351574803148
21
-0.7866340551181102
0
LINE
8
B.Fab
6
CONTINUOUS
10
1.3183351574803148
20
-0.7866340551181102
11
1.3166478740157479
21
-0.7849467716535433
0
LINE
8
B.Fab
6
CONTINUOUS
10
1.3166478740157479
20
-0.7849467716535433
11
1.3132732677165353
21
-0.7832594881889764
0
LINE
8
B.Fab
6
CONTINUOUS
10
1.3503936614173229
20
-0.7680738976377952
11
1.3436444881889764
21
-0.7680738976377952
0
LINE
8
B.Fab
6
CONTINUOUS
10
1.3436444881889764
20
-0.7680738976377952
11
1.3402699212598426
21
-0.7697611811023621
0
LINE
8
B.Fab
6
CONTINUOUS
10
1.3402699212598426
20
-0.7697611811023621
11
1.3385826377952756
21
-0.7714484645669292
0
LINE
8
B.Fab
6
CONTINUOUS
10
1.3385826377952756
20
-0.7714484645669292
11
1.335208031496063
21
-0.7765103149606299
0
LINE
8
B.Fab
6
CONTINUOUS
10
1.335208031496063
20
-0.7765103149606299
11
1.3335207480314961
21
-0.7832594881889764
0
LINE
8
B.Fab
6
CONTINUOUS
10
1.3335207480314961
20
-0.7832594881889764
11
1.3335207480314961
21
-0.7967577952755905
0
LINE
8
B.Fab
6
CONTINUOUS
10
1.3335207480314961
20
-0.7967577952755905
11
1.335208031496063
21
-0.8001323622047244
0
LINE
8
B.Fab
6
CONTINUOUS
10
1.335208031496063
20
-0.8001323622047244
11
1.33689531496063
21
-0.8018196850393701
0
LINE
8
B.Fab
6
CONTINUOUS
10
1.33689531496063
20
-0.8018196850393701
11
1.3402699212598426
21
-0.803506968503937
0
LINE
8
B.Fab
6
CONTINUOUS
10
1.3402699212598426
20
-0.803506968503937
11
1.3470190551181103
21
-0.803506968503937
0
LINE
8
B.Fab
6
CONTINUOUS
10
1.3470190551181103
20
-0.803506968503937
11
1.3503936614173229
21
-0.8018196850393701
0
LINE
8
B.Fab
6
CONTINUOUS
10
1.3503936614173229
20
-0.8018196850393701
11
1.3520809448818898
21
-0.8001323622047244
0
LINE
8
B.Fab
6
CONTINUOUS
10
1.3520809448818898
20
-0.8001323622047244
11
1.3537682283464567
21
-0.7967577952755905
0
LINE
8
B.Fab
6
CONTINUOUS
10
1.3537682283464567
20
-0.7967577952755905
11
1.3537682283464567
21
-0.7883213385826772
0
LINE
8
B.Fab
6
CONTINUOUS
10
1.3537682283464567
20
-0.7883213385826772
11
1.3520809448818898
21
-0.7849467716535433
0
LINE
8
B.Fab
6
CONTINUOUS
10
1.3520809448818898
20
-0.7849467716535433
11
1.3503936614173229
21
-0.7832594881889764
0
LINE
8
B.Fab
6
CONTINUOUS
10
1.3503936614173229
20
-0.7832594881889764
11
1.3470190551181103
21
-0.7815722047244095
0
LINE
8
B.Fab
6
CONTINUOUS
10
1.3470190551181103
20
-0.7815722047244095
11
1.3402699212598426
21
-0.7815722047244095
0
LINE
8
B.Fab
6
CONTINUOUS
10
1.3402699212598426
20
-0.7815722047244095
11
1.33689531496063
21
-0.7832594881889764
0
LINE
8
B.Fab
6
CONTINUOUS
10
1.33689531496063
20
-0.7832594881889764
11
1.335208031496063
21
-0.7849467716535433
0
LINE
8
B.Fab
6
CONTINUOUS
10
1.335208031496063
20
-0.7849467716535433
11
1.3335207480314961
21
-0.7883213385826772
0
LINE
8
B.Fab
6
CONTINUOUS
10
1.3858267322834645
20
-0.7680738976377952
11
1.3689538188976378
21
-0.7680738976377952
0
LINE
8
B.Fab
6
CONTINUOUS
10
1.3689538188976378
20
-0.7680738976377952
11
1.3672665354330709
21
-0.7849467716535433
0
LINE
8
B.Fab
6
CONTINUOUS
10
1.3672665354330709
20
-0.7849467716535433
11
1.3689538188976378
21
-0.7832594881889764
0
LINE
8
B.Fab
6
CONTINUOUS
10
1.3689538188976378
20
-0.7832594881889764
11
1.3723284251968504
21
-0.7815722047244095
0
LINE
8
B.Fab
6
CONTINUOUS
10
1.3723284251968504
20
-0.7815722047244095
11
1.380764842519685
21
-0.7815722047244095
0
LINE
8
B.Fab
6
CONTINUOUS
10
1.380764842519685
20
-0.7815722047244095
11
1.3841394488188976
21
-0.7832594881889764
0
LINE
8
B.Fab
6
CONTINUOUS
10
1.3841394488188976
20
-0.7832594881889764
11
1.3858267322834645
21
-0.7849467716535433
0
LINE
8
B.Fab
6
CONTINUOUS
10
1.3858267322834645
20
-0.7849467716535433
11
1.3875140157480315
21
-0.7883213385826772
0
LINE
8
B.Fab
6
CONTINUOUS
10
1.3875140157480315
20
-0.7883213385826772
11
1.3875140157480315
21
-0.7967577952755905
0
LINE
8
B.Fab
6
CONTINUOUS
10
1.3875140157480315
20
-0.7967577952755905
11
1.3858267322834645
21
-0.8001323622047244
0
LINE
8
B.Fab
6
CONTINUOUS
10
1.3858267322834645
20
-0.8001323622047244
11
1.3841394488188976
21
-0.8018196850393701
0
LINE
8
B.Fab
6
CONTINUOUS
10
1.3841394488188976
20
-0.8018196850393701
11
1.380764842519685
21
-0.803506968503937
0
LINE
8
B.Fab
6
CONTINUOUS
10
1.380764842519685
20
-0.803506968503937
11
1.3723284251968504
21
-0.803506968503937
0
LINE
8
B.Fab
6
CONTINUOUS
10
1.3723284251968504
20
-0.803506968503937
11
1.3689538188976378
21
-0.8018196850393701
0
LINE
8
B.Fab
6
CONTINUOUS
10
1.3689538188976378
20
-0.8018196850393701
11
1.3672665354330709
21
-0.8001323622047244
0
LINE
8
B.Fab
6
CONTINUOUS
10
1.409448779527559
20
-0.7680738976377952
11
1.4128233464566928
21
-0.7680738976377952
0
LINE
8
B.Fab
6
CONTINUOUS
10
1.4128233464566928
20
-0.7680738976377952
11
1.4161979133858267
21
-0.7697611811023621
0
LINE
8
B.Fab
6
CONTINUOUS
10
1.4161979133858267
20
-0.7697611811023621
11
1.4178852362204724
21
-0.7714484645669292
0
LINE
8
B.Fab
6
CONTINUOUS
10
1.4178852362204724
20
-0.7714484645669292
11
1.4195725196850393
21
-0.774823031496063
0
LINE
8
B.Fab
6
CONTINUOUS
10
1.4195725196850393
20
-0.774823031496063
11
1.4212598031496062
21
-0.7815722047244095
0
LINE
8
B.Fab
6
CONTINUOUS
10
1.4212598031496062
20
-0.7815722047244095
11
1.4212598031496062
21
-0.7900086614173228
0
LINE
8
B.Fab
6
CONTINUOUS
10
1.4212598031496062
20
-0.7900086614173228
11
1.4195725196850393
21
-0.7967577952755905
0
LINE
8
B.Fab
6
CONTINUOUS
10
1.4195725196850393
20
-0.7967577952755905
11
1.4178852362204724
21
-0.8001323622047244
0
LINE
8
B.Fab
6
CONTINUOUS
10
1.4178852362204724
20
-0.8001323622047244
11
1.4161979133858267
21
-0.8018196850393701
0
LINE
8
B.Fab
6
CONTINUOUS
10
1.4161979133858267
20
-0.8018196850393701
11
1.4128233464566928
21
-0.803506968503937
0
LINE
8
B.Fab
6
CONTINUOUS
10
1.4128233464566928
20
-0.803506968503937
11
1.409448779527559
21
-0.803506968503937
0
LINE
8
B.Fab
6
CONTINUOUS
10
1.409448779527559
20
-0.803506968503937
11
1.4060742125984251
21
-0.8018196850393701
0
LINE
8
B.Fab
6
CONTINUOUS
10
1.4060742125984251
20
-0.8018196850393701
11
1.4043868897637795
21
-0.8001323622047244
0
LINE
8
B.Fab
6
CONTINUOUS
10
1.4043868897637795
20
-0.8001323622047244
11
1.4026996062992125
21
-0.7967577952755905
0
LINE
8
B.Fab
6
CONTINUOUS
10
1.4026996062992125
20
-0.7967577952755905
11
1.4010123228346456
21
-0.7900086614173228
0
LINE
8
B.Fab
6
CONTINUOUS
10
1.4010123228346456
20
-0.7900086614173228
11
1.4010123228346456
21
-0.7815722047244095
0
LINE
8
B.Fab
6
CONTINUOUS
10
1.4010123228346456
20
-0.7815722047244095
11
1.4026996062992125
21
-0.774823031496063
0
LINE
8
B.Fab
6
CONTINUOUS
10
1.4026996062992125
20
-0.774823031496063
11
1.4043868897637795
21
-0.7714484645669292
0
LINE
8
B.Fab
6
CONTINUOUS
10
1.4043868897637795
20
-0.7714484645669292
11
1.4060742125984251
21
-0.7697611811023621
0
LINE
8
B.Fab
6
CONTINUOUS
10
1.4060742125984251
20
-0.7697611811023621
11
1.409448779527559
21
-0.7680738976377952
0
LINE
8
B.Fab
6
CONTINUOUS
10
1.4634420078740158
20
-0.803506968503937
11
1.4634420078740158
21
-0.7680738976377952
0
LINE
8
B.Fab
6
CONTINUOUS
10
1.4786276377952756
20
-0.803506968503937
11
1.4786276377952756
21
-0.7849467716535433
0
LINE
8
B.Fab
6
CONTINUOUS
10
1.4786276377952756
20
-0.7849467716535433
11
1.4769403149606299
21
-0.7815722047244095
0
LINE
8
B.Fab
6
CONTINUOUS
10
1.4769403149606299
20
-0.7815722047244095
11
1.4735657480314961
21
-0.7798849212598425
0
LINE
8
B.Fab
6
CONTINUOUS
10
1.4735657480314961
20
-0.7798849212598425
11
1.4685038976377953
21
-0.7798849212598425
0
LINE
8
B.Fab
6
CONTINUOUS
10
1.4685038976377953
20
-0.7798849212598425
11
1.4651292913385827
21
-0.7815722047244095
0
LINE
8
B.Fab
6
CONTINUOUS
10
1.4651292913385827
20
-0.7815722047244095
11
1.4634420078740158
21
-0.7832594881889764
0
LINE
8
B.Fab
6
CONTINUOUS
10
1.5005624015748031
20
-0.803506968503937
11
1.4971877952755905
21
-0.8018196850393701
0
LINE
8
B.Fab
6
CONTINUOUS
10
1.4971877952755905
20
-0.8018196850393701
11
1.4955005118110236
21
-0.8001323622047244
0
LINE
8
B.Fab
6
CONTINUOUS
10
1.4955005118110236
20
-0.8001323622047244
11
1.4938132283464567
21
-0.7967577952755905
0
LINE
8
B.Fab
6
CONTINUOUS
10
1.4938132283464567
20
-0.7967577952755905
11
1.4938132283464567
21
-0.7866340551181102
0
LINE
8
B.Fab
6
CONTINUOUS
10
1.4938132283464567
20
-0.7866340551181102
11
1.4955005118110236
21
-0.7832594881889764
0
LINE
8
B.Fab
6
CONTINUOUS
10
1.4955005118110236
20
-0.7832594881889764
11
1.4971877952755905
21
-0.7815722047244095
0
LINE
8
B.Fab
6
CONTINUOUS
10
1.4971877952755905
20
-0.7815722047244095
11
1.5005624015748031
21
-0.7798849212598425
0
LINE
8
B.Fab
6
CONTINUOUS
10
1.5005624015748031
20
-0.7798849212598425
11
1.5056242519685039
21
-0.7798849212598425
0
LINE
8
B.Fab
6
CONTINUOUS
10
1.5056242519685039
20
-0.7798849212598425
11
1.5089988188976378
21
-0.7815722047244095
0
LINE
8
B.Fab
6
CONTINUOUS
10
1.5089988188976378
20
-0.7815722047244095
11
1.5106861417322834
21
-0.7832594881889764
0
LINE
8
B.Fab
6
CONTINUOUS
10
1.5106861417322834
20
-0.7832594881889764
11
1.5123734251968504
21
-0.7866340551181102
0
LINE
8
B.Fab
6
CONTINUOUS
10
1.5123734251968504
20
-0.7866340551181102
11
1.5123734251968504
21
-0.7967577952755905
0
LINE
8
B.Fab
6
CONTINUOUS
10
1.5123734251968504
20
-0.7967577952755905
11
1.5106861417322834
21
-0.8001323622047244
0
LINE
8
B.Fab
6
CONTINUOUS
10
1.5106861417322834
20
-0.8001323622047244
11
1.5089988188976378
21
-0.8018196850393701
0
LINE
8
B.Fab
6
CONTINUOUS
10
1.5089988188976378
20
-0.8018196850393701
11
1.5056242519685039
21
-0.803506968503937
0
LINE
8
B.Fab
6
CONTINUOUS
10
1.5056242519685039
20
-0.803506968503937
11
1.5005624015748031
21
-0.803506968503937
0
LINE
8
B.Fab
6
CONTINUOUS
10
1.532620905511811
20
-0.803506968503937
11
1.5292462992125984
21
-0.8018196850393701
0
LINE
8
B.Fab
6
CONTINUOUS
10
1.5292462992125984
20
-0.8018196850393701
11
1.5275590157480314
21
-0.7984450787401575
0
LINE
8
B.Fab
6
CONTINUOUS
10
1.5275590157480314
20
-0.7984450787401575
11
1.5275590157480314
21
-0.7680738976377952
0
LINE
8
B.Fab
6
CONTINUOUS
10
1.5613048425196849
20
-0.803506968503937
11
1.5613048425196849
21
-0.7680738976377952
0
LINE
8
B.Fab
6
CONTINUOUS
10
1.5613048425196849
20
-0.8018196850393701
11
1.5579302362204723
21
-0.803506968503937
0
LINE
8
B.Fab
6
CONTINUOUS
10
1.5579302362204723
20
-0.803506968503937
11
1.5511811023622046
21
-0.803506968503937
0
LINE
8
B.Fab
6
CONTINUOUS
10
1.5511811023622046
20
-0.803506968503937
11
1.547806496062992
21
-0.8018196850393701
0
LINE
8
B.Fab
6
CONTINUOUS
10
1.547806496062992
20
-0.8018196850393701
11
1.5461192125984251
21
-0.8001323622047244
0
LINE
8
B.Fab
6
CONTINUOUS
10
1.5461192125984251
20
-0.8001323622047244
11
1.5444319291338582
21
-0.7967577952755905
0
LINE
8
B.Fab
6
CONTINUOUS
10
1.5444319291338582
20
-0.7967577952755905
11
1.5444319291338582
21
-0.7866340551181102
0
LINE
8
B.Fab
6
CONTINUOUS
10
1.5444319291338582
20
-0.7866340551181102
11
1.5461192125984251
21
-0.7832594881889764
0
LINE
8
B.Fab
6
CONTINUOUS
10
1.5461192125984251
20
-0.7832594881889764
11
1.547806496062992
21
-0.7815722047244095
0
LINE
8
B.Fab
6
CONTINUOUS
10
1.547806496062992
20
-0.7815722047244095
11
1.5511811023622046
21
-0.7798849212598425
0
LINE
8
B.Fab
6
CONTINUOUS
10
1.5511811023622046
20
-0.7798849212598425
11
1.5579302362204723
21
-0.7798849212598425
0
LINE
8
B.Fab
6
CONTINUOUS
10
1.5579302362204723
20
-0.7798849212598425
11
1.5613048425196849
21
-0.7815722047244095
0
LINE
8
B.Fab
6
CONTINUOUS
10
1.5916760236220473
20
-0.8018196850393701
11
1.5883014566929134
21
-0.803506968503937
0
LINE
8
B.Fab
6
CONTINUOUS
10
1.5883014566929134
20
-0.803506968503937
11
1.5815523228346455
21
-0.803506968503937
0
LINE
8
B.Fab
6
CONTINUOUS
10
1.5815523228346455
20
-0.803506968503937
11
1.5781777165354329
21
-0.8018196850393701
0
LINE
8
B.Fab
6
CONTINUOUS
10
1.5781777165354329
20
-0.8018196850393701
11
1.576490433070866
21
-0.7984450787401575
0
LINE
8
B.Fab
6
CONTINUOUS
10
1.576490433070866
20
-0.7984450787401575
11
1.576490433070866
21
-0.7849467716535433
0
LINE
8
B.Fab
6
CONTINUOUS
10
1.576490433070866
20
-0.7849467716535433
11
1.5781777165354329
21
-0.7815722047244095
0
LINE
8
B.Fab
6
CONTINUOUS
10
1.5781777165354329
20
-0.7815722047244095
11
1.5815523228346455
21
-0.7798849212598425
0
LINE
8
B.Fab
6
CONTINUOUS
10
1.5815523228346455
20
-0.7798849212598425
11
1.5883014566929134
21
-0.7798849212598425
0
LINE
8
B.Fab
6
CONTINUOUS
10
1.5883014566929134
20
-0.7798849212598425
11
1.5916760236220473
21
-0.7815722047244095
0
LINE
8
B.Fab
6
CONTINUOUS
10
1.5916760236220473
20
-0.7815722047244095
11
1.593363346456693
21
-0.7849467716535433
0
LINE
8
B.Fab
6
CONTINUOUS
10
1.593363346456693
20
-0.7849467716535433
11
1.593363346456693
21
-0.7883213385826772
0
LINE
8
B.Fab
6
CONTINUOUS
10
1.593363346456693
20
-0.7883213385826772
11
1.576490433070866
21
-0.7916959448818898
0
LINE
8
B.Fab
6
CONTINUOUS
10
1.608548937007874
20
-0.803506968503937
11
1.608548937007874
21
-0.7798849212598425
0
LINE
8
B.Fab
6
CONTINUOUS
10
1.608548937007874
20
-0.7866340551181102
11
1.610236220472441
21
-0.7832594881889764
0
LINE
8
B.Fab
6
CONTINUOUS
10
1.610236220472441
20
-0.7832594881889764
11
1.6119235433070866
21
-0.7815722047244095
0
LINE
8
B.Fab
6
CONTINUOUS
10
1.6119235433070866
20
-0.7815722047244095
11
1.6152981102362205
21
-0.7798849212598425
0
LINE
8
B.Fab
6
CONTINUOUS
10
1.6152981102362205
20
-0.7798849212598425
11
1.6186726771653543
21
-0.7798849212598425
0
LINE
8
B.Fab
6
CONTINUOUS
10
1.6726659448818897
20
-0.803506968503937
11
1.6726659448818897
21
-0.7849467716535433
0
LINE
8
B.Fab
6
CONTINUOUS
10
1.6726659448818897
20
-0.7849467716535433
11
1.670978622047244
21
-0.7815722047244095
0
LINE
8
B.Fab
6
CONTINUOUS
10
1.670978622047244
20
-0.7815722047244095
11
1.6676040551181102
21
-0.7798849212598425
0
LINE
8
B.Fab
6
CONTINUOUS
10
1.6676040551181102
20
-0.7798849212598425
11
1.6608549212598425
21
-0.7798849212598425
0
LINE
8
B.Fab
6
CONTINUOUS
10
1.6608549212598425
20
-0.7798849212598425
11
1.6574803149606299
21
-0.7815722047244095
0
LINE
8
B.Fab
6
CONTINUOUS
10
1.6726659448818897
20
-0.8018196850393701
11
1.6692913385826771
21
-0.803506968503937
0
LINE
8
B.Fab
6
CONTINUOUS
10
1.6692913385826771
20
-0.803506968503937
11
1.6608549212598425
21
-0.803506968503937
0
LINE
8
B.Fab
6
CONTINUOUS
10
1.6608549212598425
20
-0.803506968503937
11
1.6574803149606299
21
-0.8018196850393701
0
LINE
8
B.Fab
6
CONTINUOUS
10
1.6574803149606299
20
-0.8018196850393701
11
1.6557930314960629
21
-0.7984450787401575
0
LINE
8
B.Fab
6
CONTINUOUS
10
1.6557930314960629
20
-0.7984450787401575
11
1.6557930314960629
21
-0.7950705118110236
0
LINE
8
B.Fab
6
CONTINUOUS
10
1.6557930314960629
20
-0.7950705118110236
11
1.6574803149606299
21
-0.7916959448818898
0
LINE
8
B.Fab
6
CONTINUOUS
10
1.6574803149606299
20
-0.7916959448818898
11
1.6608549212598425
21
-0.7900086614173228
0
LINE
8
B.Fab
6
CONTINUOUS
10
1.6608549212598425
20
-0.7900086614173228
11
1.6692913385826771
21
-0.7900086614173228
0
LINE
8
B.Fab
6
CONTINUOUS
10
1.6692913385826771
20
-0.7900086614173228
11
1.6726659448818897
21
-0.7883213385826772
0
LINE
8
B.Fab
6
CONTINUOUS
10
1.6946007086614172
20
-0.803506968503937
11
1.6912261023622046
21
-0.8018196850393701
0
LINE
8
B.Fab
6
CONTINUOUS
10
1.6912261023622046
20
-0.8018196850393701
11
1.6895388188976377
21
-0.7984450787401575
0
LINE
8
B.Fab
6
CONTINUOUS
10
1.6895388188976377
20
-0.7984450787401575
11
1.6895388188976377
21
-0.7680738976377952
0
LINE
8
B.Fab
6
CONTINUOUS
10
1.7030371653543306
20
-0.7798849212598425
11
1.716535472440945
21
-0.7798849212598425
0
LINE
8
B.Fab
6
CONTINUOUS
10
1.7080990157480314
20
-0.7680738976377952
11
1.7080990157480314
21
-0.7984450787401575
0
LINE
8
B.Fab
6
CONTINUOUS
10
1.7080990157480314
20
-0.7984450787401575
11
1.7097862992125983
21
-0.8018196850393701
0
LINE
8
B.Fab
6
CONTINUOUS
10
1.7097862992125983
20
-0.8018196850393701
11
1.7131609055118109
21
-0.803506968503937
0
LINE
8
B.Fab
6
CONTINUOUS
10
1.7131609055118109
20
-0.803506968503937
11
1.716535472440945
21
-0.803506968503937
0
LINE
8
B.Fab
6
CONTINUOUS
10
1.7418448031496063
20
-0.8018196850393701
11
1.7384702362204725
21
-0.803506968503937
0
LINE
8
B.Fab
6
CONTINUOUS
10
1.7384702362204725
20
-0.803506968503937
11
1.7317211023622048
21
-0.803506968503937
0
LINE
8
B.Fab
6
CONTINUOUS
10
1.7317211023622048
20
-0.803506968503937
11
1.7283464960629922
21
-0.8018196850393701
0
LINE
8
B.Fab
6
CONTINUOUS
10
1.7283464960629922
20
-0.8018196850393701
11
1.7266592125984253
21
-0.7984450787401575
0
LINE
8
B.Fab
6
CONTINUOUS
10
1.7266592125984253
20
-0.7984450787401575
11
1.7266592125984253
21
-0.7849467716535433
0
LINE
8
B.Fab
6
CONTINUOUS
10
1.7266592125984253
20
-0.7849467716535433
11
1.7283464960629922
21
-0.7815722047244095
0
LINE
8
B.Fab
6
CONTINUOUS
10
1.7283464960629922
20
-0.7815722047244095
11
1.7317211023622048
21
-0.7798849212598425
0
LINE
8
B.Fab
6
CONTINUOUS
10
1.7317211023622048
20
-0.7798849212598425
11
1.7384702362204725
21
-0.7798849212598425
0
LINE
8
B.Fab
6
CONTINUOUS
10
1.7384702362204725
20
-0.7798849212598425
11
1.7418448031496063
21
-0.7815722047244095
0
LINE
8
B.Fab
6
CONTINUOUS
10
1.7418448031496063
20
-0.7815722047244095
11
1.743532125984252
21
-0.7849467716535433
0
LINE
8
B.Fab
6
CONTINUOUS
10
1.743532125984252
20
-0.7849467716535433
11
1.743532125984252
21
-0.7883213385826772
0
LINE
8
B.Fab
6
CONTINUOUS
10
1.743532125984252
20
-0.7883213385826772
11
1.7266592125984253
21
-0.7916959448818898
0
LINE
8
B.Fab
6
CONTINUOUS
10
1.7587177165354331
20
-0.803506968503937
11
1.7587177165354331
21
-0.7798849212598425
0
LINE
8
B.Fab
6
CONTINUOUS
10
1.7587177165354331
20
-0.7866340551181102
11
1.760405
21
-0.7832594881889764
0
LINE
8
B.Fab
6
CONTINUOUS
10
1.760405
20
-0.7832594881889764
11
1.7620923228346457
21
-0.7815722047244095
0
LINE
8
B.Fab
6
CONTINUOUS
10
1.7620923228346457
20
-0.7815722047244095
11
1.7654668897637795
21
-0.7798849212598425
0
LINE
8
B.Fab
6
CONTINUOUS
10
1.7654668897637795
20
-0.7798849212598425
11
1.7688414566929134
21
-0.7798849212598425
0
LINE
8
B.Fab
6
CONTINUOUS
10
1.7806524803149606
20
-0.7798849212598425
11
1.7806524803149606
21
-0.803506968503937
0
LINE
8
B.Fab
6
CONTINUOUS
10
1.7806524803149606
20
-0.7832594881889764
11
1.7823397637795275
21
-0.7815722047244095
0
LINE
8
B.Fab
6
CONTINUOUS
10
1.7823397637795275
20
-0.7815722047244095
11
1.7857143700787401
21
-0.7798849212598425
0
LINE
8
B.Fab
6
CONTINUOUS
10
1.7857143700787401
20
-0.7798849212598425
11
1.7907762204724409
21
-0.7798849212598425
0
LINE
8
B.Fab
6
CONTINUOUS
10
1.7907762204724409
20
-0.7798849212598425
11
1.7941507874015747
21
-0.7815722047244095
0
LINE
8
B.Fab
6
CONTINUOUS
10
1.7941507874015747
20
-0.7815722047244095
11
1.7958381102362204
21
-0.7849467716535433
0
LINE
8
B.Fab
6
CONTINUOUS
10
1.7958381102362204
20
-0.7849467716535433
11
1.7958381102362204
21
-0.803506968503937
0
LINE
8
B.Fab
6
CONTINUOUS
10
1.8278966141732282
20
-0.803506968503937
11
1.8278966141732282
21
-0.7849467716535433
0
LINE
8
B.Fab
6
CONTINUOUS
10
1.8278966141732282
20
-0.7849467716535433
11
1.8262092913385826
21
-0.7815722047244095
0
LINE
8
B.Fab
6
CONTINUOUS
10
1.8262092913385826
20
-0.7815722047244095
11
1.8228347244094487
21
-0.7798849212598425
0
LINE
8
B.Fab
6
CONTINUOUS
10
1.8228347244094487
20
-0.7798849212598425
11
1.816085590551181
21
-0.7798849212598425
0
LINE
8
B.Fab
6
CONTINUOUS
10
1.816085590551181
20
-0.7798849212598425
11
1.8127109842519684
21
-0.7815722047244095
0
LINE
8
B.Fab
6
CONTINUOUS
10
1.8278966141732282
20
-0.8018196850393701
11
1.8245220078740156
21
-0.803506968503937
0
LINE
8
B.Fab
6
CONTINUOUS
10
1.8245220078740156
20
-0.803506968503937
11
1.816085590551181
21
-0.803506968503937
0
LINE
8
B.Fab
6
CONTINUOUS
10
1.816085590551181
20
-0.803506968503937
11
1.8127109842519684
21
-0.8018196850393701
0
LINE
8
B.Fab
6
CONTINUOUS
10
1.8127109842519684
20
-0.8018196850393701
11
1.8110237007874015
21
-0.7984450787401575
0
LINE
8
B.Fab
6
CONTINUOUS
10
1.8110237007874015
20
-0.7984450787401575
11
1.8110237007874015
21
-0.7950705118110236
0
LINE
8
B.Fab
6
CONTINUOUS
10
1.8110237007874015
20
-0.7950705118110236
11
1.8127109842519684
21
-0.7916959448818898
0
LINE
8
B.Fab
6
CONTINUOUS
10
1.8127109842519684
20
-0.7916959448818898
11
1.816085590551181
21
-0.7900086614173228
0
LINE
8
B.Fab
6
CONTINUOUS
10
1.816085590551181
20
-0.7900086614173228
11
1.8245220078740156
21
-0.7900086614173228
0
LINE
8
B.Fab
6
CONTINUOUS
10
1.8245220078740156
20
-0.7900086614173228
11
1.8278966141732282
21
-0.7883213385826772
0
LINE
8
B.Fab
6
CONTINUOUS
10
1.8397076377952755
20
-0.7798849212598425
11
1.8532059448818896
21
-0.7798849212598425
0
LINE
8
B.Fab
6
CONTINUOUS
10
1.8447694881889762
20
-0.7680738976377952
11
1.8447694881889762
21
-0.7984450787401575
0
LINE
8
B.Fab
6
CONTINUOUS
10
1.8447694881889762
20
-0.7984450787401575
11
1.8464567716535432
21
-0.8018196850393701
0
LINE
8
B.Fab
6
CONTINUOUS
10
1.8464567716535432
20
-0.8018196850393701
11
1.8498313779527558
21
-0.803506968503937
0
LINE
8
B.Fab
6
CONTINUOUS
10
1.8498313779527558
20
-0.803506968503937
11
1.8532059448818896
21
-0.803506968503937
0
LINE
8
B.Fab
6
CONTINUOUS
10
1.8785152755905512
20
-0.8018196850393701
11
1.8751407086614174
21
-0.803506968503937
0
LINE
8
B.Fab
6
CONTINUOUS
10
1.8751407086614174
20
-0.803506968503937
11
1.8683915748031497
21
-0.803506968503937
0
LINE
8
B.Fab
6
CONTINUOUS
10
1.8683915748031497
20
-0.803506968503937
11
1.8650169685039371
21
-0.8018196850393701
0
LINE
8
B.Fab
6
CONTINUOUS
10
1.8650169685039371
20
-0.8018196850393701
11
1.8633296850393701
21
-0.7984450787401575
0
LINE
8
B.Fab
6
CONTINUOUS
10
1.8633296850393701
20
-0.7984450787401575
11
1.8633296850393701
21
-0.7849467716535433
0
LINE
8
B.Fab
6
CONTINUOUS
10
1.8633296850393701
20
-0.7849467716535433
11
1.8650169685039371
21
-0.7815722047244095
0
LINE
8
B.Fab
6
CONTINUOUS
10
1.8650169685039371
20
-0.7815722047244095
11
1.8683915748031497
21
-0.7798849212598425
0
LINE
8
B.Fab
6
CONTINUOUS
10
1.8683915748031497
20
-0.7798849212598425
11
1.8751407086614174
21
-0.7798849212598425
0
LINE
8
B.Fab
6
CONTINUOUS
10
1.8751407086614174
20
-0.7798849212598425
11
1.8785152755905512
21
-0.7815722047244095
0
LINE
8
B.Fab
6
CONTINUOUS
10
1.8785152755905512
20
-0.7815722047244095
11
1.8802025984251969
21
-0.7849467716535433
0
LINE
8
B.Fab
6
CONTINUOUS
10
1.8802025984251969
20
-0.7849467716535433
11
1.8802025984251969
21
-0.7883213385826772
0
LINE
8
B.Fab
6
CONTINUOUS
10
1.8802025984251969
20
-0.7883213385826772
11
1.8633296850393701
21
-0.7916959448818898
0
LINE
8
B.Fab
6
CONTINUOUS
10
1.8970754724409449
20
-0.8018196850393701
11
1.8970754724409449
21
-0.803506968503937
0
LINE
8
B.Fab
6
CONTINUOUS
10
1.8970754724409449
20
-0.803506968503937
11
1.895388188976378
21
-0.8068815354330708
0
LINE
8
B.Fab
6
CONTINUOUS
10
1.895388188976378
20
-0.8068815354330708
11
1.893700905511811
21
-0.8085688188976378
0
LINE
8
B.Fab
6
CONTINUOUS
10
1.895388188976378
20
-0.7815722047244095
11
1.8970754724409449
21
-0.7832594881889764
0
LINE
8
B.Fab
6
CONTINUOUS
10
1.8970754724409449
20
-0.7832594881889764
11
1.895388188976378
21
-0.7849467716535433
0
LINE
8
B.Fab
6
CONTINUOUS
10
1.895388188976378
20
-0.7849467716535433
11
1.893700905511811
21
-0.7832594881889764
0
LINE
8
B.Fab
6
CONTINUOUS
10
1.893700905511811
20
-0.7832594881889764
11
1.895388188976378
21
-0.7815722047244095
0
LINE
8
B.Fab
6
CONTINUOUS
10
1.895388188976378
20
-0.7815722047244095
11
1.895388188976378
21
-0.7849467716535433
0
LINE
8
B.Fab
6
CONTINUOUS
10
1.9392576771653542
20
-0.803506968503937
11
1.9392576771653542
21
-0.7680738976377952
0
LINE
8
B.Fab
6
CONTINUOUS
10
1.9392576771653542
20
-0.7680738976377952
11
1.9476941338582676
21
-0.7680738976377952
0
LINE
8
B.Fab
6
CONTINUOUS
10
1.9476941338582676
20
-0.7680738976377952
11
1.9527559842519684
21
-0.7697611811023621
0
LINE
8
B.Fab
6
CONTINUOUS
10
1.9527559842519684
20
-0.7697611811023621
11
1.956130590551181
21
-0.7731357480314961
0
LINE
8
B.Fab
6
CONTINUOUS
10
1.956130590551181
20
-0.7731357480314961
11
1.9578178740157479
21
-0.7765103149606299
0
LINE
8
B.Fab
6
CONTINUOUS
10
1.9578178740157479
20
-0.7765103149606299
11
1.9595051574803148
21
-0.7832594881889764
0
LINE
8
B.Fab
6
CONTINUOUS
10
1.9595051574803148
20
-0.7832594881889764
11
1.9595051574803148
21
-0.7883213385826772
0
LINE
8
B.Fab
6
CONTINUOUS
10
1.9595051574803148
20
-0.7883213385826772
11
1.9578178740157479
21
-0.7950705118110236
0
LINE
8
B.Fab
6
CONTINUOUS
10
1.9578178740157479
20
-0.7950705118110236
11
1.956130590551181
21
-0.7984450787401575
0
LINE
8
B.Fab
6
CONTINUOUS
10
1.956130590551181
20
-0.7984450787401575
11
1.9527559842519684
21
-0.8018196850393701
0
LINE
8
B.Fab
6
CONTINUOUS
10
1.9527559842519684
20
-0.8018196850393701
11
1.9476941338582676
21
-0.803506968503937
0
LINE
8
B.Fab
6
CONTINUOUS
10
1.9476941338582676
20
-0.803506968503937
11
1.9392576771653542
21
-0.803506968503937
0
LINE
8
B.Fab
6
CONTINUOUS
10
1.9746907480314959
20
-0.803506968503937
11
1.9746907480314959
21
-0.7680738976377952
0
LINE
8
B.Fab
6
CONTINUOUS
10
1.9746907480314959
20
-0.7680738976377952
11
1.9949382283464567
21
-0.803506968503937
0
LINE
8
B.Fab
6
CONTINUOUS
10
1.9949382283464567
20
-0.803506968503937
11
1.9949382283464567
21
-0.7680738976377952
0
LINE
8
B.Fab
6
CONTINUOUS
10
2.0118111023622047
20
-0.803506968503937
11
2.0118111023622047
21
-0.7680738976377952
0
LINE
8
B.Fab
6
CONTINUOUS
10
2.0118111023622047
20
-0.7680738976377952
11
2.0253094094488189
21
-0.7680738976377952
0
LINE
8
B.Fab
6
CONTINUOUS
10
2.0253094094488189
20
-0.7680738976377952
11
2.0286840157480315
21
-0.7697611811023621
0
LINE
8
B.Fab
6
CONTINUOUS
10
2.0286840157480315
20
-0.7697611811023621
11
2.0303712992125984
21
-0.7714484645669292
0
LINE
8
B.Fab
6
CONTINUOUS
10
2.0303712992125984
20
-0.7714484645669292
11
2.0320585826771653
21
-0.774823031496063
0
LINE
8
B.Fab
6
CONTINUOUS
10
2.0320585826771653
20
-0.774823031496063
11
2.0320585826771653
21
-0.7798849212598425
0
LINE
8
B.Fab
6
CONTINUOUS
10
2.0320585826771653
20
-0.7798849212598425
11
2.0303712992125984
21
-0.7832594881889764
0
LINE
8
B.Fab
6
CONTINUOUS
10
2.0303712992125984
20
-0.7832594881889764
11
2.0286840157480315
21
-0.7849467716535433
0
LINE
8
B.Fab
6
CONTINUOUS
10
2.0286840157480315
20
-0.7849467716535433
11
2.0253094094488189
21
-0.7866340551181102
0
LINE
8
B.Fab
6
CONTINUOUS
10
2.0253094094488189
20
-0.7866340551181102
11
2.0118111023622047
21
-0.7866340551181102
0
LINE
8
B.Fab
6
CONTINUOUS
10
2.0691789370078739
20
-0.7798849212598425
11
2.0826772440944881
21
-0.7798849212598425
0
LINE
8
B.Fab
6
CONTINUOUS
10
2.0742407874015747
20
-0.803506968503937
11
2.0742407874015747
21
-0.7731357480314961
0
LINE
8
B.Fab
6
CONTINUOUS
10
2.0742407874015747
20
-0.7731357480314961
11
2.0759280708661416
21
-0.7697611811023621
0
LINE
8
B.Fab
6
CONTINUOUS
10
2.0759280708661416
20
-0.7697611811023621
11
2.0793026771653542
21
-0.7680738976377952
0
LINE
8
B.Fab
6
CONTINUOUS
10
2.0793026771653542
20
-0.7680738976377952
11
2.0826772440944881
21
-0.7680738976377952
0
LINE
8
B.Fab
6
CONTINUOUS
10
2.0995501574803148
20
-0.803506968503937
11
2.0961755511811022
21
-0.8018196850393701
0
LINE
8
B.Fab
6
CONTINUOUS
10
2.0961755511811022
20
-0.8018196850393701
11
2.0944882677165353
21
-0.8001323622047244
0
LINE
8
B.Fab
6
CONTINUOUS
10
2.0944882677165353
20
-0.8001323622047244
11
2.0928009842519684
21
-0.7967577952755905
0
LINE
8
B.Fab
6
CONTINUOUS
10
2.0928009842519684
20
-0.7967577952755905
11
2.0928009842519684
21
-0.7866340551181102
0
LINE
8
B.Fab
6
CONTINUOUS
10
2.0928009842519684
20
-0.7866340551181102
11
2.0944882677165353
21
-0.7832594881889764
0
LINE
8
B.Fab
6
CONTINUOUS
10
2.0944882677165353
20
-0.7832594881889764
11
2.0961755511811022
21
-0.7815722047244095
0
LINE
8
B.Fab
6
CONTINUOUS
10
2.0961755511811022
20
-0.7815722047244095
11
2.0995501574803148
21
-0.7798849212598425
0
LINE
8
B.Fab
6
CONTINUOUS
10
2.0995501574803148
20
-0.7798849212598425
11
2.1046120078740156
21
-0.7798849212598425
0
LINE
8
B.Fab
6
CONTINUOUS
10
2.1046120078740156
20
-0.7798849212598425
11
2.1079865748031494
21
-0.7815722047244095
0
LINE
8
B.Fab
6
CONTINUOUS
10
2.1079865748031494
20
-0.7815722047244095
11
2.1096738976377951
21
-0.7832594881889764
0
LINE
8
B.Fab
6
CONTINUOUS
10
2.1096738976377951
20
-0.7832594881889764
11
2.111361181102362
21
-0.7866340551181102
0
LINE
8
B.Fab
6
CONTINUOUS
10
2.111361181102362
20
-0.7866340551181102
11
2.111361181102362
21
-0.7967577952755905
0
LINE
8
B.Fab
6
CONTINUOUS
10
2.111361181102362
20
-0.7967577952755905
11
2.1096738976377951
21
-0.8001323622047244
0
LINE
8
B.Fab
6
CONTINUOUS
10
2.1096738976377951
20
-0.8001323622047244
11
2.1079865748031494
21
-0.8018196850393701
0
LINE
8
B.Fab
6
CONTINUOUS
10
2.1079865748031494
20
-0.8018196850393701
11
2.1046120078740156
21
-0.803506968503937
0
LINE
8
B.Fab
6
CONTINUOUS
10
2.1046120078740156
20
-0.803506968503937
11
2.0995501574803148
21
-0.803506968503937
0
LINE
8
B.Fab
6
CONTINUOUS
10
2.1265467716535431
20
-0.803506968503937
11
2.1265467716535431
21
-0.7798849212598425
0
LINE
8
B.Fab
6
CONTINUOUS
10
2.1265467716535431
20
-0.7866340551181102
11
2.12823405511811
21
-0.7832594881889764
0
LINE
8
B.Fab
6
CONTINUOUS
10
2.12823405511811
20
-0.7832594881889764
11
2.1299213779527557
21
-0.7815722047244095
0
LINE
8
B.Fab
6
CONTINUOUS
10
2.1299213779527557
20
-0.7815722047244095
11
2.1332959448818896
21
-0.7798849212598425
0
LINE
8
B.Fab
6
CONTINUOUS
10
2.1332959448818896
20
-0.7798849212598425
11
2.1366705118110234
21
-0.7798849212598425
0
LINE
8
B.Fab
6
CONTINUOUS
10
2.1737908661417324
20
-0.8018196850393701
11
2.1771654330708663
21
-0.803506968503937
0
LINE
8
B.Fab
6
CONTINUOUS
10
2.1771654330708663
20
-0.803506968503937
11
2.1839146062992127
21
-0.803506968503937
0
LINE
8
B.Fab
6
CONTINUOUS
10
2.1839146062992127
20
-0.803506968503937
11
2.1872891732283466
21
-0.8018196850393701
0
LINE
8
B.Fab
6
CONTINUOUS
10
2.1872891732283466
20
-0.8018196850393701
11
2.1889764566929135
21
-0.7984450787401575
0
LINE
8
B.Fab
6
CONTINUOUS
10
2.1889764566929135
20
-0.7984450787401575
11
2.1889764566929135
21
-0.7967577952755905
0
LINE
8
B.Fab
6
CONTINUOUS
10
2.1889764566929135
20
-0.7967577952755905
11
2.1872891732283466
21
-0.7933832283464567
0
LINE
8
B.Fab
6
CONTINUOUS
10
2.1872891732283466
20
-0.7933832283464567
11
2.1839146062992127
21
-0.7916959448818898
0
LINE
8
B.Fab
6
CONTINUOUS
10
2.1839146062992127
20
-0.7916959448818898
11
2.178852755905512
21
-0.7916959448818898
0
LINE
8
B.Fab
6
CONTINUOUS
10
2.178852755905512
20
-0.7916959448818898
11
2.1754781496062994
21
-0.7900086614173228
0
LINE
8
B.Fab
6
CONTINUOUS
10
2.1754781496062994
20
-0.7900086614173228
11
2.1737908661417324
21
-0.7866340551181102
0
LINE
8
B.Fab
6
CONTINUOUS
10
2.1737908661417324
20
-0.7866340551181102
11
2.1737908661417324
21
-0.7849467716535433
0
LINE
8
B.Fab
6
CONTINUOUS
10
2.1737908661417324
20
-0.7849467716535433
11
2.1754781496062994
21
-0.7815722047244095
0
LINE
8
B.Fab
6
CONTINUOUS
10
2.1754781496062994
20
-0.7815722047244095
11
2.178852755905512
21
-0.7798849212598425
0
LINE
8
B.Fab
6
CONTINUOUS
10
2.178852755905512
20
-0.7798849212598425
11
2.1839146062992127
21
-0.7798849212598425
0
LINE
8
B.Fab
6
CONTINUOUS
10
2.1839146062992127
20
-0.7798849212598425
11
2.1872891732283466
21
-0.7815722047244095
0
LINE
8
B.Fab
6
CONTINUOUS
10
2.2092239370078741
20
-0.803506968503937
11
2.2058493307086615
21
-0.8018196850393701
0
LINE
8
B.Fab
6
CONTINUOUS
10
2.2058493307086615
20
-0.8018196850393701
11
2.2041620472440946
21
-0.7984450787401575
0
LINE
8
B.Fab
6
CONTINUOUS
10
2.2041620472440946
20
-0.7984450787401575
11
2.2041620472440946
21
-0.7680738976377952
0
LINE
8
B.Fab
6
CONTINUOUS
10
2.2227222440944883
20
-0.803506968503937
11
2.2227222440944883
21
-0.7798849212598425
0
LINE
8
B.Fab
6
CONTINUOUS
10
2.2227222440944883
20
-0.7680738976377952
11
2.2210349606299213
21
-0.7697611811023621
0
LINE
8
B.Fab
6
CONTINUOUS
10
2.2210349606299213
20
-0.7697611811023621
11
2.2227222440944883
21
-0.7714484645669292
0
LINE
8
B.Fab
6
CONTINUOUS
10
2.2227222440944883
20
-0.7714484645669292
11
2.2244095275590552
21
-0.7697611811023621
0
LINE
8
B.Fab
6
CONTINUOUS
10
2.2244095275590552
20
-0.7697611811023621
11
2.2227222440944883
21
-0.7680738976377952
0
LINE
8
B.Fab
6
CONTINUOUS
10
2.2227222440944883
20
-0.7680738976377952
11
2.2227222440944883
21
-0.7714484645669292
0
LINE
8
B.Fab
6
CONTINUOUS
10
2.2395951181102363
20
-0.803506968503937
11
2.2395951181102363
21
-0.7798849212598425
0
LINE
8
B.Fab
6
CONTINUOUS
10
2.2395951181102363
20
-0.7832594881889764
11
2.2412824015748032
21
-0.7815722047244095
0
LINE
8
B.Fab
6
CONTINUOUS
10
2.2412824015748032
20
-0.7815722047244095
11
2.2446570078740158
21
-0.7798849212598425
0
LINE
8
B.Fab
6
CONTINUOUS
10
2.2446570078740158
20
-0.7798849212598425
11
2.2497188582677166
21
-0.7798849212598425
0
LINE
8
B.Fab
6
CONTINUOUS
10
2.2497188582677166
20
-0.7798849212598425
11
2.2530934251968504
21
-0.7815722047244095
0
LINE
8
B.Fab
6
CONTINUOUS
10
2.2530934251968504
20
-0.7815722047244095
11
2.2547807480314961
21
-0.7849467716535433
0
LINE
8
B.Fab
6
CONTINUOUS
10
2.2547807480314961
20
-0.7849467716535433
11
2.2547807480314961
21
-0.803506968503937
0
LINE
8
B.Fab
6
CONTINUOUS
10
2.2547807480314961
20
-0.7849467716535433
11
2.256468031496063
21
-0.7815722047244095
0
LINE
8
B.Fab
6
CONTINUOUS
10
2.256468031496063
20
-0.7815722047244095
11
2.2598425984251969
21
-0.7798849212598425
0
LINE
8
B.Fab
6
CONTINUOUS
10
2.2598425984251969
20
-0.7798849212598425
11
2.2649044488188976
21
-0.7798849212598425
0
LINE
8
B.Fab
6
CONTINUOUS
10
2.2649044488188976
20
-0.7798849212598425
11
2.2682790551181102
21
-0.7815722047244095
0
LINE
8
B.Fab
6
CONTINUOUS
10
2.2682790551181102
20
-0.7815722047244095
11
2.2699663385826772
21
-0.7849467716535433
0
LINE
8
B.Fab
6
CONTINUOUS
10
2.2699663385826772
20
-0.7849467716535433
11
2.2699663385826772
21
-0.803506968503937
0
LINE
8
B.Fab
6
CONTINUOUS
10
2.3307087401574802
20
-0.803506968503937
11
2.3138358267716534
21
-0.803506968503937
0
LINE
8
B.Fab
6
CONTINUOUS
10
2.3138358267716534
20
-0.803506968503937
11
2.3138358267716534
21
-0.7680738976377952
0
LINE
8
B.Fab
6
CONTINUOUS
10
2.3425197244094487
20
-0.803506968503937
11
2.3425197244094487
21
-0.7798849212598425
0
LINE
8
B.Fab
6
CONTINUOUS
10
2.3425197244094487
20
-0.7680738976377952
11
2.3408324409448817
21
-0.7697611811023621
0
LINE
8
B.Fab
6
CONTINUOUS
10
2.3408324409448817
20
-0.7697611811023621
11
2.3425197244094487
21
-0.7714484645669292
0
LINE
8
B.Fab
6
CONTINUOUS
10
2.3425197244094487
20
-0.7714484645669292
11
2.3442070078740156
21
-0.7697611811023621
0
LINE
8
B.Fab
6
CONTINUOUS
10
2.3442070078740156
20
-0.7697611811023621
11
2.3425197244094487
21
-0.7680738976377952
0
LINE
8
B.Fab
6
CONTINUOUS
10
2.3425197244094487
20
-0.7680738976377952
11
2.3425197244094487
21
-0.7714484645669292
0
LINE
8
B.Fab
6
CONTINUOUS
10
2.3593925984251967
20
-0.803506968503937
11
2.3593925984251967
21
-0.7680738976377952
0
LINE
8
B.Fab
6
CONTINUOUS
10
2.3593925984251967
20
-0.7680738976377952
11
2.3728909055118108
21
-0.7680738976377952
0
LINE
8
B.Fab
6
CONTINUOUS
10
2.3728909055118108
20
-0.7680738976377952
11
2.3762655118110234
21
-0.7697611811023621
0
LINE
8
B.Fab
6
CONTINUOUS
10
2.3762655118110234
20
-0.7697611811023621
11
2.3779527952755903
21
-0.7714484645669292
0
LINE
8
B.Fab
6
CONTINUOUS
10
2.3779527952755903
20
-0.7714484645669292
11
2.3796400787401573
21
-0.774823031496063
0
LINE
8
B.Fab
6
CONTINUOUS
10
2.3796400787401573
20
-0.774823031496063
11
2.3796400787401573
21
-0.7798849212598425
0
LINE
8
B.Fab
6
CONTINUOUS
10
2.3796400787401573
20
-0.7798849212598425
11
2.3779527952755903
21
-0.7832594881889764
0
LINE
8
B.Fab
6
CONTINUOUS
10
2.3779527952755903
20
-0.7832594881889764
11
2.3762655118110234
21
-0.7849467716535433
0
LINE
8
B.Fab
6
CONTINUOUS
10
2.3762655118110234
20
-0.7849467716535433
11
2.3728909055118108
21
-0.7866340551181102
0
LINE
8
B.Fab
6
CONTINUOUS
10
2.3728909055118108
20
-0.7866340551181102
11
2.3593925984251967
21
-0.7866340551181102
0
LINE
8
B.Fab
6
CONTINUOUS
10
2.3998875590551179
20
-0.803506968503937
11
2.3965129527559053
21
-0.8018196850393701
0
LINE
8
B.Fab
6
CONTINUOUS
10
2.3965129527559053
20
-0.8018196850393701
11
2.3948256692913383
21
-0.8001323622047244
0
LINE
8
B.Fab
6
CONTINUOUS
10
2.3948256692913383
20
-0.8001323622047244
11
2.3931383858267714
21
-0.7967577952755905
0
LINE
8
B.Fab
6
CONTINUOUS
10
2.3931383858267714
20
-0.7967577952755905
11
2.3931383858267714
21
-0.7866340551181102
0
LINE
8
B.Fab
6
CONTINUOUS
10
2.3931383858267714
20
-0.7866340551181102
11
2.3948256692913383
21
-0.7832594881889764
0
LINE
8
B.Fab
6
CONTINUOUS
10
2.3948256692913383
20
-0.7832594881889764
11
2.3965129527559053
21
-0.7815722047244095
0
LINE
8
B.Fab
6
CONTINUOUS
10
2.3965129527559053
20
-0.7815722047244095
11
2.3998875590551179
21
-0.7798849212598425
0
LINE
8
B.Fab
6
CONTINUOUS
10
2.3998875590551179
20
-0.7798849212598425
11
2.4049494094488186
21
-0.7798849212598425
0
LINE
8
B.Fab
6
CONTINUOUS
10
2.4049494094488186
20
-0.7798849212598425
11
2.4083239763779525
21
-0.7815722047244095
0
LINE
8
B.Fab
6
CONTINUOUS
10
2.4083239763779525
20
-0.7815722047244095
11
2.4100112992125982
21
-0.7832594881889764
0
LINE
8
B.Fab
6
CONTINUOUS
10
2.4100112992125982
20
-0.7832594881889764
11
2.4116985826771651
21
-0.7866340551181102
0
LINE
8
B.Fab
6
CONTINUOUS
10
2.4116985826771651
20
-0.7866340551181102
11
2.4116985826771651
21
-0.7967577952755905
0
LINE
8
B.Fab
6
CONTINUOUS
10
2.4116985826771651
20
-0.7967577952755905
11
2.4100112992125982
21
-0.8001323622047244
0
LINE
8
B.Fab
6
CONTINUOUS
10
2.4100112992125982
20
-0.8001323622047244
11
2.4083239763779525
21
-0.8018196850393701
0
LINE
8
B.Fab
6
CONTINUOUS
10
2.4083239763779525
20
-0.8018196850393701
11
2.4049494094488186
21
-0.803506968503937
0
LINE
8
B.Fab
6
CONTINUOUS
10
2.4049494094488186
20
-0.803506968503937
11
2.3998875590551179
21
-0.803506968503937
0
LINE
8
B.Fab
6
CONTINUOUS
10
2.4538807874015749
20
-0.803506968503937
11
2.4538807874015749
21
-0.7680738976377952
0
LINE
8
B.Fab
6
CONTINUOUS
10
2.4538807874015749
20
-0.7815722047244095
11
2.4572553937007875
21
-0.7798849212598425
0
LINE
8
B.Fab
6
CONTINUOUS
10
2.4572553937007875
20
-0.7798849212598425
11
2.4640045275590552
21
-0.7798849212598425
0
LINE
8
B.Fab
6
CONTINUOUS
10
2.4640045275590552
20
-0.7798849212598425
11
2.467379094488189
21
-0.7815722047244095
0
LINE
8
B.Fab
6
CONTINUOUS
10
2.467379094488189
20
-0.7815722047244095
11
2.4690664173228347
21
-0.7832594881889764
0
LINE
8
B.Fab
6
CONTINUOUS
10
2.4690664173228347
20
-0.7832594881889764
11
2.4707537007874016
21
-0.7866340551181102
0
LINE
8
B.Fab
6
CONTINUOUS
10
2.4707537007874016
20
-0.7866340551181102
11
2.4707537007874016
21
-0.7967577952755905
0
LINE
8
B.Fab
6
CONTINUOUS
10
2.4707537007874016
20
-0.7967577952755905
11
2.4690664173228347
21
-0.8001323622047244
0
LINE
8
B.Fab
6
CONTINUOUS
10
2.4690664173228347
20
-0.8001323622047244
11
2.467379094488189
21
-0.8018196850393701
0
LINE
8
B.Fab
6
CONTINUOUS
10
2.467379094488189
20
-0.8018196850393701
11
2.4640045275590552
21
-0.803506968503937
0
LINE
8
B.Fab
6
CONTINUOUS
10
2.4640045275590552
20
-0.803506968503937
11
2.4572553937007875
21
-0.803506968503937
0
LINE
8
B.Fab
6
CONTINUOUS
10
2.4572553937007875
20
-0.803506968503937
11
2.4538807874015749
21
-0.8018196850393701
0
LINE
8
B.Fab
6
CONTINUOUS
10
2.5011249212598425
20
-0.7798849212598425
11
2.5011249212598425
21
-0.803506968503937
0
LINE
8
B.Fab
6
CONTINUOUS
10
2.4859392913385827
20
-0.7798849212598425
11
2.4859392913385827
21
-0.7984450787401575
0
LINE
8
B.Fab
6
CONTINUOUS
10
2.4859392913385827
20
-0.7984450787401575
11
2.4876265748031496
21
-0.8018196850393701
0
LINE
8
B.Fab
6
CONTINUOUS
10
2.4876265748031496
20
-0.8018196850393701
11
2.4910011811023622
21
-0.803506968503937
0
LINE
8
B.Fab
6
CONTINUOUS
10
2.4910011811023622
20
-0.803506968503937
11
2.496063031496063
21
-0.803506968503937
0
LINE
8
B.Fab
6
CONTINUOUS
10
2.496063031496063
20
-0.803506968503937
11
2.4994375984251969
21
-0.8018196850393701
0
LINE
8
B.Fab
6
CONTINUOUS
10
2.4994375984251969
20
-0.8018196850393701
11
2.5011249212598425
21
-0.8001323622047244
0
LINE
8
B.Fab
6
CONTINUOUS
10
2.5179977952755905
20
-0.803506968503937
11
2.5179977952755905
21
-0.7798849212598425
0
LINE
8
B.Fab
6
CONTINUOUS
10
2.5179977952755905
20
-0.7680738976377952
11
2.5163105118110236
21
-0.7697611811023621
0
LINE
8
B.Fab
6
CONTINUOUS
10
2.5163105118110236
20
-0.7697611811023621
11
2.5179977952755905
21
-0.7714484645669292
0
LINE
8
B.Fab
6
CONTINUOUS
10
2.5179977952755905
20
-0.7714484645669292
11
2.5196850787401575
21
-0.7697611811023621
0
LINE
8
B.Fab
6
CONTINUOUS
10
2.5196850787401575
20
-0.7697611811023621
11
2.5179977952755905
21
-0.7680738976377952
0
LINE
8
B.Fab
6
CONTINUOUS
10
2.5179977952755905
20
-0.7680738976377952
11
2.5179977952755905
21
-0.7714484645669292
0
LINE
8
B.Fab
6
CONTINUOUS
10
2.5399325590551181
20
-0.803506968503937
11
2.5365579527559055
21
-0.8018196850393701
0
LINE
8
B.Fab
6
CONTINUOUS
10
2.5365579527559055
20
-0.8018196850393701
11
2.5348706692913385
21
-0.7984450787401575
0
LINE
8
B.Fab
6
CONTINUOUS
10
2.5348706692913385
20
-0.7984450787401575
11
2.5348706692913385
21
-0.7680738976377952
0
LINE
8
B.Fab
6
CONTINUOUS
10
2.568616496062992
20
-0.803506968503937
11
2.568616496062992
21
-0.7680738976377952
0
LINE
8
B.Fab
6
CONTINUOUS
10
2.568616496062992
20
-0.8018196850393701
11
2.5652418897637794
21
-0.803506968503937
0
LINE
8
B.Fab
6
CONTINUOUS
10
2.5652418897637794
20
-0.803506968503937
11
2.5584927559055117
21
-0.803506968503937
0
LINE
8
B.Fab
6
CONTINUOUS
10
2.5584927559055117
20
-0.803506968503937
11
2.5551181496062991
21
-0.8018196850393701
0
LINE
8
B.Fab
6
CONTINUOUS
10
2.5551181496062991
20
-0.8018196850393701
11
2.5534308661417322
21
-0.8001323622047244
0
LINE
8
B.Fab
6
CONTINUOUS
10
2.5534308661417322
20
-0.8001323622047244
11
2.5517435826771653
21
-0.7967577952755905
0
LINE
8
B.Fab
6
CONTINUOUS
10
2.5517435826771653
20
-0.7967577952755905
11
2.5517435826771653
21
-0.7866340551181102
0
LINE
8
B.Fab
6
CONTINUOUS
10
2.5517435826771653
20
-0.7866340551181102
11
2.5534308661417322
21
-0.7832594881889764
0
LINE
8
B.Fab
6
CONTINUOUS
10
2.5534308661417322
20
-0.7832594881889764
11
2.5551181496062991
21
-0.7815722047244095
0
LINE
8
B.Fab
6
CONTINUOUS
10
2.5551181496062991
20
-0.7815722047244095
11
2.5584927559055117
21
-0.7798849212598425
0
LINE
8
B.Fab
6
CONTINUOUS
10
2.5584927559055117
20
-0.7798849212598425
11
2.5652418897637794
21
-0.7798849212598425
0
LINE
8
B.Fab
6
CONTINUOUS
10
2.5652418897637794
20
-0.7798849212598425
11
2.568616496062992
21
-0.7815722047244095
0
CIRCLE
8
B.Fab
10
0.1574803149606299
20
-0.1574803149606299
40
0.0531495669291339
0
CIRCLE
8
B.Fab
10
3.3070866141732282
20
-0.1574803149606299
40
0.0531495669291339
0
CIRCLE
8
B.Fab
10
0.7559055118110236
20
-0.2874015748031496
40
0.0177165354330709
0
CIRCLE
8
B.Fab
10
0.7559055118110236
20
-0.3874015748031496
40
0.0177165354330709
0
CIRCLE
8
B.Fab
10
0.7559055118110236
20
-0.4874015748031496
40
0.0177165354330709
0
CIRCLE
8
B.Fab
10
0.7559055118110236
20
-0.5874015748031496
40
0.0177165354330709
0
CIRCLE
8
B.Fab
10
0.7559055118110236
20
-0.6874015748031496
40
0.0177165354330709
0
CIRCLE
8
B.Fab
10
0.7559055118110236
20
-0.7874015748031495
40
0.0177165354330709
0
CIRCLE
8
B.Fab
10
0.7559055118110236
20
-0.8874015748031496
40
0.0177165354330709
0
CIRCLE
8
B.Fab
10
0.7559055118110236
20
-0.9874015748031496
40
0.0177165354330709
0
CIRCLE
8
B.Fab
10
0.7559055118110236
20
-1.0874015748031496
40
0.0177165354330709
0
CIRCLE
8
B.Fab
10
0.7559055118110236
20
-1.1874015748031497
40
0.0177165354330709
0
CIRCLE
8
B.Fab
10
0.7559055118110236
20
-1.2874015748031495
40
0.0177165354330709
0
CIRCLE
8
B.Fab
10
0.1574803149606299
20
-1.4173228346456692
40
0.0531495669291339
0
CIRCLE
8
B.Fab
10
3.3070866141732282
20
-1.4173228346456692
40
0.0531495669291339
0
CIRCLE
8
B.Fab
10
3.2598425196850394
20
-0.2874015748031496
40
0.0177165354330709
0
CIRCLE
8
B.Fab
10
3.2598425196850394
20
-0.3874015748031496
40
0.0177165354330709
0
CIRCLE
8
B.Fab
10
3.2598425196850394
20
-0.4874015748031496
40
0.0177165354330709
0
CIRCLE
8
B.Fab
10
3.2598425196850394
20
-0.5874015748031496
40
0.0177165354330709
0
CIRCLE
8
B.Fab
10
3.2598425196850394
20
-0.6874015748031496
40
0.0177165354330709
0
CIRCLE
8
B.Fab
10
3.2598425196850394
20
-0.7874015748031495
40
0.0177165354330709
0
CIRCLE
8
B.Fab
10
3.2598425196850394
20
-0.8874015748031496
40
0.0177165354330709
0
CIRCLE
8
B.Fab
10
3.2598425196850394
20
-0.9874015748031496
40
0.0177165354330709
0
CIRCLE
8
B.Fab
10
3.2598425196850394
20
-1.0874015748031496
40
0.0177165354330709
0
CIRCLE
8
B.Fab
10
3.2598425196850394
20
-1.1874015748031497
40
0.0177165354330709
0
CIRCLE
8
B.Fab
10
3.2598425196850394
20
-1.2874015748031495
40
0.0177165354330709
0
CIRCLE
8
B.Fab
10
0.2755905511811024
20
-0.6374015748031496
40
0.0196850393700787
0
CIRCLE
8
B.Fab
10
0.2755905511811024
20
-0.7374015748031496
40
0.0196850393700787
0
CIRCLE
8
B.Fab
10
0.2755905511811024
20
-0.8374015748031496
40
0.0196850393700787
0
CIRCLE
8
B.Fab
10
0.2755905511811024
20
-0.9374015748031496
40
0.0196850393700787
0
CIRCLE
8
B.Fab
10
0.5118110236220472
20
-0.7874015748031495
40
0.0295275590551181
0
CIRCLE
8
B.Fab
10
3.1102362204724407
20
-0.7874015748031495
40
0.0295275590551181
  0
ENDSEC
  0
EOF
