  0
SECTION
  2
HEADER
  9
$ANGBASE
  50
0.0
  9
$ANGDIR
  70
1
  9
$MEASUREMENT
  70
0
  9
$INSUNITS
  70
1
  0
ENDSEC
  0
SECTION
  2
TABLES
  0
TABLE
  2
LTYPE
  70
4
  0
LTYPE
  5
40F
  2
CONTINUOUS
  70
0
  3
Solid line
  72
65
  73
0
  40
0.0
  0
LTYPE
  5
410
  2
DASHDOT
 70
0
  3
Dash Dot ____ _ ____ _
 72
65
 73
4
 40
2.0
 49
1.25
 49
-0.25
 49
0.25
 49
-0.25
  0
LTYPE
  5
411
  2
DASHED
 70
0
  3
Dashed __ __ __ __ __
 72
65
 73
2
 40
0.75
 49
0.5
 49
-0.25
  0
LTYPE
  5
43B
  2
DOTTED
 70
0
  3
Dotted .  .  .  .
 72
65
 73
2
 40
0.2
 49
0.0
 49
-0.2
  0
ENDTAB
  0
TABLE
  2
STYLE
  70
4
  0
STYLE
  2
KICAD
  70
0
  40
0
  41
1
  42
1
  50
0
  71
0
  3
isocp.shx
  0
STYLE
  2
KICADB
  70
0
  40
0
  41
1
  42
1
  50
0
  71
0
  3
isocp.shx
  0
STYLE
  2
KICADI
  70
0
  40
0
  41
1
  42
1
  50
15
  71
0
  3
isocp.shx
  0
STYLE
  2
KICADBI
  70
0
  40
0
  41
1
  42
1
  50
15
  71
0
  3
isocp.shx
  0
ENDTAB
  0
TABLE
  2
LAYER
  70
4
  0
LAYER
  2
Edge.Cuts
  70
0
  62
254
  420
13685453
  6
CONTINUOUS
  0
LAYER
  2
User.Drawings
  70
0
  62
9
  420
12763842
  6
CONTINUOUS
  0
LAYER
  2
F.Fab
  70
0
  62
9
  420
11513775
  6
CONTINUOUS
  0
LAYER
  2
B.Fab
  70
0
  62
155
  420
5791108
  6
CONTINUOUS
  0
ENDTAB
  0
ENDSEC
  0
SECTION
  2
ENTITIES
0
LINE
8
User.Drawings
6
CONTINUOUS
10
0.7086614173228346
20
-0.2559055118110236
11
0.7606299212598425
21
-0.2559055118110236
0
LINE
8
User.Drawings
6
CONTINUOUS
10
0.7795275590551181
20
-0.2559055118110236
11
0.831496062992126
21
-0.2559055118110236
0
LINE
8
User.Drawings
6
CONTINUOUS
10
0.8503937007874015
20
-0.2559055118110236
11
0.9023622047244094
21
-0.2559055118110236
0
LINE
8
User.Drawings
6
CONTINUOUS
10
0.9212598425196851
20
-0.2559055118110236
11
0.9732283464566929
21
-0.2559055118110236
0
LINE
8
User.Drawings
6
CONTINUOUS
10
0.9921259842519685
20
-0.2559055118110236
11
1.0440944881889764
21
-0.2559055118110236
0
LINE
8
User.Drawings
6
CONTINUOUS
10
1.0629921259842519
20
-0.2559055118110236
11
1.1149606299212598
21
-0.2559055118110236
0
LINE
8
User.Drawings
6
CONTINUOUS
10
1.1338582677165354
20
-0.2559055118110236
11
1.1858267716535433
21
-0.2559055118110236
0
LINE
8
User.Drawings
6
CONTINUOUS
10
1.204724409448819
20
-0.2559055118110236
11
1.2566929133858267
21
-0.2559055118110236
0
LINE
8
User.Drawings
6
CONTINUOUS
10
1.2755905511811023
20
-0.2559055118110236
11
1.3275590551181102
21
-0.2559055118110236
0
LINE
8
User.Drawings
6
CONTINUOUS
10
1.3464566929133859
20
-0.2559055118110236
11
1.3984251968503936
21
-0.2559055118110236
0
LINE
8
User.Drawings
6
CONTINUOUS
10
1.4173228346456692
20
-0.2559055118110236
11
1.4692913385826771
21
-0.2559055118110236
0
LINE
8
User.Drawings
6
CONTINUOUS
10
1.4881889763779528
20
-0.2559055118110236
11
1.5401574803149607
21
-0.2559055118110236
0
LINE
8
User.Drawings
6
CONTINUOUS
10
1.5590551181102361
20
-0.2559055118110236
11
1.611023622047244
21
-0.2559055118110236
0
LINE
8
User.Drawings
6
CONTINUOUS
10
1.6299212598425197
20
-0.2559055118110236
11
1.6818897637795276
21
-0.2559055118110236
0
LINE
8
User.Drawings
6
CONTINUOUS
10
1.700787401574803
20
-0.2559055118110236
11
1.7527559055118109
21
-0.2559055118110236
0
LINE
8
User.Drawings
6
CONTINUOUS
10
1.7716535433070866
20
-0.2559055118110236
11
1.8236220472440945
21
-0.2559055118110236
0
LINE
8
User.Drawings
6
CONTINUOUS
10
1.8425196850393701
20
-0.2559055118110236
11
1.8944881889763778
21
-0.2559055118110236
0
LINE
8
User.Drawings
6
CONTINUOUS
10
1.9133858267716535
20
-0.2559055118110236
11
1.9653543307086614
21
-0.2559055118110236
0
LINE
8
User.Drawings
6
CONTINUOUS
10
1.984251968503937
20
-0.2559055118110236
11
2.0362204724409447
21
-0.2559055118110236
0
LINE
8
User.Drawings
6
CONTINUOUS
10
2.0551181102362204
20
-0.2559055118110236
11
2.1070866141732285
21
-0.2559055118110236
0
LINE
8
User.Drawings
6
CONTINUOUS
10
2.1259842519685037
20
-0.2559055118110236
11
2.1779527559055119
21
-0.2559055118110236
0
LINE
8
User.Drawings
6
CONTINUOUS
10
2.1968503937007875
20
-0.2559055118110236
11
2.2488188976377952
21
-0.2559055118110236
0
LINE
8
User.Drawings
6
CONTINUOUS
10
2.2677165354330708
20
-0.2559055118110236
11
2.3196850393700785
21
-0.2559055118110236
0
LINE
8
User.Drawings
6
CONTINUOUS
10
2.3385826771653542
20
-0.2559055118110236
11
2.3905511811023623
21
-0.2559055118110236
0
LINE
8
User.Drawings
6
CONTINUOUS
10
2.409448818897638
20
-0.2559055118110236
11
2.4614173228346456
21
-0.2559055118110236
0
LINE
8
User.Drawings
6
CONTINUOUS
10
2.4803149606299213
20
-0.2559055118110236
11
2.532283464566929
21
-0.2559055118110236
0
LINE
8
User.Drawings
6
CONTINUOUS
10
2.5511811023622046
20
-0.2559055118110236
11
2.6031496062992123
21
-0.2559055118110236
0
LINE
8
User.Drawings
6
CONTINUOUS
10
2.622047244094488
20
-0.2559055118110236
11
2.6740157480314961
21
-0.2559055118110236
0
LINE
8
User.Drawings
6
CONTINUOUS
10
2.6929133858267718
20
-0.2559055118110236
11
2.7448818897637794
21
-0.2559055118110236
0
LINE
8
User.Drawings
6
CONTINUOUS
10
2.7637795275590551
20
-0.2559055118110236
11
2.8157480314960628
21
-0.2559055118110236
0
LINE
8
User.Drawings
6
CONTINUOUS
10
2.8346456692913384
20
-0.2559055118110236
11
2.8866141732283466
21
-0.2559055118110236
0
LINE
8
User.Drawings
6
CONTINUOUS
10
2.9055118110236218
20
-0.2559055118110236
11
2.9574803149606299
21
-0.2559055118110236
0
LINE
8
User.Drawings
6
CONTINUOUS
10
2.9763779527559056
20
-0.2559055118110236
11
3.0283464566929132
21
-0.2559055118110236
0
LINE
8
User.Drawings
6
CONTINUOUS
10
3.0472440944881889
20
-0.2559055118110236
11
3.0992125984251966
21
-0.2559055118110236
0
LINE
8
User.Drawings
6
CONTINUOUS
10
3.1181102362204722
20
-0.2559055118110236
11
3.1700787401574804
21
-0.2559055118110236
0
LINE
8
User.Drawings
6
CONTINUOUS
10
3.188976377952756
20
-0.2559055118110236
11
3.2409448818897637
21
-0.2559055118110236
0
LINE
8
User.Drawings
6
CONTINUOUS
10
3.2598425196850394
20
-0.2559055118110236
11
3.3070866141732282
21
-0.2559055118110236
0
LINE
8
User.Drawings
6
CONTINUOUS
10
3.3070866141732282
20
-0.2559055118110236
11
3.3070866141732282
21
-0.3078740157480315
0
LINE
8
User.Drawings
6
CONTINUOUS
10
3.3070866141732282
20
-0.3267716535433071
11
3.3070866141732282
21
-0.378740157480315
0
LINE
8
User.Drawings
6
CONTINUOUS
10
3.3070866141732282
20
-0.3976377952755906
11
3.3070866141732282
21
-0.4496062992125984
0
LINE
8
User.Drawings
6
CONTINUOUS
10
3.3070866141732282
20
-0.468503937007874
11
3.3070866141732282
21
-0.5204724409448819
0
LINE
8
User.Drawings
6
CONTINUOUS
10
3.3070866141732282
20
-0.5393700787401575
11
3.3070866141732282
21
-0.5913385826771653
0
LINE
8
User.Drawings
6
CONTINUOUS
10
3.3070866141732282
20
-0.610236220472441
11
3.3070866141732282
21
-0.6622047244094488
0
LINE
8
User.Drawings
6
CONTINUOUS
10
3.3070866141732282
20
-0.6811023622047244
11
3.3070866141732282
21
-0.7330708661417322
0
LINE
8
User.Drawings
6
CONTINUOUS
10
3.3070866141732282
20
-0.7519685039370079
11
3.3070866141732282
21
-0.8039370078740157
0
LINE
8
User.Drawings
6
CONTINUOUS
10
3.3070866141732282
20
-0.8228346456692913
11
3.3070866141732282
21
-0.8748031496062992
0
LINE
8
User.Drawings
6
CONTINUOUS
10
3.3070866141732282
20
-0.8937007874015748
11
3.3070866141732282
21
-0.9456692913385827
0
LINE
8
User.Drawings
6
CONTINUOUS
10
3.3070866141732282
20
-0.9645669291338582
11
3.3070866141732282
21
-1.016535433070866
0
LINE
8
User.Drawings
6
CONTINUOUS
10
3.3070866141732282
20
-1.0354330708661417
11
3.3070866141732282
21
-1.0874015748031496
0
LINE
8
User.Drawings
6
CONTINUOUS
10
3.3070866141732282
20
-1.1062992125984252
11
3.3070866141732282
21
-1.1582677165354331
0
LINE
8
User.Drawings
6
CONTINUOUS
10
3.3070866141732282
20
-1.1771653543307086
11
3.3070866141732282
21
-1.2291338582677165
0
LINE
8
User.Drawings
6
CONTINUOUS
10
3.3070866141732282
20
-1.2480314960629921
11
3.3070866141732282
21
-1.3
0
LINE
8
User.Drawings
6
CONTINUOUS
10
3.3070866141732282
20
-1.3188976377952755
11
3.2551181102362206
21
-1.3188976377952755
0
LINE
8
User.Drawings
6
CONTINUOUS
10
3.2362204724409449
20
-1.3188976377952755
11
3.1842519685039368
21
-1.3188976377952755
0
LINE
8
User.Drawings
6
CONTINUOUS
10
3.1653543307086611
20
-1.3188976377952755
11
3.1133858267716534
21
-1.3188976377952755
0
LINE
8
User.Drawings
6
CONTINUOUS
10
3.0944881889763778
20
-1.3188976377952755
11
3.0425196850393701
21
-1.3188976377952755
0
LINE
8
User.Drawings
6
CONTINUOUS
10
3.0236220472440944
20
-1.3188976377952755
11
2.9716535433070868
21
-1.3188976377952755
0
LINE
8
User.Drawings
6
CONTINUOUS
10
2.9527559055118111
20
-1.3188976377952755
11
2.900787401574803
21
-1.3188976377952755
0
LINE
8
User.Drawings
6
CONTINUOUS
10
2.8818897637795273
20
-1.3188976377952755
11
2.8299212598425196
21
-1.3188976377952755
0
LINE
8
User.Drawings
6
CONTINUOUS
10
2.811023622047244
20
-1.3188976377952755
11
2.7590551181102363
21
-1.3188976377952755
0
LINE
8
User.Drawings
6
CONTINUOUS
10
2.7401574803149606
20
-1.3188976377952755
11
2.6881889763779525
21
-1.3188976377952755
0
LINE
8
User.Drawings
6
CONTINUOUS
10
2.6692913385826773
20
-1.3188976377952755
11
2.6173228346456692
21
-1.3188976377952755
0
LINE
8
User.Drawings
6
CONTINUOUS
10
2.5984251968503935
20
-1.3188976377952755
11
2.5464566929133858
21
-1.3188976377952755
0
LINE
8
User.Drawings
6
CONTINUOUS
10
2.5275590551181102
20
-1.3188976377952755
11
2.4755905511811025
21
-1.3188976377952755
0
LINE
8
User.Drawings
6
CONTINUOUS
10
2.4566929133858268
20
-1.3188976377952755
11
2.4047244094488187
21
-1.3188976377952755
0
LINE
8
User.Drawings
6
CONTINUOUS
10
2.3858267716535431
20
-1.3188976377952755
11
2.3338582677165354
21
-1.3188976377952755
0
LINE
8
User.Drawings
6
CONTINUOUS
10
2.3149606299212597
20
-1.3188976377952755
11
2.262992125984252
21
-1.3188976377952755
0
LINE
8
User.Drawings
6
CONTINUOUS
10
2.2440944881889764
20
-1.3188976377952755
11
2.1921259842519683
21
-1.3188976377952755
0
LINE
8
User.Drawings
6
CONTINUOUS
10
2.173228346456693
20
-1.3188976377952755
11
2.1212598425196849
21
-1.3188976377952755
0
LINE
8
User.Drawings
6
CONTINUOUS
10
2.1023622047244093
20
-1.3188976377952755
11
2.0503937007874016
21
-1.3188976377952755
0
LINE
8
User.Drawings
6
CONTINUOUS
10
2.0314960629921259
20
-1.3188976377952755
11
1.979527559055118
21
-1.3188976377952755
0
LINE
8
User.Drawings
6
CONTINUOUS
10
1.9606299212598424
20
-1.3188976377952755
11
1.9086614173228347
21
-1.3188976377952755
0
LINE
8
User.Drawings
6
CONTINUOUS
10
1.889763779527559
20
-1.3188976377952755
11
1.8377952755905511
21
-1.3188976377952755
0
LINE
8
User.Drawings
6
CONTINUOUS
10
1.8188976377952755
20
-1.3188976377952755
11
1.7669291338582678
21
-1.3188976377952755
0
LINE
8
User.Drawings
6
CONTINUOUS
10
1.7480314960629921
20
-1.3188976377952755
11
1.6960629921259842
21
-1.3188976377952755
0
LINE
8
User.Drawings
6
CONTINUOUS
10
1.6771653543307086
20
-1.3188976377952755
11
1.6251968503937007
21
-1.3188976377952755
0
LINE
8
User.Drawings
6
CONTINUOUS
10
1.6062992125984252
20
-1.3188976377952755
11
1.5543307086614173
21
-1.3188976377952755
0
LINE
8
User.Drawings
6
CONTINUOUS
10
1.5354330708661417
20
-1.3188976377952755
11
1.4834645669291338
21
-1.3188976377952755
0
LINE
8
User.Drawings
6
CONTINUOUS
10
1.4645669291338583
20
-1.3188976377952755
11
1.4125984251968504
21
-1.3188976377952755
0
LINE
8
User.Drawings
6
CONTINUOUS
10
1.3937007874015748
20
-1.3188976377952755
11
1.3417322834645669
21
-1.3188976377952755
0
LINE
8
User.Drawings
6
CONTINUOUS
10
1.3228346456692912
20
-1.3188976377952755
11
1.2708661417322835
21
-1.3188976377952755
0
LINE
8
User.Drawings
6
CONTINUOUS
10
1.2519685039370079
20
-1.3188976377952755
11
1.2
21
-1.3188976377952755
0
LINE
8
User.Drawings
6
CONTINUOUS
10
1.1811023622047243
20
-1.3188976377952755
11
1.1291338582677166
21
-1.3188976377952755
0
LINE
8
User.Drawings
6
CONTINUOUS
10
1.110236220472441
20
-1.3188976377952755
11
1.0582677165354331
21
-1.3188976377952755
0
LINE
8
User.Drawings
6
CONTINUOUS
10
1.0393700787401574
20
-1.3188976377952755
11
0.9874015748031496
21
-1.3188976377952755
0
LINE
8
User.Drawings
6
CONTINUOUS
10
0.968503937007874
20
-1.3188976377952755
11
0.9165354330708662
21
-1.3188976377952755
0
LINE
8
User.Drawings
6
CONTINUOUS
10
0.8976377952755905
20
-1.3188976377952755
11
0.8456692913385827
21
-1.3188976377952755
0
LINE
8
User.Drawings
6
CONTINUOUS
10
0.8267716535433071
20
-1.3188976377952755
11
0.7748031496062991
21
-1.3188976377952755
0
LINE
8
User.Drawings
6
CONTINUOUS
10
0.7559055118110236
20
-1.3188976377952755
11
0.7086614173228346
21
-1.3188976377952755
0
LINE
8
User.Drawings
6
CONTINUOUS
10
0.7086614173228346
20
-1.3188976377952755
11
0.7086614173228346
21
-1.2669291338582678
0
LINE
8
User.Drawings
6
CONTINUOUS
10
0.7086614173228346
20
-1.2480314960629921
11
0.7086614173228346
21
-1.1960629921259842
0
LINE
8
User.Drawings
6
CONTINUOUS
10
0.7086614173228346
20
-1.1771653543307086
11
0.7086614173228346
21
-1.1251968503937007
0
LINE
8
User.Drawings
6
CONTINUOUS
10
0.7086614173228346
20
-1.1062992125984252
11
0.7086614173228346
21
-1.0543307086614173
0
LINE
8
User.Drawings
6
CONTINUOUS
10
0.7086614173228346
20
-1.0354330708661417
11
0.7086614173228346
21
-0.9834645669291339
0
LINE
8
User.Drawings
6
CONTINUOUS
10
0.7086614173228346
20
-0.9645669291338582
11
0.7086614173228346
21
-0.9125984251968504
0
LINE
8
User.Drawings
6
CONTINUOUS
10
0.7086614173228346
20
-0.8937007874015748
11
0.7086614173228346
21
-0.8417322834645669
0
LINE
8
User.Drawings
6
CONTINUOUS
10
0.7086614173228346
20
-0.8228346456692913
11
0.7086614173228346
21
-0.7708661417322834
0
LINE
8
User.Drawings
6
CONTINUOUS
10
0.7086614173228346
20
-0.7519685039370079
11
0.7086614173228346
21
-0.7
0
LINE
8
User.Drawings
6
CONTINUOUS
10
0.7086614173228346
20
-0.6811023622047244
11
0.7086614173228346
21
-0.6291338582677165
0
LINE
8
User.Drawings
6
CONTINUOUS
10
0.7086614173228346
20
-0.610236220472441
11
0.7086614173228346
21
-0.5582677165354331
0
LINE
8
User.Drawings
6
CONTINUOUS
10
0.7086614173228346
20
-0.5393700787401575
11
0.7086614173228346
21
-0.4874015748031496
0
LINE
8
User.Drawings
6
CONTINUOUS
10
0.7086614173228346
20
-0.468503937007874
11
0.7086614173228346
21
-0.4165354330708662
0
LINE
8
User.Drawings
6
CONTINUOUS
10
0.7086614173228346
20
-0.3976377952755906
11
0.7086614173228346
21
-0.3456692913385827
0
LINE
8
User.Drawings
6
CONTINUOUS
10
0.7086614173228346
20
-0.3267716535433071
11
0.7086614173228346
21
-0.2748031496062992
0
LINE
8
User.Drawings
6
CONTINUOUS
10
0.7986502755905511
20
-0.7616449606299213
11
0.8256469291338583
21
-0.7616449606299213
0
LINE
8
User.Drawings
6
CONTINUOUS
10
0.8121485826771654
20
-0.8088890551181103
11
0.8121485826771654
21
-0.7616449606299213
0
LINE
8
User.Drawings
6
CONTINUOUS
10
0.8413949606299213
20
-0.7908913385826771
11
0.8773904724409448
21
-0.7908913385826771
0
LINE
8
User.Drawings
6
CONTINUOUS
10
0.8976379133858268
20
-0.8066393700787401
11
0.9043870866141732
21
-0.8088890551181103
0
LINE
8
User.Drawings
6
CONTINUOUS
10
0.9043870866141732
20
-0.8088890551181103
11
0.9156356692913385
21
-0.8088890551181103
0
LINE
8
User.Drawings
6
CONTINUOUS
10
0.9156356692913385
20
-0.8088890551181103
11
0.9201351181102362
21
-0.8066393700787401
0
LINE
8
User.Drawings
6
CONTINUOUS
10
0.9201351181102362
20
-0.8066393700787401
11
0.9223848031496062
21
-0.8043896456692913
0
LINE
8
User.Drawings
6
CONTINUOUS
10
0.9223848031496062
20
-0.8043896456692913
11
0.9246345275590551
21
-0.7998901968503936
0
LINE
8
User.Drawings
6
CONTINUOUS
10
0.9246345275590551
20
-0.7998901968503936
11
0.9246345275590551
21
-0.795390748031496
0
LINE
8
User.Drawings
6
CONTINUOUS
10
0.9246345275590551
20
-0.795390748031496
11
0.9223848031496062
21
-0.7908913385826771
0
LINE
8
User.Drawings
6
CONTINUOUS
10
0.9223848031496062
20
-0.7908913385826771
11
0.9201351181102362
21
-0.7886416141732283
0
LINE
8
User.Drawings
6
CONTINUOUS
10
0.9201351181102362
20
-0.7886416141732283
11
0.9156356692913385
21
-0.7863918897637795
0
LINE
8
User.Drawings
6
CONTINUOUS
10
0.9156356692913385
20
-0.7863918897637795
11
0.9066367716535433
21
-0.7841421653543307
0
LINE
8
User.Drawings
6
CONTINUOUS
10
0.9066367716535433
20
-0.7841421653543307
11
0.9021373622047244
21
-0.7818924409448819
0
LINE
8
User.Drawings
6
CONTINUOUS
10
0.9021373622047244
20
-0.7818924409448819
11
0.8998876377952756
21
-0.779642716535433
0
LINE
8
User.Drawings
6
CONTINUOUS
10
0.8998876377952756
20
-0.779642716535433
11
0.8976379133858268
21
-0.7751433070866142
0
LINE
8
User.Drawings
6
CONTINUOUS
10
0.8976379133858268
20
-0.7751433070866142
11
0.8976379133858268
21
-0.7706438582677165
0
LINE
8
User.Drawings
6
CONTINUOUS
10
0.8976379133858268
20
-0.7706438582677165
11
0.8998876377952756
21
-0.7661444094488189
0
LINE
8
User.Drawings
6
CONTINUOUS
10
0.8998876377952756
20
-0.7661444094488189
11
0.9021373622047244
21
-0.7638946850393701
0
LINE
8
User.Drawings
6
CONTINUOUS
10
0.9021373622047244
20
-0.7638946850393701
11
0.9066367716535433
21
-0.7616449606299213
0
LINE
8
User.Drawings
6
CONTINUOUS
10
0.9066367716535433
20
-0.7616449606299213
11
0.9178853937007874
21
-0.7616449606299213
0
LINE
8
User.Drawings
6
CONTINUOUS
10
0.9178853937007874
20
-0.7616449606299213
11
0.9246345275590551
21
-0.7638946850393701
0
LINE
8
User.Drawings
6
CONTINUOUS
10
0.9448820078740158
20
-0.8088890551181103
11
0.9448820078740158
21
-0.7616449606299213
0
LINE
8
User.Drawings
6
CONTINUOUS
10
0.9673792125984252
20
-0.8088890551181103
11
0.9673792125984252
21
-0.7616449606299213
0
LINE
8
User.Drawings
6
CONTINUOUS
10
0.9673792125984252
20
-0.7616449606299213
11
0.9831272440944882
21
-0.795390748031496
0
LINE
8
User.Drawings
6
CONTINUOUS
10
0.9831272440944882
20
-0.795390748031496
11
0.9988752755905511
21
-0.7616449606299213
0
LINE
8
User.Drawings
6
CONTINUOUS
10
0.9988752755905511
20
-0.7616449606299213
11
0.9988752755905511
21
-0.8088890551181103
0
LINE
8
User.Drawings
6
CONTINUOUS
10
1.016873031496063
20
-0.7616449606299213
11
1.0483690944881889
21
-0.7616449606299213
0
LINE
8
User.Drawings
6
CONTINUOUS
10
1.0483690944881889
20
-0.7616449606299213
11
1.0281216141732283
21
-0.8088890551181103
0
LINE
8
User.Drawings
6
CONTINUOUS
10
1.0753657086614172
20
-0.7616449606299213
11
1.0798651574803149
21
-0.7616449606299213
0
LINE
8
User.Drawings
6
CONTINUOUS
10
1.0798651574803149
20
-0.7616449606299213
11
1.0843646062992125
21
-0.7638946850393701
0
LINE
8
User.Drawings
6
CONTINUOUS
10
1.0843646062992125
20
-0.7638946850393701
11
1.0866143307086613
21
-0.7661444094488189
0
LINE
8
User.Drawings
6
CONTINUOUS
10
1.0866143307086613
20
-0.7661444094488189
11
1.0888640157480314
21
-0.7706438582677165
0
LINE
8
User.Drawings
6
CONTINUOUS
10
1.0888640157480314
20
-0.7706438582677165
11
1.0911137401574802
21
-0.779642716535433
0
LINE
8
User.Drawings
6
CONTINUOUS
10
1.0911137401574802
20
-0.779642716535433
11
1.0911137401574802
21
-0.7908913385826771
0
LINE
8
User.Drawings
6
CONTINUOUS
10
1.0911137401574802
20
-0.7908913385826771
11
1.0888640157480314
21
-0.7998901968503936
0
LINE
8
User.Drawings
6
CONTINUOUS
10
1.0888640157480314
20
-0.7998901968503936
11
1.0866143307086613
21
-0.8043896456692913
0
LINE
8
User.Drawings
6
CONTINUOUS
10
1.0866143307086613
20
-0.8043896456692913
11
1.0843646062992125
21
-0.8066393700787401
0
LINE
8
User.Drawings
6
CONTINUOUS
10
1.0843646062992125
20
-0.8066393700787401
11
1.0798651574803149
21
-0.8088890551181103
0
LINE
8
User.Drawings
6
CONTINUOUS
10
1.0798651574803149
20
-0.8088890551181103
11
1.0753657086614172
21
-0.8088890551181103
0
LINE
8
User.Drawings
6
CONTINUOUS
10
1.0753657086614172
20
-0.8088890551181103
11
1.0708662992125983
21
-0.8066393700787401
0
LINE
8
User.Drawings
6
CONTINUOUS
10
1.0708662992125983
20
-0.8066393700787401
11
1.0686165748031495
21
-0.8043896456692913
0
LINE
8
User.Drawings
6
CONTINUOUS
10
1.0686165748031495
20
-0.8043896456692913
11
1.0663668503937007
21
-0.7998901968503936
0
LINE
8
User.Drawings
6
CONTINUOUS
10
1.0663668503937007
20
-0.7998901968503936
11
1.0641171259842519
21
-0.7908913385826771
0
LINE
8
User.Drawings
6
CONTINUOUS
10
1.0641171259842519
20
-0.7908913385826771
11
1.0641171259842519
21
-0.779642716535433
0
LINE
8
User.Drawings
6
CONTINUOUS
10
1.0641171259842519
20
-0.779642716535433
11
1.0663668503937007
21
-0.7706438582677165
0
LINE
8
User.Drawings
6
CONTINUOUS
10
1.0663668503937007
20
-0.7706438582677165
11
1.0686165748031495
21
-0.7661444094488189
0
LINE
8
User.Drawings
6
CONTINUOUS
10
1.0686165748031495
20
-0.7661444094488189
11
1.0708662992125983
21
-0.7638946850393701
0
LINE
8
User.Drawings
6
CONTINUOUS
10
1.0708662992125983
20
-0.7638946850393701
11
1.0753657086614172
21
-0.7616449606299213
0
LINE
8
User.Drawings
6
CONTINUOUS
10
1.1203600787401575
20
-0.7616449606299213
11
1.1248595275590552
21
-0.7616449606299213
0
LINE
8
User.Drawings
6
CONTINUOUS
10
1.1248595275590552
20
-0.7616449606299213
11
1.1293589763779528
21
-0.7638946850393701
0
LINE
8
User.Drawings
6
CONTINUOUS
10
1.1293589763779528
20
-0.7638946850393701
11
1.1316087007874016
21
-0.7661444094488189
0
LINE
8
User.Drawings
6
CONTINUOUS
10
1.1316087007874016
20
-0.7661444094488189
11
1.1338583858267717
21
-0.7706438582677165
0
LINE
8
User.Drawings
6
CONTINUOUS
10
1.1338583858267717
20
-0.7706438582677165
11
1.1361081102362205
21
-0.779642716535433
0
LINE
8
User.Drawings
6
CONTINUOUS
10
1.1361081102362205
20
-0.779642716535433
11
1.1361081102362205
21
-0.7908913385826771
0
LINE
8
User.Drawings
6
CONTINUOUS
10
1.1361081102362205
20
-0.7908913385826771
11
1.1338583858267717
21
-0.7998901968503936
0
LINE
8
User.Drawings
6
CONTINUOUS
10
1.1338583858267717
20
-0.7998901968503936
11
1.1316087007874016
21
-0.8043896456692913
0
LINE
8
User.Drawings
6
CONTINUOUS
10
1.1316087007874016
20
-0.8043896456692913
11
1.1293589763779528
21
-0.8066393700787401
0
LINE
8
User.Drawings
6
CONTINUOUS
10
1.1293589763779528
20
-0.8066393700787401
11
1.1248595275590552
21
-0.8088890551181103
0
LINE
8
User.Drawings
6
CONTINUOUS
10
1.1248595275590552
20
-0.8088890551181103
11
1.1203600787401575
21
-0.8088890551181103
0
LINE
8
User.Drawings
6
CONTINUOUS
10
1.1203600787401575
20
-0.8088890551181103
11
1.1158606692913386
21
-0.8066393700787401
0
LINE
8
User.Drawings
6
CONTINUOUS
10
1.1158606692913386
20
-0.8066393700787401
11
1.1136109448818898
21
-0.8043896456692913
0
LINE
8
User.Drawings
6
CONTINUOUS
10
1.1136109448818898
20
-0.8043896456692913
11
1.111361220472441
21
-0.7998901968503936
0
LINE
8
User.Drawings
6
CONTINUOUS
10
1.111361220472441
20
-0.7998901968503936
11
1.1091114960629922
21
-0.7908913385826771
0
LINE
8
User.Drawings
6
CONTINUOUS
10
1.1091114960629922
20
-0.7908913385826771
11
1.1091114960629922
21
-0.779642716535433
0
LINE
8
User.Drawings
6
CONTINUOUS
10
1.1091114960629922
20
-0.779642716535433
11
1.111361220472441
21
-0.7706438582677165
0
LINE
8
User.Drawings
6
CONTINUOUS
10
1.111361220472441
20
-0.7706438582677165
11
1.1136109448818898
21
-0.7661444094488189
0
LINE
8
User.Drawings
6
CONTINUOUS
10
1.1136109448818898
20
-0.7661444094488189
11
1.1158606692913386
21
-0.7638946850393701
0
LINE
8
User.Drawings
6
CONTINUOUS
10
1.1158606692913386
20
-0.7638946850393701
11
1.1203600787401575
21
-0.7616449606299213
0
LINE
8
User.Drawings
6
CONTINUOUS
10
1.1653544488188976
20
-0.7616449606299213
11
1.1698538976377952
21
-0.7616449606299213
0
LINE
8
User.Drawings
6
CONTINUOUS
10
1.1698538976377952
20
-0.7616449606299213
11
1.1743533464566929
21
-0.7638946850393701
0
LINE
8
User.Drawings
6
CONTINUOUS
10
1.1743533464566929
20
-0.7638946850393701
11
1.1766030708661417
21
-0.7661444094488189
0
LINE
8
User.Drawings
6
CONTINUOUS
10
1.1766030708661417
20
-0.7661444094488189
11
1.1788527559055118
21
-0.7706438582677165
0
LINE
8
User.Drawings
6
CONTINUOUS
10
1.1788527559055118
20
-0.7706438582677165
11
1.1811024803149606
21
-0.779642716535433
0
LINE
8
User.Drawings
6
CONTINUOUS
10
1.1811024803149606
20
-0.779642716535433
11
1.1811024803149606
21
-0.7908913385826771
0
LINE
8
User.Drawings
6
CONTINUOUS
10
1.1811024803149606
20
-0.7908913385826771
11
1.1788527559055118
21
-0.7998901968503936
0
LINE
8
User.Drawings
6
CONTINUOUS
10
1.1788527559055118
20
-0.7998901968503936
11
1.1766030708661417
21
-0.8043896456692913
0
LINE
8
User.Drawings
6
CONTINUOUS
10
1.1766030708661417
20
-0.8043896456692913
11
1.1743533464566929
21
-0.8066393700787401
0
LINE
8
User.Drawings
6
CONTINUOUS
10
1.1743533464566929
20
-0.8066393700787401
11
1.1698538976377952
21
-0.8088890551181103
0
LINE
8
User.Drawings
6
CONTINUOUS
10
1.1698538976377952
20
-0.8088890551181103
11
1.1653544488188976
21
-0.8088890551181103
0
LINE
8
User.Drawings
6
CONTINUOUS
10
1.1653544488188976
20
-0.8088890551181103
11
1.1608550393700787
21
-0.8066393700787401
0
LINE
8
User.Drawings
6
CONTINUOUS
10
1.1608550393700787
20
-0.8066393700787401
11
1.1586053149606299
21
-0.8043896456692913
0
LINE
8
User.Drawings
6
CONTINUOUS
10
1.1586053149606299
20
-0.8043896456692913
11
1.1563555905511811
21
-0.7998901968503936
0
LINE
8
User.Drawings
6
CONTINUOUS
10
1.1563555905511811
20
-0.7998901968503936
11
1.1541058661417323
21
-0.7908913385826771
0
LINE
8
User.Drawings
6
CONTINUOUS
10
1.1541058661417323
20
-0.7908913385826771
11
1.1541058661417323
21
-0.779642716535433
0
LINE
8
User.Drawings
6
CONTINUOUS
10
1.1541058661417323
20
-0.779642716535433
11
1.1563555905511811
21
-0.7706438582677165
0
LINE
8
User.Drawings
6
CONTINUOUS
10
1.1563555905511811
20
-0.7706438582677165
11
1.1586053149606299
21
-0.7661444094488189
0
LINE
8
User.Drawings
6
CONTINUOUS
10
1.1586053149606299
20
-0.7661444094488189
11
1.1608550393700787
21
-0.7638946850393701
0
LINE
8
User.Drawings
6
CONTINUOUS
10
1.1608550393700787
20
-0.7638946850393701
11
1.1653544488188976
21
-0.7616449606299213
0
LINE
8
User.Drawings
6
CONTINUOUS
10
1.2260968503937009
20
-0.7638946850393701
11
1.2215974409448818
21
-0.7616449606299213
0
LINE
8
User.Drawings
6
CONTINUOUS
10
1.2215974409448818
20
-0.7616449606299213
11
1.2148482677165353
21
-0.7616449606299213
0
LINE
8
User.Drawings
6
CONTINUOUS
10
1.2148482677165353
20
-0.7616449606299213
11
1.2080990944881889
21
-0.7638946850393701
0
LINE
8
User.Drawings
6
CONTINUOUS
10
1.2080990944881889
20
-0.7638946850393701
11
1.20359968503937
21
-0.7683941338582677
0
LINE
8
User.Drawings
6
CONTINUOUS
10
1.20359968503937
20
-0.7683941338582677
11
1.2013499606299212
21
-0.7728935826771653
0
LINE
8
User.Drawings
6
CONTINUOUS
10
1.2013499606299212
20
-0.7728935826771653
11
1.1991002362204723
21
-0.7818924409448819
0
LINE
8
User.Drawings
6
CONTINUOUS
10
1.1991002362204723
20
-0.7818924409448819
11
1.1991002362204723
21
-0.7886416141732283
0
LINE
8
User.Drawings
6
CONTINUOUS
10
1.1991002362204723
20
-0.7886416141732283
11
1.2013499606299212
21
-0.7976404724409448
0
LINE
8
User.Drawings
6
CONTINUOUS
10
1.2013499606299212
20
-0.7976404724409448
11
1.20359968503937
21
-0.8021399212598425
0
LINE
8
User.Drawings
6
CONTINUOUS
10
1.20359968503937
20
-0.8021399212598425
11
1.2080990944881889
21
-0.8066393700787401
0
LINE
8
User.Drawings
6
CONTINUOUS
10
1.2080990944881889
20
-0.8066393700787401
11
1.2148482677165353
21
-0.8088890551181103
0
LINE
8
User.Drawings
6
CONTINUOUS
10
1.2148482677165353
20
-0.8088890551181103
11
1.2193477165354329
21
-0.8088890551181103
0
LINE
8
User.Drawings
6
CONTINUOUS
10
1.2193477165354329
20
-0.8088890551181103
11
1.2260968503937009
21
-0.8066393700787401
0
LINE
8
User.Drawings
6
CONTINUOUS
10
1.2260968503937009
20
-0.8066393700787401
11
1.2283465748031497
21
-0.8043896456692913
0
LINE
8
User.Drawings
6
CONTINUOUS
10
1.2283465748031497
20
-0.8043896456692913
11
1.2283465748031497
21
-0.7886416141732283
0
LINE
8
User.Drawings
6
CONTINUOUS
10
1.2283465748031497
20
-0.7886416141732283
11
1.2193477165354329
21
-0.7886416141732283
0
LINE
8
User.Drawings
6
CONTINUOUS
10
1.3048370472440944
20
-0.7616449606299213
11
1.2958381496062992
21
-0.7616449606299213
0
LINE
8
User.Drawings
6
CONTINUOUS
10
1.2958381496062992
20
-0.7616449606299213
11
1.2913387007874015
21
-0.7638946850393701
0
LINE
8
User.Drawings
6
CONTINUOUS
10
1.2913387007874015
20
-0.7638946850393701
11
1.2890890157480315
21
-0.7661444094488189
0
LINE
8
User.Drawings
6
CONTINUOUS
10
1.2890890157480315
20
-0.7661444094488189
11
1.2845895669291338
21
-0.7728935826771653
0
LINE
8
User.Drawings
6
CONTINUOUS
10
1.2845895669291338
20
-0.7728935826771653
11
1.282339842519685
21
-0.7818924409448819
0
LINE
8
User.Drawings
6
CONTINUOUS
10
1.282339842519685
20
-0.7818924409448819
11
1.282339842519685
21
-0.7998901968503936
0
LINE
8
User.Drawings
6
CONTINUOUS
10
1.282339842519685
20
-0.7998901968503936
11
1.2845895669291338
21
-0.8043896456692913
0
LINE
8
User.Drawings
6
CONTINUOUS
10
1.2845895669291338
20
-0.8043896456692913
11
1.2868392913385827
21
-0.8066393700787401
0
LINE
8
User.Drawings
6
CONTINUOUS
10
1.2868392913385827
20
-0.8066393700787401
11
1.2913387007874015
21
-0.8088890551181103
0
LINE
8
User.Drawings
6
CONTINUOUS
10
1.2913387007874015
20
-0.8088890551181103
11
1.3003375984251968
21
-0.8088890551181103
0
LINE
8
User.Drawings
6
CONTINUOUS
10
1.3003375984251968
20
-0.8088890551181103
11
1.3048370472440944
21
-0.8066393700787401
0
LINE
8
User.Drawings
6
CONTINUOUS
10
1.3048370472440944
20
-0.8066393700787401
11
1.3070867322834645
21
-0.8043896456692913
0
LINE
8
User.Drawings
6
CONTINUOUS
10
1.3070867322834645
20
-0.8043896456692913
11
1.3093364566929133
21
-0.7998901968503936
0
LINE
8
User.Drawings
6
CONTINUOUS
10
1.3093364566929133
20
-0.7998901968503936
11
1.3093364566929133
21
-0.7886416141732283
0
LINE
8
User.Drawings
6
CONTINUOUS
10
1.3093364566929133
20
-0.7886416141732283
11
1.3070867322834645
21
-0.7841421653543307
0
LINE
8
User.Drawings
6
CONTINUOUS
10
1.3070867322834645
20
-0.7841421653543307
11
1.3048370472440944
21
-0.7818924409448819
0
LINE
8
User.Drawings
6
CONTINUOUS
10
1.3048370472440944
20
-0.7818924409448819
11
1.3003375984251968
21
-0.779642716535433
0
LINE
8
User.Drawings
6
CONTINUOUS
10
1.3003375984251968
20
-0.779642716535433
11
1.2913387007874015
21
-0.779642716535433
0
LINE
8
User.Drawings
6
CONTINUOUS
10
1.2913387007874015
20
-0.779642716535433
11
1.2868392913385827
21
-0.7818924409448819
0
LINE
8
User.Drawings
6
CONTINUOUS
10
1.2868392913385827
20
-0.7818924409448819
11
1.2845895669291338
21
-0.7841421653543307
0
LINE
8
User.Drawings
6
CONTINUOUS
10
1.2845895669291338
20
-0.7841421653543307
11
1.282339842519685
21
-0.7886416141732283
0
LINE
8
User.Drawings
6
CONTINUOUS
10
1.3498314173228345
20
-0.7616449606299213
11
1.3408325196850392
21
-0.7616449606299213
0
LINE
8
User.Drawings
6
CONTINUOUS
10
1.3408325196850392
20
-0.7616449606299213
11
1.3363330708661416
21
-0.7638946850393701
0
LINE
8
User.Drawings
6
CONTINUOUS
10
1.3363330708661416
20
-0.7638946850393701
11
1.3340833858267716
21
-0.7661444094488189
0
LINE
8
User.Drawings
6
CONTINUOUS
10
1.3340833858267716
20
-0.7661444094488189
11
1.3295839370078739
21
-0.7728935826771653
0
LINE
8
User.Drawings
6
CONTINUOUS
10
1.3295839370078739
20
-0.7728935826771653
11
1.3273342125984251
21
-0.7818924409448819
0
LINE
8
User.Drawings
6
CONTINUOUS
10
1.3273342125984251
20
-0.7818924409448819
11
1.3273342125984251
21
-0.7998901968503936
0
LINE
8
User.Drawings
6
CONTINUOUS
10
1.3273342125984251
20
-0.7998901968503936
11
1.3295839370078739
21
-0.8043896456692913
0
LINE
8
User.Drawings
6
CONTINUOUS
10
1.3295839370078739
20
-0.8043896456692913
11
1.3318336614173227
21
-0.8066393700787401
0
LINE
8
User.Drawings
6
CONTINUOUS
10
1.3318336614173227
20
-0.8066393700787401
11
1.3363330708661416
21
-0.8088890551181103
0
LINE
8
User.Drawings
6
CONTINUOUS
10
1.3363330708661416
20
-0.8088890551181103
11
1.3453319685039369
21
-0.8088890551181103
0
LINE
8
User.Drawings
6
CONTINUOUS
10
1.3453319685039369
20
-0.8088890551181103
11
1.3498314173228345
21
-0.8066393700787401
0
LINE
8
User.Drawings
6
CONTINUOUS
10
1.3498314173228345
20
-0.8066393700787401
11
1.3520811023622048
21
-0.8043896456692913
0
LINE
8
User.Drawings
6
CONTINUOUS
10
1.3520811023622048
20
-0.8043896456692913
11
1.3543308267716536
21
-0.7998901968503936
0
LINE
8
User.Drawings
6
CONTINUOUS
10
1.3543308267716536
20
-0.7998901968503936
11
1.3543308267716536
21
-0.7886416141732283
0
LINE
8
User.Drawings
6
CONTINUOUS
10
1.3543308267716536
20
-0.7886416141732283
11
1.3520811023622048
21
-0.7841421653543307
0
LINE
8
User.Drawings
6
CONTINUOUS
10
1.3520811023622048
20
-0.7841421653543307
11
1.3498314173228345
21
-0.7818924409448819
0
LINE
8
User.Drawings
6
CONTINUOUS
10
1.3498314173228345
20
-0.7818924409448819
11
1.3453319685039369
21
-0.779642716535433
0
LINE
8
User.Drawings
6
CONTINUOUS
10
1.3453319685039369
20
-0.779642716535433
11
1.3363330708661416
21
-0.779642716535433
0
LINE
8
User.Drawings
6
CONTINUOUS
10
1.3363330708661416
20
-0.779642716535433
11
1.3318336614173227
21
-0.7818924409448819
0
LINE
8
User.Drawings
6
CONTINUOUS
10
1.3318336614173227
20
-0.7818924409448819
11
1.3295839370078739
21
-0.7841421653543307
0
LINE
8
User.Drawings
6
CONTINUOUS
10
1.3295839370078739
20
-0.7841421653543307
11
1.3273342125984251
21
-0.7886416141732283
0
LINE
8
User.Drawings
6
CONTINUOUS
10
1.3700788582677166
20
-0.8088890551181103
11
1.3948257874015748
21
-0.7773929921259842
0
LINE
8
User.Drawings
6
CONTINUOUS
10
1.3700788582677166
20
-0.7773929921259842
11
1.3948257874015748
21
-0.8088890551181103
0
LINE
8
User.Drawings
6
CONTINUOUS
10
1.4105738188976378
20
-0.7661444094488189
11
1.4128235433070866
21
-0.7638946850393701
0
LINE
8
User.Drawings
6
CONTINUOUS
10
1.4128235433070866
20
-0.7638946850393701
11
1.4173229921259842
21
-0.7616449606299213
0
LINE
8
User.Drawings
6
CONTINUOUS
10
1.4173229921259842
20
-0.7616449606299213
11
1.4285715748031496
21
-0.7616449606299213
0
LINE
8
User.Drawings
6
CONTINUOUS
10
1.4285715748031496
20
-0.7616449606299213
11
1.4330710236220472
21
-0.7638946850393701
0
LINE
8
User.Drawings
6
CONTINUOUS
10
1.4330710236220472
20
-0.7638946850393701
11
1.4353207086614173
21
-0.7661444094488189
0
LINE
8
User.Drawings
6
CONTINUOUS
10
1.4353207086614173
20
-0.7661444094488189
11
1.4375704330708661
21
-0.7706438582677165
0
LINE
8
User.Drawings
6
CONTINUOUS
10
1.4375704330708661
20
-0.7706438582677165
11
1.4375704330708661
21
-0.7751433070866142
0
LINE
8
User.Drawings
6
CONTINUOUS
10
1.4375704330708661
20
-0.7751433070866142
11
1.4353207086614173
21
-0.7818924409448819
0
LINE
8
User.Drawings
6
CONTINUOUS
10
1.4353207086614173
20
-0.7818924409448819
11
1.408324094488189
21
-0.8088890551181103
0
LINE
8
User.Drawings
6
CONTINUOUS
10
1.408324094488189
20
-0.8088890551181103
11
1.4375704330708661
21
-0.8088890551181103
0
LINE
8
User.Drawings
6
CONTINUOUS
10
1.453318464566929
20
-0.7616449606299213
11
1.4848145275590552
21
-0.7616449606299213
0
LINE
8
User.Drawings
6
CONTINUOUS
10
1.4848145275590552
20
-0.7616449606299213
11
1.4645670472440944
21
-0.8088890551181103
0
LINE
8
User.Drawings
6
CONTINUOUS
10
1.5568055511811023
20
-0.8066393700787401
11
1.5523061023622047
21
-0.8088890551181103
0
LINE
8
User.Drawings
6
CONTINUOUS
10
1.5523061023622047
20
-0.8088890551181103
11
1.5433072440944882
21
-0.8088890551181103
0
LINE
8
User.Drawings
6
CONTINUOUS
10
1.5433072440944882
20
-0.8088890551181103
11
1.5388077952755905
21
-0.8066393700787401
0
LINE
8
User.Drawings
6
CONTINUOUS
10
1.5388077952755905
20
-0.8066393700787401
11
1.5365580708661417
21
-0.8021399212598425
0
LINE
8
User.Drawings
6
CONTINUOUS
10
1.5365580708661417
20
-0.8021399212598425
11
1.5365580708661417
21
-0.7841421653543307
0
LINE
8
User.Drawings
6
CONTINUOUS
10
1.5365580708661417
20
-0.7841421653543307
11
1.5388077952755905
21
-0.779642716535433
0
LINE
8
User.Drawings
6
CONTINUOUS
10
1.5388077952755905
20
-0.779642716535433
11
1.5433072440944882
21
-0.7773929921259842
0
LINE
8
User.Drawings
6
CONTINUOUS
10
1.5433072440944882
20
-0.7773929921259842
11
1.5523061023622047
21
-0.7773929921259842
0
LINE
8
User.Drawings
6
CONTINUOUS
10
1.5523061023622047
20
-0.7773929921259842
11
1.5568055511811023
21
-0.779642716535433
0
LINE
8
User.Drawings
6
CONTINUOUS
10
1.5568055511811023
20
-0.779642716535433
11
1.5590552755905511
21
-0.7841421653543307
0
LINE
8
User.Drawings
6
CONTINUOUS
10
1.5590552755905511
20
-0.7841421653543307
11
1.5590552755905511
21
-0.7886416141732283
0
LINE
8
User.Drawings
6
CONTINUOUS
10
1.5590552755905511
20
-0.7886416141732283
11
1.5365580708661417
21
-0.7931410236220472
0
LINE
8
User.Drawings
6
CONTINUOUS
10
1.579302716535433
20
-0.7773929921259842
11
1.579302716535433
21
-0.8088890551181103
0
LINE
8
User.Drawings
6
CONTINUOUS
10
1.579302716535433
20
-0.7818924409448819
11
1.5815524409448818
21
-0.779642716535433
0
LINE
8
User.Drawings
6
CONTINUOUS
10
1.5815524409448818
20
-0.779642716535433
11
1.5860518503937007
21
-0.7773929921259842
0
LINE
8
User.Drawings
6
CONTINUOUS
10
1.5860518503937007
20
-0.7773929921259842
11
1.5928010236220471
21
-0.7773929921259842
0
LINE
8
User.Drawings
6
CONTINUOUS
10
1.5928010236220471
20
-0.7773929921259842
11
1.5973004724409448
21
-0.779642716535433
0
LINE
8
User.Drawings
6
CONTINUOUS
10
1.5973004724409448
20
-0.779642716535433
11
1.5995501968503936
21
-0.7841421653543307
0
LINE
8
User.Drawings
6
CONTINUOUS
10
1.5995501968503936
20
-0.7841421653543307
11
1.5995501968503936
21
-0.8088890551181103
0
LINE
8
User.Drawings
6
CONTINUOUS
10
1.6175479133858268
20
-0.7773929921259842
11
1.6287964960629921
21
-0.8088890551181103
0
LINE
8
User.Drawings
6
CONTINUOUS
10
1.6287964960629921
20
-0.8088890551181103
11
1.6400451181102362
21
-0.7773929921259842
0
LINE
8
User.Drawings
6
CONTINUOUS
10
1.6760406299212598
20
-0.8066393700787401
11
1.6715411811023622
21
-0.8088890551181103
0
LINE
8
User.Drawings
6
CONTINUOUS
10
1.6715411811023622
20
-0.8088890551181103
11
1.6625423228346456
21
-0.8088890551181103
0
LINE
8
User.Drawings
6
CONTINUOUS
10
1.6625423228346456
20
-0.8088890551181103
11
1.658042874015748
21
-0.8066393700787401
0
LINE
8
User.Drawings
6
CONTINUOUS
10
1.658042874015748
20
-0.8066393700787401
11
1.6557931496062992
21
-0.8021399212598425
0
LINE
8
User.Drawings
6
CONTINUOUS
10
1.6557931496062992
20
-0.8021399212598425
11
1.6557931496062992
21
-0.7841421653543307
0
LINE
8
User.Drawings
6
CONTINUOUS
10
1.6557931496062992
20
-0.7841421653543307
11
1.658042874015748
21
-0.779642716535433
0
LINE
8
User.Drawings
6
CONTINUOUS
10
1.658042874015748
20
-0.779642716535433
11
1.6625423228346456
21
-0.7773929921259842
0
LINE
8
User.Drawings
6
CONTINUOUS
10
1.6625423228346456
20
-0.7773929921259842
11
1.6715411811023622
21
-0.7773929921259842
0
LINE
8
User.Drawings
6
CONTINUOUS
10
1.6715411811023622
20
-0.7773929921259842
11
1.6760406299212598
21
-0.779642716535433
0
LINE
8
User.Drawings
6
CONTINUOUS
10
1.6760406299212598
20
-0.779642716535433
11
1.6782903543307086
21
-0.7841421653543307
0
LINE
8
User.Drawings
6
CONTINUOUS
10
1.6782903543307086
20
-0.7841421653543307
11
1.6782903543307086
21
-0.7886416141732283
0
LINE
8
User.Drawings
6
CONTINUOUS
10
1.6782903543307086
20
-0.7886416141732283
11
1.6557931496062992
21
-0.7931410236220472
0
LINE
8
User.Drawings
6
CONTINUOUS
10
1.7052869291338582
20
-0.8088890551181103
11
1.7007875196850393
21
-0.8066393700787401
0
LINE
8
User.Drawings
6
CONTINUOUS
10
1.7007875196850393
20
-0.8066393700787401
11
1.6985377952755905
21
-0.8021399212598425
0
LINE
8
User.Drawings
6
CONTINUOUS
10
1.6985377952755905
20
-0.8021399212598425
11
1.6985377952755905
21
-0.7616449606299213
0
LINE
8
User.Drawings
6
CONTINUOUS
10
1.7300338188976379
20
-0.8088890551181103
11
1.7255344094488188
21
-0.8066393700787401
0
LINE
8
User.Drawings
6
CONTINUOUS
10
1.7255344094488188
20
-0.8066393700787401
11
1.7232846850393699
21
-0.8043896456692913
0
LINE
8
User.Drawings
6
CONTINUOUS
10
1.7232846850393699
20
-0.8043896456692913
11
1.7210349606299211
21
-0.7998901968503936
0
LINE
8
User.Drawings
6
CONTINUOUS
10
1.7210349606299211
20
-0.7998901968503936
11
1.7210349606299211
21
-0.7863918897637795
0
LINE
8
User.Drawings
6
CONTINUOUS
10
1.7210349606299211
20
-0.7863918897637795
11
1.7232846850393699
21
-0.7818924409448819
0
LINE
8
User.Drawings
6
CONTINUOUS
10
1.7232846850393699
20
-0.7818924409448819
11
1.7255344094488188
21
-0.779642716535433
0
LINE
8
User.Drawings
6
CONTINUOUS
10
1.7255344094488188
20
-0.779642716535433
11
1.7300338188976379
21
-0.7773929921259842
0
LINE
8
User.Drawings
6
CONTINUOUS
10
1.7300338188976379
20
-0.7773929921259842
11
1.7367829921259843
21
-0.7773929921259842
0
LINE
8
User.Drawings
6
CONTINUOUS
10
1.7367829921259843
20
-0.7773929921259842
11
1.7412824409448819
21
-0.779642716535433
0
LINE
8
User.Drawings
6
CONTINUOUS
10
1.7412824409448819
20
-0.779642716535433
11
1.7435321653543308
21
-0.7818924409448819
0
LINE
8
User.Drawings
6
CONTINUOUS
10
1.7435321653543308
20
-0.7818924409448819
11
1.7457818503937008
21
-0.7863918897637795
0
LINE
8
User.Drawings
6
CONTINUOUS
10
1.7457818503937008
20
-0.7863918897637795
11
1.7457818503937008
21
-0.7998901968503936
0
LINE
8
User.Drawings
6
CONTINUOUS
10
1.7457818503937008
20
-0.7998901968503936
11
1.7435321653543308
21
-0.8043896456692913
0
LINE
8
User.Drawings
6
CONTINUOUS
10
1.7435321653543308
20
-0.8043896456692913
11
1.7412824409448819
21
-0.8066393700787401
0
LINE
8
User.Drawings
6
CONTINUOUS
10
1.7412824409448819
20
-0.8066393700787401
11
1.7367829921259843
21
-0.8088890551181103
0
LINE
8
User.Drawings
6
CONTINUOUS
10
1.7367829921259843
20
-0.8088890551181103
11
1.7300338188976379
21
-0.8088890551181103
0
LINE
8
User.Drawings
6
CONTINUOUS
10
1.7660293307086614
20
-0.7773929921259842
11
1.7660293307086614
21
-0.8246370866141732
0
LINE
8
User.Drawings
6
CONTINUOUS
10
1.7660293307086614
20
-0.779642716535433
11
1.770528779527559
21
-0.7773929921259842
0
LINE
8
User.Drawings
6
CONTINUOUS
10
1.770528779527559
20
-0.7773929921259842
11
1.7795276377952756
21
-0.7773929921259842
0
LINE
8
User.Drawings
6
CONTINUOUS
10
1.7795276377952756
20
-0.7773929921259842
11
1.7840270866141732
21
-0.779642716535433
0
LINE
8
User.Drawings
6
CONTINUOUS
10
1.7840270866141732
20
-0.779642716535433
11
1.786276811023622
21
-0.7818924409448819
0
LINE
8
User.Drawings
6
CONTINUOUS
10
1.786276811023622
20
-0.7818924409448819
11
1.7885264960629921
21
-0.7863918897637795
0
LINE
8
User.Drawings
6
CONTINUOUS
10
1.7885264960629921
20
-0.7863918897637795
11
1.7885264960629921
21
-0.7998901968503936
0
LINE
8
User.Drawings
6
CONTINUOUS
10
1.7885264960629921
20
-0.7998901968503936
11
1.786276811023622
21
-0.8043896456692913
0
LINE
8
User.Drawings
6
CONTINUOUS
10
1.786276811023622
20
-0.8043896456692913
11
1.7840270866141732
21
-0.8066393700787401
0
LINE
8
User.Drawings
6
CONTINUOUS
10
1.7840270866141732
20
-0.8066393700787401
11
1.7795276377952756
21
-0.8088890551181103
0
LINE
8
User.Drawings
6
CONTINUOUS
10
1.7795276377952756
20
-0.8088890551181103
11
1.770528779527559
21
-0.8088890551181103
0
LINE
8
User.Drawings
6
CONTINUOUS
10
1.770528779527559
20
-0.8088890551181103
11
1.7660293307086614
21
-0.8066393700787401
0
LINE
8
User.Drawings
6
CONTINUOUS
10
1.8267717322834645
20
-0.8066393700787401
11
1.8222722834645668
21
-0.8088890551181103
0
LINE
8
User.Drawings
6
CONTINUOUS
10
1.8222722834645668
20
-0.8088890551181103
11
1.8132734251968503
21
-0.8088890551181103
0
LINE
8
User.Drawings
6
CONTINUOUS
10
1.8132734251968503
20
-0.8088890551181103
11
1.8087739763779527
21
-0.8066393700787401
0
LINE
8
User.Drawings
6
CONTINUOUS
10
1.8087739763779527
20
-0.8066393700787401
11
1.8065242519685039
21
-0.8021399212598425
0
LINE
8
User.Drawings
6
CONTINUOUS
10
1.8065242519685039
20
-0.8021399212598425
11
1.8065242519685039
21
-0.7841421653543307
0
LINE
8
User.Drawings
6
CONTINUOUS
10
1.8065242519685039
20
-0.7841421653543307
11
1.8087739763779527
21
-0.779642716535433
0
LINE
8
User.Drawings
6
CONTINUOUS
10
1.8087739763779527
20
-0.779642716535433
11
1.8132734251968503
21
-0.7773929921259842
0
LINE
8
User.Drawings
6
CONTINUOUS
10
1.8132734251968503
20
-0.7773929921259842
11
1.8222722834645668
21
-0.7773929921259842
0
LINE
8
User.Drawings
6
CONTINUOUS
10
1.8222722834645668
20
-0.7773929921259842
11
1.8267717322834645
21
-0.779642716535433
0
LINE
8
User.Drawings
6
CONTINUOUS
10
1.8267717322834645
20
-0.779642716535433
11
1.8290214566929133
21
-0.7841421653543307
0
LINE
8
User.Drawings
6
CONTINUOUS
10
1.8290214566929133
20
-0.7841421653543307
11
1.8290214566929133
21
-0.7886416141732283
0
LINE
8
User.Drawings
6
CONTINUOUS
10
1.8290214566929133
20
-0.7886416141732283
11
1.8065242519685039
21
-0.7931410236220472
0
LINE
8
User.Drawings
6
CONTINUOUS
10
1.8852644094488189
20
-0.7908913385826771
11
1.9212599212598425
21
-0.7908913385826771
0
LINE
8
User.Drawings
6
CONTINUOUS
10
1.9752531496062993
20
-0.7773929921259842
11
1.9865017322834646
21
-0.8088890551181103
0
LINE
8
User.Drawings
6
CONTINUOUS
10
1.9865017322834646
20
-0.8088890551181103
11
1.9977503543307087
21
-0.7773929921259842
0
LINE
8
User.Drawings
6
CONTINUOUS
10
2.0337458661417323
20
-0.8066393700787401
11
2.0292464173228346
21
-0.8088890551181103
0
LINE
8
User.Drawings
6
CONTINUOUS
10
2.0292464173228346
20
-0.8088890551181103
11
2.0202475590551181
21
-0.8088890551181103
0
LINE
8
User.Drawings
6
CONTINUOUS
10
2.0202475590551181
20
-0.8088890551181103
11
2.0157481102362205
21
-0.8066393700787401
0
LINE
8
User.Drawings
6
CONTINUOUS
10
2.0157481102362205
20
-0.8066393700787401
11
2.0134983858267717
21
-0.8021399212598425
0
LINE
8
User.Drawings
6
CONTINUOUS
10
2.0134983858267717
20
-0.8021399212598425
11
2.0134983858267717
21
-0.7841421653543307
0
LINE
8
User.Drawings
6
CONTINUOUS
10
2.0134983858267717
20
-0.7841421653543307
11
2.0157481102362205
21
-0.779642716535433
0
LINE
8
User.Drawings
6
CONTINUOUS
10
2.0157481102362205
20
-0.779642716535433
11
2.0202475590551181
21
-0.7773929921259842
0
LINE
8
User.Drawings
6
CONTINUOUS
10
2.0202475590551181
20
-0.7773929921259842
11
2.0292464173228346
21
-0.7773929921259842
0
LINE
8
User.Drawings
6
CONTINUOUS
10
2.0292464173228346
20
-0.7773929921259842
11
2.0337458661417323
21
-0.779642716535433
0
LINE
8
User.Drawings
6
CONTINUOUS
10
2.0337458661417323
20
-0.779642716535433
11
2.0359955905511811
21
-0.7841421653543307
0
LINE
8
User.Drawings
6
CONTINUOUS
10
2.0359955905511811
20
-0.7841421653543307
11
2.0359955905511811
21
-0.7886416141732283
0
LINE
8
User.Drawings
6
CONTINUOUS
10
2.0359955905511811
20
-0.7886416141732283
11
2.0134983858267717
21
-0.7931410236220472
0
LINE
8
User.Drawings
6
CONTINUOUS
10
2.0562430314960629
20
-0.8088890551181103
11
2.0562430314960629
21
-0.7773929921259842
0
LINE
8
User.Drawings
6
CONTINUOUS
10
2.0562430314960629
20
-0.7863918897637795
11
2.0584927559055117
21
-0.7818924409448819
0
LINE
8
User.Drawings
6
CONTINUOUS
10
2.0584927559055117
20
-0.7818924409448819
11
2.0607424803149605
21
-0.779642716535433
0
LINE
8
User.Drawings
6
CONTINUOUS
10
2.0607424803149605
20
-0.779642716535433
11
2.0652418897637794
21
-0.7773929921259842
0
LINE
8
User.Drawings
6
CONTINUOUS
10
2.0652418897637794
20
-0.7773929921259842
11
2.0697413385826771
21
-0.7773929921259842
0
LINE
8
User.Drawings
6
CONTINUOUS
10
2.08548937007874
20
-0.8088890551181103
11
2.08548937007874
21
-0.7773929921259842
0
LINE
8
User.Drawings
6
CONTINUOUS
10
2.08548937007874
20
-0.7616449606299213
11
2.0832396456692912
21
-0.7638946850393701
0
LINE
8
User.Drawings
6
CONTINUOUS
10
2.0832396456692912
20
-0.7638946850393701
11
2.08548937007874
21
-0.7661444094488189
0
LINE
8
User.Drawings
6
CONTINUOUS
10
2.08548937007874
20
-0.7661444094488189
11
2.0877390944881888
21
-0.7638946850393701
0
LINE
8
User.Drawings
6
CONTINUOUS
10
2.0877390944881888
20
-0.7638946850393701
11
2.08548937007874
21
-0.7616449606299213
0
LINE
8
User.Drawings
6
CONTINUOUS
10
2.08548937007874
20
-0.7616449606299213
11
2.08548937007874
21
-0.7661444094488189
0
LINE
8
User.Drawings
6
CONTINUOUS
10
2.101237401574803
20
-0.7773929921259842
11
2.1192351574803148
21
-0.7773929921259842
0
LINE
8
User.Drawings
6
CONTINUOUS
10
2.1079865748031494
20
-0.8088890551181103
11
2.1079865748031494
21
-0.7683941338582677
0
LINE
8
User.Drawings
6
CONTINUOUS
10
2.1079865748031494
20
-0.7683941338582677
11
2.1102362992125983
21
-0.7638946850393701
0
LINE
8
User.Drawings
6
CONTINUOUS
10
2.1102362992125983
20
-0.7638946850393701
11
2.1147357086614171
21
-0.7616449606299213
0
LINE
8
User.Drawings
6
CONTINUOUS
10
2.1147357086614171
20
-0.7616449606299213
11
2.1192351574803148
21
-0.7616449606299213
0
LINE
8
User.Drawings
6
CONTINUOUS
10
2.1304837401574801
20
-0.7773929921259842
11
2.1417323228346454
21
-0.8088890551181103
0
LINE
8
User.Drawings
6
CONTINUOUS
10
2.1529809448818895
20
-0.7773929921259842
11
2.1417323228346454
21
-0.8088890551181103
0
LINE
8
User.Drawings
6
CONTINUOUS
10
2.1417323228346454
20
-0.8088890551181103
11
2.1372329133858265
21
-0.8201376771653544
0
LINE
8
User.Drawings
6
CONTINUOUS
10
2.1372329133858265
20
-0.8201376771653544
11
2.1349831889763777
21
-0.8223874015748032
0
LINE
8
User.Drawings
6
CONTINUOUS
10
2.1349831889763777
20
-0.8223874015748032
11
2.1304837401574801
21
-0.8246370866141732
0
LINE
8
User.Drawings
6
CONTINUOUS
10
2.2249719685039371
20
-0.8066393700787401
11
2.2204725196850394
21
-0.8088890551181103
0
LINE
8
User.Drawings
6
CONTINUOUS
10
2.2204725196850394
20
-0.8088890551181103
11
2.2114736614173229
21
-0.8088890551181103
0
LINE
8
User.Drawings
6
CONTINUOUS
10
2.2114736614173229
20
-0.8088890551181103
11
2.2069742125984253
21
-0.8066393700787401
0
LINE
8
User.Drawings
6
CONTINUOUS
10
2.2069742125984253
20
-0.8066393700787401
11
2.2047244881889765
21
-0.8021399212598425
0
LINE
8
User.Drawings
6
CONTINUOUS
10
2.2047244881889765
20
-0.8021399212598425
11
2.2047244881889765
21
-0.7841421653543307
0
LINE
8
User.Drawings
6
CONTINUOUS
10
2.2047244881889765
20
-0.7841421653543307
11
2.2069742125984253
21
-0.779642716535433
0
LINE
8
User.Drawings
6
CONTINUOUS
10
2.2069742125984253
20
-0.779642716535433
11
2.2114736614173229
21
-0.7773929921259842
0
LINE
8
User.Drawings
6
CONTINUOUS
10
2.2114736614173229
20
-0.7773929921259842
11
2.2204725196850394
21
-0.7773929921259842
0
LINE
8
User.Drawings
6
CONTINUOUS
10
2.2204725196850394
20
-0.7773929921259842
11
2.2249719685039371
21
-0.779642716535433
0
LINE
8
User.Drawings
6
CONTINUOUS
10
2.2249719685039371
20
-0.779642716535433
11
2.2272216929133859
21
-0.7841421653543307
0
LINE
8
User.Drawings
6
CONTINUOUS
10
2.2272216929133859
20
-0.7841421653543307
11
2.2272216929133859
21
-0.7886416141732283
0
LINE
8
User.Drawings
6
CONTINUOUS
10
2.2272216929133859
20
-0.7886416141732283
11
2.2047244881889765
21
-0.7931410236220472
0
LINE
8
User.Drawings
6
CONTINUOUS
10
2.2429696850393701
20
-0.8088890551181103
11
2.2677166141732283
21
-0.7773929921259842
0
LINE
8
User.Drawings
6
CONTINUOUS
10
2.2429696850393701
20
-0.7773929921259842
11
2.2677166141732283
21
-0.8088890551181103
0
LINE
8
User.Drawings
6
CONTINUOUS
10
2.3059618503937007
20
-0.8088890551181103
11
2.3059618503937007
21
-0.7841421653543307
0
LINE
8
User.Drawings
6
CONTINUOUS
10
2.3059618503937007
20
-0.7841421653543307
11
2.3037121259842519
21
-0.779642716535433
0
LINE
8
User.Drawings
6
CONTINUOUS
10
2.3037121259842519
20
-0.779642716535433
11
2.2992126771653543
21
-0.7773929921259842
0
LINE
8
User.Drawings
6
CONTINUOUS
10
2.2992126771653543
20
-0.7773929921259842
11
2.2902138188976378
21
-0.7773929921259842
0
LINE
8
User.Drawings
6
CONTINUOUS
10
2.2902138188976378
20
-0.7773929921259842
11
2.2857143700787401
21
-0.779642716535433
0
LINE
8
User.Drawings
6
CONTINUOUS
10
2.3059618503937007
20
-0.8066393700787401
11
2.3014624015748031
21
-0.8088890551181103
0
LINE
8
User.Drawings
6
CONTINUOUS
10
2.3014624015748031
20
-0.8088890551181103
11
2.2902138188976378
21
-0.8088890551181103
0
LINE
8
User.Drawings
6
CONTINUOUS
10
2.2902138188976378
20
-0.8088890551181103
11
2.2857143700787401
21
-0.8066393700787401
0
LINE
8
User.Drawings
6
CONTINUOUS
10
2.2857143700787401
20
-0.8066393700787401
11
2.2834646456692913
21
-0.8021399212598425
0
LINE
8
User.Drawings
6
CONTINUOUS
10
2.2834646456692913
20
-0.8021399212598425
11
2.2834646456692913
21
-0.7976404724409448
0
LINE
8
User.Drawings
6
CONTINUOUS
10
2.2834646456692913
20
-0.7976404724409448
11
2.2857143700787401
21
-0.7931410236220472
0
LINE
8
User.Drawings
6
CONTINUOUS
10
2.2857143700787401
20
-0.7931410236220472
11
2.2902138188976378
21
-0.7908913385826771
0
LINE
8
User.Drawings
6
CONTINUOUS
10
2.2902138188976378
20
-0.7908913385826771
11
2.3014624015748031
21
-0.7908913385826771
0
LINE
8
User.Drawings
6
CONTINUOUS
10
2.3014624015748031
20
-0.7908913385826771
11
2.3059618503937007
21
-0.7886416141732283
0
LINE
8
User.Drawings
6
CONTINUOUS
10
2.348706496062992
20
-0.8066393700787401
11
2.3442070472440943
21
-0.8088890551181103
0
LINE
8
User.Drawings
6
CONTINUOUS
10
2.3442070472440943
20
-0.8088890551181103
11
2.3352081496062991
21
-0.8088890551181103
0
LINE
8
User.Drawings
6
CONTINUOUS
10
2.3352081496062991
20
-0.8088890551181103
11
2.3307087401574802
21
-0.8066393700787401
0
LINE
8
User.Drawings
6
CONTINUOUS
10
2.3307087401574802
20
-0.8066393700787401
11
2.3284590157480314
21
-0.8043896456692913
0
LINE
8
User.Drawings
6
CONTINUOUS
10
2.3284590157480314
20
-0.8043896456692913
11
2.3262092913385826
21
-0.7998901968503936
0
LINE
8
User.Drawings
6
CONTINUOUS
10
2.3262092913385826
20
-0.7998901968503936
11
2.3262092913385826
21
-0.7863918897637795
0
LINE
8
User.Drawings
6
CONTINUOUS
10
2.3262092913385826
20
-0.7863918897637795
11
2.3284590157480314
21
-0.7818924409448819
0
LINE
8
User.Drawings
6
CONTINUOUS
10
2.3284590157480314
20
-0.7818924409448819
11
2.3307087401574802
21
-0.779642716535433
0
LINE
8
User.Drawings
6
CONTINUOUS
10
2.3307087401574802
20
-0.779642716535433
11
2.3352081496062991
21
-0.7773929921259842
0
LINE
8
User.Drawings
6
CONTINUOUS
10
2.3352081496062991
20
-0.7773929921259842
11
2.3442070472440943
21
-0.7773929921259842
0
LINE
8
User.Drawings
6
CONTINUOUS
10
2.3442070472440943
20
-0.7773929921259842
11
2.348706496062992
21
-0.779642716535433
0
LINE
8
User.Drawings
6
CONTINUOUS
10
2.3622047637795274
20
-0.7773929921259842
11
2.3802025196850392
21
-0.7773929921259842
0
LINE
8
User.Drawings
6
CONTINUOUS
10
2.3689539370078738
20
-0.7616449606299213
11
2.3689539370078738
21
-0.8021399212598425
0
LINE
8
User.Drawings
6
CONTINUOUS
10
2.3689539370078738
20
-0.8021399212598425
11
2.3712036614173226
21
-0.8066393700787401
0
LINE
8
User.Drawings
6
CONTINUOUS
10
2.3712036614173226
20
-0.8066393700787401
11
2.3757030708661415
21
-0.8088890551181103
0
LINE
8
User.Drawings
6
CONTINUOUS
10
2.3757030708661415
20
-0.8088890551181103
11
2.3802025196850392
21
-0.8088890551181103
0
LINE
8
User.Drawings
6
CONTINUOUS
10
2.4319460629921261
20
-0.8088890551181103
11
2.4319460629921261
21
-0.7773929921259842
0
LINE
8
User.Drawings
6
CONTINUOUS
10
2.4319460629921261
20
-0.7863918897637795
11
2.4341957874015749
21
-0.7818924409448819
0
LINE
8
User.Drawings
6
CONTINUOUS
10
2.4341957874015749
20
-0.7818924409448819
11
2.4364455118110238
21
-0.779642716535433
0
LINE
8
User.Drawings
6
CONTINUOUS
10
2.4364455118110238
20
-0.779642716535433
11
2.4409449212598426
21
-0.7773929921259842
0
LINE
8
User.Drawings
6
CONTINUOUS
10
2.4409449212598426
20
-0.7773929921259842
11
2.4454443700787403
21
-0.7773929921259842
0
LINE
8
User.Drawings
6
CONTINUOUS
10
2.479190157480315
20
-0.8066393700787401
11
2.4746907086614174
21
-0.8088890551181103
0
LINE
8
User.Drawings
6
CONTINUOUS
10
2.4746907086614174
20
-0.8088890551181103
11
2.4656918503937009
21
-0.8088890551181103
0
LINE
8
User.Drawings
6
CONTINUOUS
10
2.4656918503937009
20
-0.8088890551181103
11
2.4611924015748032
21
-0.8066393700787401
0
LINE
8
User.Drawings
6
CONTINUOUS
10
2.4611924015748032
20
-0.8066393700787401
11
2.4589426771653544
21
-0.8021399212598425
0
LINE
8
User.Drawings
6
CONTINUOUS
10
2.4589426771653544
20
-0.8021399212598425
11
2.4589426771653544
21
-0.7841421653543307
0
LINE
8
User.Drawings
6
CONTINUOUS
10
2.4589426771653544
20
-0.7841421653543307
11
2.4611924015748032
21
-0.779642716535433
0
LINE
8
User.Drawings
6
CONTINUOUS
10
2.4611924015748032
20
-0.779642716535433
11
2.4656918503937009
21
-0.7773929921259842
0
LINE
8
User.Drawings
6
CONTINUOUS
10
2.4656918503937009
20
-0.7773929921259842
11
2.4746907086614174
21
-0.7773929921259842
0
LINE
8
User.Drawings
6
CONTINUOUS
10
2.4746907086614174
20
-0.7773929921259842
11
2.479190157480315
21
-0.779642716535433
0
LINE
8
User.Drawings
6
CONTINUOUS
10
2.479190157480315
20
-0.779642716535433
11
2.4814398818897638
21
-0.7841421653543307
0
LINE
8
User.Drawings
6
CONTINUOUS
10
2.4814398818897638
20
-0.7841421653543307
11
2.4814398818897638
21
-0.7886416141732283
0
LINE
8
User.Drawings
6
CONTINUOUS
10
2.4814398818897638
20
-0.7886416141732283
11
2.4589426771653544
21
-0.7931410236220472
0
LINE
8
User.Drawings
6
CONTINUOUS
10
2.497187874015748
20
-0.7773929921259842
11
2.5084364566929134
21
-0.8088890551181103
0
LINE
8
User.Drawings
6
CONTINUOUS
10
2.5084364566929134
20
-0.8088890551181103
11
2.5196850787401575
21
-0.7773929921259842
0
LINE
8
User.Drawings
6
CONTINUOUS
10
2.571428622047244
20
-0.7593952755905512
11
2.5309336614173228
21
-0.8201376771653544
0
LINE
8
User.Drawings
6
CONTINUOUS
10
2.5871766535433069
20
-0.8088890551181103
11
2.5871766535433069
21
-0.7616449606299213
0
LINE
8
User.Drawings
6
CONTINUOUS
10
2.6074241338582675
20
-0.8088890551181103
11
2.6074241338582675
21
-0.7841421653543307
0
LINE
8
User.Drawings
6
CONTINUOUS
10
2.6074241338582675
20
-0.7841421653543307
11
2.6051744094488187
21
-0.779642716535433
0
LINE
8
User.Drawings
6
CONTINUOUS
10
2.6051744094488187
20
-0.779642716535433
11
2.6006749606299211
21
-0.7773929921259842
0
LINE
8
User.Drawings
6
CONTINUOUS
10
2.6006749606299211
20
-0.7773929921259842
11
2.5939257874015746
21
-0.7773929921259842
0
LINE
8
User.Drawings
6
CONTINUOUS
10
2.5939257874015746
20
-0.7773929921259842
11
2.5894263779527558
21
-0.779642716535433
0
LINE
8
User.Drawings
6
CONTINUOUS
10
2.5894263779527558
20
-0.779642716535433
11
2.5871766535433069
21
-0.7818924409448819
0
LINE
8
User.Drawings
6
CONTINUOUS
10
2.64791905511811
20
-0.8066393700787401
11
2.6434196062992124
21
-0.8088890551181103
0
LINE
8
User.Drawings
6
CONTINUOUS
10
2.6434196062992124
20
-0.8088890551181103
11
2.6344207480314958
21
-0.8088890551181103
0
LINE
8
User.Drawings
6
CONTINUOUS
10
2.6344207480314958
20
-0.8088890551181103
11
2.6299212992125982
21
-0.8066393700787401
0
LINE
8
User.Drawings
6
CONTINUOUS
10
2.6299212992125982
20
-0.8066393700787401
11
2.6276715748031494
21
-0.8021399212598425
0
LINE
8
User.Drawings
6
CONTINUOUS
10
2.6276715748031494
20
-0.8021399212598425
11
2.6276715748031494
21
-0.7841421653543307
0
LINE
8
User.Drawings
6
CONTINUOUS
10
2.6276715748031494
20
-0.7841421653543307
11
2.6299212992125982
21
-0.779642716535433
0
LINE
8
User.Drawings
6
CONTINUOUS
10
2.6299212992125982
20
-0.779642716535433
11
2.6344207480314958
21
-0.7773929921259842
0
LINE
8
User.Drawings
6
CONTINUOUS
10
2.6344207480314958
20
-0.7773929921259842
11
2.6434196062992124
21
-0.7773929921259842
0
LINE
8
User.Drawings
6
CONTINUOUS
10
2.6434196062992124
20
-0.7773929921259842
11
2.64791905511811
21
-0.779642716535433
0
LINE
8
User.Drawings
6
CONTINUOUS
10
2.64791905511811
20
-0.779642716535433
11
2.6501687795275588
21
-0.7841421653543307
0
LINE
8
User.Drawings
6
CONTINUOUS
10
2.6501687795275588
20
-0.7841421653543307
11
2.6501687795275588
21
-0.7886416141732283
0
LINE
8
User.Drawings
6
CONTINUOUS
10
2.6501687795275588
20
-0.7886416141732283
11
2.6276715748031494
21
-0.7931410236220472
0
LINE
8
User.Drawings
6
CONTINUOUS
10
2.6906637007874017
20
-0.8088890551181103
11
2.6906637007874017
21
-0.7841421653543307
0
LINE
8
User.Drawings
6
CONTINUOUS
10
2.6906637007874017
20
-0.7841421653543307
11
2.6884139763779529
21
-0.779642716535433
0
LINE
8
User.Drawings
6
CONTINUOUS
10
2.6884139763779529
20
-0.779642716535433
11
2.6839145275590552
21
-0.7773929921259842
0
LINE
8
User.Drawings
6
CONTINUOUS
10
2.6839145275590552
20
-0.7773929921259842
11
2.6749156692913387
21
-0.7773929921259842
0
LINE
8
User.Drawings
6
CONTINUOUS
10
2.6749156692913387
20
-0.7773929921259842
11
2.6704162204724411
21
-0.779642716535433
0
LINE
8
User.Drawings
6
CONTINUOUS
10
2.6906637007874017
20
-0.8066393700787401
11
2.6861642519685041
21
-0.8088890551181103
0
LINE
8
User.Drawings
6
CONTINUOUS
10
2.6861642519685041
20
-0.8088890551181103
11
2.6749156692913387
21
-0.8088890551181103
0
LINE
8
User.Drawings
6
CONTINUOUS
10
2.6749156692913387
20
-0.8088890551181103
11
2.6704162204724411
21
-0.8066393700787401
0
LINE
8
User.Drawings
6
CONTINUOUS
10
2.6704162204724411
20
-0.8066393700787401
11
2.6681664960629923
21
-0.8021399212598425
0
LINE
8
User.Drawings
6
CONTINUOUS
10
2.6681664960629923
20
-0.8021399212598425
11
2.6681664960629923
21
-0.7976404724409448
0
LINE
8
User.Drawings
6
CONTINUOUS
10
2.6681664960629923
20
-0.7976404724409448
11
2.6704162204724411
21
-0.7931410236220472
0
LINE
8
User.Drawings
6
CONTINUOUS
10
2.6704162204724411
20
-0.7931410236220472
11
2.6749156692913387
21
-0.7908913385826771
0
LINE
8
User.Drawings
6
CONTINUOUS
10
2.6749156692913387
20
-0.7908913385826771
11
2.6861642519685041
21
-0.7908913385826771
0
LINE
8
User.Drawings
6
CONTINUOUS
10
2.6861642519685041
20
-0.7908913385826771
11
2.6906637007874017
21
-0.7886416141732283
0
LINE
8
User.Drawings
6
CONTINUOUS
10
2.7334083464566929
20
-0.8088890551181103
11
2.7334083464566929
21
-0.7616449606299213
0
LINE
8
User.Drawings
6
CONTINUOUS
10
2.7334083464566929
20
-0.8066393700787401
11
2.7289088976377953
21
-0.8088890551181103
0
LINE
8
User.Drawings
6
CONTINUOUS
10
2.7289088976377953
20
-0.8088890551181103
11
2.71991
21
-0.8088890551181103
0
LINE
8
User.Drawings
6
CONTINUOUS
10
2.71991
20
-0.8088890551181103
11
2.7154105905511812
21
-0.8066393700787401
0
LINE
8
User.Drawings
6
CONTINUOUS
10
2.7154105905511812
20
-0.8066393700787401
11
2.7131608661417324
21
-0.8043896456692913
0
LINE
8
User.Drawings
6
CONTINUOUS
10
2.7131608661417324
20
-0.8043896456692913
11
2.7109111417322835
21
-0.7998901968503936
0
LINE
8
User.Drawings
6
CONTINUOUS
10
2.7109111417322835
20
-0.7998901968503936
11
2.7109111417322835
21
-0.7863918897637795
0
LINE
8
User.Drawings
6
CONTINUOUS
10
2.7109111417322835
20
-0.7863918897637795
11
2.7131608661417324
21
-0.7818924409448819
0
LINE
8
User.Drawings
6
CONTINUOUS
10
2.7131608661417324
20
-0.7818924409448819
11
2.7154105905511812
21
-0.779642716535433
0
LINE
8
User.Drawings
6
CONTINUOUS
10
2.7154105905511812
20
-0.779642716535433
11
2.71991
21
-0.7773929921259842
0
LINE
8
User.Drawings
6
CONTINUOUS
10
2.71991
20
-0.7773929921259842
11
2.7289088976377953
21
-0.7773929921259842
0
LINE
8
User.Drawings
6
CONTINUOUS
10
2.7289088976377953
20
-0.7773929921259842
11
2.7334083464566929
21
-0.779642716535433
0
LINE
8
User.Drawings
6
CONTINUOUS
10
2.7739032677165354
20
-0.8066393700787401
11
2.7694038188976378
21
-0.8088890551181103
0
LINE
8
User.Drawings
6
CONTINUOUS
10
2.7694038188976378
20
-0.8088890551181103
11
2.7604049606299212
21
-0.8088890551181103
0
LINE
8
User.Drawings
6
CONTINUOUS
10
2.7604049606299212
20
-0.8088890551181103
11
2.7559055118110236
21
-0.8066393700787401
0
LINE
8
User.Drawings
6
CONTINUOUS
10
2.7559055118110236
20
-0.8066393700787401
11
2.7536557874015748
21
-0.8021399212598425
0
LINE
8
User.Drawings
6
CONTINUOUS
10
2.7536557874015748
20
-0.8021399212598425
11
2.7536557874015748
21
-0.7841421653543307
0
LINE
8
User.Drawings
6
CONTINUOUS
10
2.7536557874015748
20
-0.7841421653543307
11
2.7559055118110236
21
-0.779642716535433
0
LINE
8
User.Drawings
6
CONTINUOUS
10
2.7559055118110236
20
-0.779642716535433
11
2.7604049606299212
21
-0.7773929921259842
0
LINE
8
User.Drawings
6
CONTINUOUS
10
2.7604049606299212
20
-0.7773929921259842
11
2.7694038188976378
21
-0.7773929921259842
0
LINE
8
User.Drawings
6
CONTINUOUS
10
2.7694038188976378
20
-0.7773929921259842
11
2.7739032677165354
21
-0.779642716535433
0
LINE
8
User.Drawings
6
CONTINUOUS
10
2.7739032677165354
20
-0.779642716535433
11
2.7761529921259842
21
-0.7841421653543307
0
LINE
8
User.Drawings
6
CONTINUOUS
10
2.7761529921259842
20
-0.7841421653543307
11
2.7761529921259842
21
-0.7886416141732283
0
LINE
8
User.Drawings
6
CONTINUOUS
10
2.7761529921259842
20
-0.7886416141732283
11
2.7536557874015748
21
-0.7931410236220472
0
LINE
8
User.Drawings
6
CONTINUOUS
10
2.7964004330708661
20
-0.8088890551181103
11
2.7964004330708661
21
-0.7773929921259842
0
LINE
8
User.Drawings
6
CONTINUOUS
10
2.7964004330708661
20
-0.7863918897637795
11
2.7986501574803149
21
-0.7818924409448819
0
LINE
8
User.Drawings
6
CONTINUOUS
10
2.7986501574803149
20
-0.7818924409448819
11
2.8008998818897637
21
-0.779642716535433
0
LINE
8
User.Drawings
6
CONTINUOUS
10
2.8008998818897637
20
-0.779642716535433
11
2.8053992913385826
21
-0.7773929921259842
0
LINE
8
User.Drawings
6
CONTINUOUS
10
2.8053992913385826
20
-0.7773929921259842
11
2.8098987401574802
21
-0.7773929921259842
0
LINE
8
User.Drawings
6
CONTINUOUS
10
2.8616422834645667
20
-0.8088890551181103
11
2.8616422834645667
21
-0.7616449606299213
0
LINE
8
User.Drawings
6
CONTINUOUS
10
2.8616422834645667
20
-0.779642716535433
11
2.8661417322834644
21
-0.7773929921259842
0
LINE
8
User.Drawings
6
CONTINUOUS
10
2.8661417322834644
20
-0.7773929921259842
11
2.8751405905511809
21
-0.7773929921259842
0
LINE
8
User.Drawings
6
CONTINUOUS
10
2.8751405905511809
20
-0.7773929921259842
11
2.8796400393700785
21
-0.779642716535433
0
LINE
8
User.Drawings
6
CONTINUOUS
10
2.8796400393700785
20
-0.779642716535433
11
2.8818897637795273
21
-0.7818924409448819
0
LINE
8
User.Drawings
6
CONTINUOUS
10
2.8818897637795273
20
-0.7818924409448819
11
2.8841394488188974
21
-0.7863918897637795
0
LINE
8
User.Drawings
6
CONTINUOUS
10
2.8841394488188974
20
-0.7863918897637795
11
2.8841394488188974
21
-0.7998901968503936
0
LINE
8
User.Drawings
6
CONTINUOUS
10
2.8841394488188974
20
-0.7998901968503936
11
2.8818897637795273
21
-0.8043896456692913
0
LINE
8
User.Drawings
6
CONTINUOUS
10
2.8818897637795273
20
-0.8043896456692913
11
2.8796400393700785
21
-0.8066393700787401
0
LINE
8
User.Drawings
6
CONTINUOUS
10
2.8796400393700785
20
-0.8066393700787401
11
2.8751405905511809
21
-0.8088890551181103
0
LINE
8
User.Drawings
6
CONTINUOUS
10
2.8751405905511809
20
-0.8088890551181103
11
2.8661417322834644
21
-0.8088890551181103
0
LINE
8
User.Drawings
6
CONTINUOUS
10
2.8661417322834644
20
-0.8088890551181103
11
2.8616422834645667
21
-0.8066393700787401
0
LINE
8
User.Drawings
6
CONTINUOUS
10
2.9223846850393702
20
-0.8066393700787401
11
2.9178852362204726
21
-0.8088890551181103
0
LINE
8
User.Drawings
6
CONTINUOUS
10
2.9178852362204726
20
-0.8088890551181103
11
2.9088863779527556
21
-0.8088890551181103
0
LINE
8
User.Drawings
6
CONTINUOUS
10
2.9088863779527556
20
-0.8088890551181103
11
2.904386929133858
21
-0.8066393700787401
0
LINE
8
User.Drawings
6
CONTINUOUS
10
2.904386929133858
20
-0.8066393700787401
11
2.9021372047244092
21
-0.8021399212598425
0
LINE
8
User.Drawings
6
CONTINUOUS
10
2.9021372047244092
20
-0.8021399212598425
11
2.9021372047244092
21
-0.7841421653543307
0
LINE
8
User.Drawings
6
CONTINUOUS
10
2.9021372047244092
20
-0.7841421653543307
11
2.904386929133858
21
-0.779642716535433
0
LINE
8
User.Drawings
6
CONTINUOUS
10
2.904386929133858
20
-0.779642716535433
11
2.9088863779527556
21
-0.7773929921259842
0
LINE
8
User.Drawings
6
CONTINUOUS
10
2.9088863779527556
20
-0.7773929921259842
11
2.9178852362204726
21
-0.7773929921259842
0
LINE
8
User.Drawings
6
CONTINUOUS
10
2.9178852362204726
20
-0.7773929921259842
11
2.9223846850393702
21
-0.779642716535433
0
LINE
8
User.Drawings
6
CONTINUOUS
10
2.9223846850393702
20
-0.779642716535433
11
2.924634409448819
21
-0.7841421653543307
0
LINE
8
User.Drawings
6
CONTINUOUS
10
2.924634409448819
20
-0.7841421653543307
11
2.924634409448819
21
-0.7886416141732283
0
LINE
8
User.Drawings
6
CONTINUOUS
10
2.924634409448819
20
-0.7886416141732283
11
2.9021372047244092
21
-0.7931410236220472
0
LINE
8
User.Drawings
6
CONTINUOUS
10
2.9381326771653544
20
-0.7773929921259842
11
2.9561304330708662
21
-0.7773929921259842
0
LINE
8
User.Drawings
6
CONTINUOUS
10
2.9448818503937009
20
-0.8088890551181103
11
2.9448818503937009
21
-0.7683941338582677
0
LINE
8
User.Drawings
6
CONTINUOUS
10
2.9448818503937009
20
-0.7683941338582677
11
2.9471315748031497
21
-0.7638946850393701
0
LINE
8
User.Drawings
6
CONTINUOUS
10
2.9471315748031497
20
-0.7638946850393701
11
2.9516309842519686
21
-0.7616449606299213
0
LINE
8
User.Drawings
6
CONTINUOUS
10
2.9516309842519686
20
-0.7616449606299213
11
2.9561304330708662
21
-0.7616449606299213
0
LINE
8
User.Drawings
6
CONTINUOUS
10
2.9786275984251969
20
-0.8088890551181103
11
2.974128188976378
21
-0.8066393700787401
0
LINE
8
User.Drawings
6
CONTINUOUS
10
2.974128188976378
20
-0.8066393700787401
11
2.9718784645669292
21
-0.8043896456692913
0
LINE
8
User.Drawings
6
CONTINUOUS
10
2.9718784645669292
20
-0.8043896456692913
11
2.9696287401574804
21
-0.7998901968503936
0
LINE
8
User.Drawings
6
CONTINUOUS
10
2.9696287401574804
20
-0.7998901968503936
11
2.9696287401574804
21
-0.7863918897637795
0
LINE
8
User.Drawings
6
CONTINUOUS
10
2.9696287401574804
20
-0.7863918897637795
11
2.9718784645669292
21
-0.7818924409448819
0
LINE
8
User.Drawings
6
CONTINUOUS
10
2.9718784645669292
20
-0.7818924409448819
11
2.974128188976378
21
-0.779642716535433
0
LINE
8
User.Drawings
6
CONTINUOUS
10
2.974128188976378
20
-0.779642716535433
11
2.9786275984251969
21
-0.7773929921259842
0
LINE
8
User.Drawings
6
CONTINUOUS
10
2.9786275984251969
20
-0.7773929921259842
11
2.9853767716535433
21
-0.7773929921259842
0
LINE
8
User.Drawings
6
CONTINUOUS
10
2.9853767716535433
20
-0.7773929921259842
11
2.9898762204724409
21
-0.779642716535433
0
LINE
8
User.Drawings
6
CONTINUOUS
10
2.9898762204724409
20
-0.779642716535433
11
2.9921259448818898
21
-0.7818924409448819
0
LINE
8
User.Drawings
6
CONTINUOUS
10
2.9921259448818898
20
-0.7818924409448819
11
2.9943756299212598
21
-0.7863918897637795
0
LINE
8
User.Drawings
6
CONTINUOUS
10
2.9943756299212598
20
-0.7863918897637795
11
2.9943756299212598
21
-0.7998901968503936
0
LINE
8
User.Drawings
6
CONTINUOUS
10
2.9943756299212598
20
-0.7998901968503936
11
2.9921259448818898
21
-0.8043896456692913
0
LINE
8
User.Drawings
6
CONTINUOUS
10
2.9921259448818898
20
-0.8043896456692913
11
2.9898762204724409
21
-0.8066393700787401
0
LINE
8
User.Drawings
6
CONTINUOUS
10
2.9898762204724409
20
-0.8066393700787401
11
2.9853767716535433
21
-0.8088890551181103
0
LINE
8
User.Drawings
6
CONTINUOUS
10
2.9853767716535433
20
-0.8088890551181103
11
2.9786275984251969
21
-0.8088890551181103
0
LINE
8
User.Drawings
6
CONTINUOUS
10
3.0146231102362204
20
-0.8088890551181103
11
3.0146231102362204
21
-0.7773929921259842
0
LINE
8
User.Drawings
6
CONTINUOUS
10
3.0146231102362204
20
-0.7863918897637795
11
3.0168728346456692
21
-0.7818924409448819
0
LINE
8
User.Drawings
6
CONTINUOUS
10
3.0168728346456692
20
-0.7818924409448819
11
3.0191225590551181
21
-0.779642716535433
0
LINE
8
User.Drawings
6
CONTINUOUS
10
3.0191225590551181
20
-0.779642716535433
11
3.0236219685039369
21
-0.7773929921259842
0
LINE
8
User.Drawings
6
CONTINUOUS
10
3.0236219685039369
20
-0.7773929921259842
11
3.0281214173228346
21
-0.7773929921259842
0
LINE
8
User.Drawings
6
CONTINUOUS
10
3.0618672047244093
20
-0.8066393700787401
11
3.0573677559055117
21
-0.8088890551181103
0
LINE
8
User.Drawings
6
CONTINUOUS
10
3.0573677559055117
20
-0.8088890551181103
11
3.0483688976377952
21
-0.8088890551181103
0
LINE
8
User.Drawings
6
CONTINUOUS
10
3.0483688976377952
20
-0.8088890551181103
11
3.0438694488188975
21
-0.8066393700787401
0
LINE
8
User.Drawings
6
CONTINUOUS
10
3.0438694488188975
20
-0.8066393700787401
11
3.0416197244094487
21
-0.8021399212598425
0
LINE
8
User.Drawings
6
CONTINUOUS
10
3.0416197244094487
20
-0.8021399212598425
11
3.0416197244094487
21
-0.7841421653543307
0
LINE
8
User.Drawings
6
CONTINUOUS
10
3.0416197244094487
20
-0.7841421653543307
11
3.0438694488188975
21
-0.779642716535433
0
LINE
8
User.Drawings
6
CONTINUOUS
10
3.0438694488188975
20
-0.779642716535433
11
3.0483688976377952
21
-0.7773929921259842
0
LINE
8
User.Drawings
6
CONTINUOUS
10
3.0483688976377952
20
-0.7773929921259842
11
3.0573677559055117
21
-0.7773929921259842
0
LINE
8
User.Drawings
6
CONTINUOUS
10
3.0573677559055117
20
-0.7773929921259842
11
3.0618672047244093
21
-0.779642716535433
0
LINE
8
User.Drawings
6
CONTINUOUS
10
3.0618672047244093
20
-0.779642716535433
11
3.0641169291338581
21
-0.7841421653543307
0
LINE
8
User.Drawings
6
CONTINUOUS
10
3.0641169291338581
20
-0.7841421653543307
11
3.0641169291338581
21
-0.7886416141732283
0
LINE
8
User.Drawings
6
CONTINUOUS
10
3.0641169291338581
20
-0.7886416141732283
11
3.0416197244094487
21
-0.7931410236220472
0
LINE
8
User.Drawings
6
CONTINUOUS
10
3.1136107086614171
20
-0.7773929921259842
11
3.1316084645669289
21
-0.7773929921259842
0
LINE
8
User.Drawings
6
CONTINUOUS
10
3.1203598818897635
20
-0.8088890551181103
11
3.1203598818897635
21
-0.7683941338582677
0
LINE
8
User.Drawings
6
CONTINUOUS
10
3.1203598818897635
20
-0.7683941338582677
11
3.1226096062992124
21
-0.7638946850393701
0
LINE
8
User.Drawings
6
CONTINUOUS
10
3.1226096062992124
20
-0.7638946850393701
11
3.1271090157480312
21
-0.7616449606299213
0
LINE
8
User.Drawings
6
CONTINUOUS
10
3.1271090157480312
20
-0.7616449606299213
11
3.1316084645669289
21
-0.7616449606299213
0
LINE
8
User.Drawings
6
CONTINUOUS
10
3.1676039763779529
20
-0.8088890551181103
11
3.1676039763779529
21
-0.7841421653543307
0
LINE
8
User.Drawings
6
CONTINUOUS
10
3.1676039763779529
20
-0.7841421653543307
11
3.1653542519685041
21
-0.779642716535433
0
LINE
8
User.Drawings
6
CONTINUOUS
10
3.1653542519685041
20
-0.779642716535433
11
3.1608548031496064
21
-0.7773929921259842
0
LINE
8
User.Drawings
6
CONTINUOUS
10
3.1608548031496064
20
-0.7773929921259842
11
3.1518559448818895
21
-0.7773929921259842
0
LINE
8
User.Drawings
6
CONTINUOUS
10
3.1518559448818895
20
-0.7773929921259842
11
3.1473564960629918
21
-0.779642716535433
0
LINE
8
User.Drawings
6
CONTINUOUS
10
3.1676039763779529
20
-0.8066393700787401
11
3.1631045275590552
21
-0.8088890551181103
0
LINE
8
User.Drawings
6
CONTINUOUS
10
3.1631045275590552
20
-0.8088890551181103
11
3.1518559448818895
21
-0.8088890551181103
0
LINE
8
User.Drawings
6
CONTINUOUS
10
3.1518559448818895
20
-0.8088890551181103
11
3.1473564960629918
21
-0.8066393700787401
0
LINE
8
User.Drawings
6
CONTINUOUS
10
3.1473564960629918
20
-0.8066393700787401
11
3.145106771653543
21
-0.8021399212598425
0
LINE
8
User.Drawings
6
CONTINUOUS
10
3.145106771653543
20
-0.8021399212598425
11
3.145106771653543
21
-0.7976404724409448
0
LINE
8
User.Drawings
6
CONTINUOUS
10
3.145106771653543
20
-0.7976404724409448
11
3.1473564960629918
21
-0.7931410236220472
0
LINE
8
User.Drawings
6
CONTINUOUS
10
3.1473564960629918
20
-0.7931410236220472
11
3.1518559448818895
21
-0.7908913385826771
0
LINE
8
User.Drawings
6
CONTINUOUS
10
3.1518559448818895
20
-0.7908913385826771
11
3.1631045275590552
21
-0.7908913385826771
0
LINE
8
User.Drawings
6
CONTINUOUS
10
3.1631045275590552
20
-0.7908913385826771
11
3.1676039763779529
21
-0.7886416141732283
0
LINE
8
User.Drawings
6
CONTINUOUS
10
3.1901011417322835
20
-0.8088890551181103
11
3.1901011417322835
21
-0.7616449606299213
0
LINE
8
User.Drawings
6
CONTINUOUS
10
3.1901011417322835
20
-0.779642716535433
11
3.1946005905511812
21
-0.7773929921259842
0
LINE
8
User.Drawings
6
CONTINUOUS
10
3.1946005905511812
20
-0.7773929921259842
11
3.2035994488188977
21
-0.7773929921259842
0
LINE
8
User.Drawings
6
CONTINUOUS
10
3.2035994488188977
20
-0.7773929921259842
11
3.2080988976377953
21
-0.779642716535433
0
LINE
8
User.Drawings
6
CONTINUOUS
10
3.2080988976377953
20
-0.779642716535433
11
3.2103486220472441
21
-0.7818924409448819
0
LINE
8
User.Drawings
6
CONTINUOUS
10
3.2103486220472441
20
-0.7818924409448819
11
3.2125983070866142
21
-0.7863918897637795
0
LINE
8
User.Drawings
6
CONTINUOUS
10
3.2125983070866142
20
-0.7863918897637795
11
3.2125983070866142
21
-0.7998901968503936
0
LINE
8
User.Drawings
6
CONTINUOUS
10
3.2125983070866142
20
-0.7998901968503936
11
3.2103486220472441
21
-0.8043896456692913
0
LINE
8
User.Drawings
6
CONTINUOUS
10
3.2103486220472441
20
-0.8043896456692913
11
3.2080988976377953
21
-0.8066393700787401
0
LINE
8
User.Drawings
6
CONTINUOUS
10
3.2080988976377953
20
-0.8066393700787401
11
3.2035994488188977
21
-0.8088890551181103
0
LINE
8
User.Drawings
6
CONTINUOUS
10
3.2035994488188977
20
-0.8088890551181103
11
3.1946005905511812
21
-0.8088890551181103
0
LINE
8
User.Drawings
6
CONTINUOUS
10
3.1946005905511812
20
-0.8088890551181103
11
3.1901011417322835
21
-0.8066393700787401
0
CIRCLE
8
User.Drawings
10
0.1574803149606299
20
-0.1574803149606299
40
0.0531495669291339
0
CIRCLE
8
User.Drawings
10
3.3070866141732282
20
-0.1574803149606299
40
0.0531495669291339
0
CIRCLE
8
User.Drawings
10
0.7559055118110236
20
-0.2874015748031496
40
0.0177165354330709
0
CIRCLE
8
User.Drawings
10
0.7559055118110236
20
-0.3874015748031496
40
0.0177165354330709
0
CIRCLE
8
User.Drawings
10
0.7559055118110236
20
-0.4874015748031496
40
0.0177165354330709
0
CIRCLE
8
User.Drawings
10
0.7559055118110236
20
-0.5874015748031496
40
0.0177165354330709
0
CIRCLE
8
User.Drawings
10
0.7559055118110236
20
-0.6874015748031496
40
0.0177165354330709
0
CIRCLE
8
User.Drawings
10
0.7559055118110236
20
-0.7874015748031495
40
0.0177165354330709
0
CIRCLE
8
User.Drawings
10
0.7559055118110236
20
-0.8874015748031496
40
0.0177165354330709
0
CIRCLE
8
User.Drawings
10
0.7559055118110236
20
-0.9874015748031496
40
0.0177165354330709
0
CIRCLE
8
User.Drawings
10
0.7559055118110236
20
-1.0874015748031496
40
0.0177165354330709
0
CIRCLE
8
User.Drawings
10
0.7559055118110236
20
-1.1874015748031497
40
0.0177165354330709
0
CIRCLE
8
User.Drawings
10
0.7559055118110236
20
-1.2874015748031495
40
0.0177165354330709
0
CIRCLE
8
User.Drawings
10
0.1574803149606299
20
-1.4173228346456692
40
0.0531495669291339
0
CIRCLE
8
User.Drawings
10
3.3070866141732282
20
-1.4173228346456692
40
0.0531495669291339
0
CIRCLE
8
User.Drawings
10
3.2598425196850394
20
-0.2874015748031496
40
0.0177165354330709
0
CIRCLE
8
User.Drawings
10
3.2598425196850394
20
-0.3874015748031496
40
0.0177165354330709
0
CIRCLE
8
User.Drawings
10
3.2598425196850394
20
-0.4874015748031496
40
0.0177165354330709
0
CIRCLE
8
User.Drawings
10
3.2598425196850394
20
-0.5874015748031496
40
0.0177165354330709
0
CIRCLE
8
User.Drawings
10
3.2598425196850394
20
-0.6874015748031496
40
0.0177165354330709
0
CIRCLE
8
User.Drawings
10
3.2598425196850394
20
-0.7874015748031495
40
0.0177165354330709
0
CIRCLE
8
User.Drawings
10
3.2598425196850394
20
-0.8874015748031496
40
0.0177165354330709
0
CIRCLE
8
User.Drawings
10
3.2598425196850394
20
-0.9874015748031496
40
0.0177165354330709
0
CIRCLE
8
User.Drawings
10
3.2598425196850394
20
-1.0874015748031496
40
0.0177165354330709
0
CIRCLE
8
User.Drawings
10
3.2598425196850394
20
-1.1874015748031497
40
0.0177165354330709
0
CIRCLE
8
User.Drawings
10
3.2598425196850394
20
-1.2874015748031495
40
0.0177165354330709
0
CIRCLE
8
User.Drawings
10
0.2755905511811024
20
-0.6374015748031496
40
0.0196850393700787
0
CIRCLE
8
User.Drawings
10
0.2755905511811024
20
-0.7374015748031496
40
0.0196850393700787
0
CIRCLE
8
User.Drawings
10
0.2755905511811024
20
-0.8374015748031496
40
0.0196850393700787
0
CIRCLE
8
User.Drawings
10
0.2755905511811024
20
-0.9374015748031496
40
0.0196850393700787
0
CIRCLE
8
User.Drawings
10
0.5118110236220472
20
-0.7874015748031495
40
0.0295275590551181
0
CIRCLE
8
User.Drawings
10
3.1102362204724407
20
-0.7874015748031495
40
0.0295275590551181
  0
ENDSEC
  0
EOF
