  0
SECTION
  2
HEADER
  9
$ANGBASE
  50
0.0
  9
$ANGDIR
  70
1
  9
$MEASUREMENT
  70
0
  9
$INSUNITS
  70
1
  0
ENDSEC
  0
SECTION
  2
TABLES
  0
TABLE
  2
LTYPE
  70
4
  0
LTYPE
  5
40F
  2
CONTINUOUS
  70
0
  3
Solid line
  72
65
  73
0
  40
0.0
  0
LTYPE
  5
410
  2
DASHDOT
 70
0
  3
Dash Dot ____ _ ____ _
 72
65
 73
4
 40
2.0
 49
1.25
 49
-0.25
 49
0.25
 49
-0.25
  0
LTYPE
  5
411
  2
DASHED
 70
0
  3
Dashed __ __ __ __ __
 72
65
 73
2
 40
0.75
 49
0.5
 49
-0.25
  0
LTYPE
  5
43B
  2
DOTTED
 70
0
  3
Dotted .  .  .  .
 72
65
 73
2
 40
0.2
 49
0.0
 49
-0.2
  0
ENDTAB
  0
TABLE
  2
STYLE
  70
4
  0
STYLE
  2
KICAD
  70
0
  40
0
  41
1
  42
1
  50
0
  71
0
  3
isocp.shx
  0
STYLE
  2
KICADB
  70
0
  40
0
  41
1
  42
1
  50
0
  71
0
  3
isocp.shx
  0
STYLE
  2
KICADI
  70
0
  40
0
  41
1
  42
1
  50
15
  71
0
  3
isocp.shx
  0
STYLE
  2
KICADBI
  70
0
  40
0
  41
1
  42
1
  50
15
  71
0
  3
isocp.shx
  0
ENDTAB
  0
TABLE
  2
LAYER
  70
4
  0
LAYER
  2
Edge.Cuts
  70
0
  62
254
  420
13685453
  6
CONTINUOUS
  0
LAYER
  2
User.Drawings
  70
0
  62
9
  420
12763842
  6
CONTINUOUS
  0
LAYER
  2
F.Fab
  70
0
  62
9
  420
11513775
  6
CONTINUOUS
  0
LAYER
  2
B.Fab
  70
0
  62
155
  420
5791108
  6
CONTINUOUS
  0
ENDTAB
  0
ENDSEC
  0
SECTION
  2
ENTITIES
0
CIRCLE
8
F.Fab
10
0.1574803149606299
20
-0.1574803149606299
40
0.0531495669291339
0
CIRCLE
8
F.Fab
10
3.3070866141732282
20
-0.1574803149606299
40
0.0531495669291339
0
CIRCLE
8
F.Fab
10
0.7559055118110236
20
-0.2874015748031496
40
0.0177165354330709
0
CIRCLE
8
F.Fab
10
0.7559055118110236
20
-0.3874015748031496
40
0.0177165354330709
0
CIRCLE
8
F.Fab
10
0.7559055118110236
20
-0.4874015748031496
40
0.0177165354330709
0
CIRCLE
8
F.Fab
10
0.7559055118110236
20
-0.5874015748031496
40
0.0177165354330709
0
CIRCLE
8
F.Fab
10
0.7559055118110236
20
-0.6874015748031496
40
0.0177165354330709
0
CIRCLE
8
F.Fab
10
0.7559055118110236
20
-0.7874015748031495
40
0.0177165354330709
0
CIRCLE
8
F.Fab
10
0.7559055118110236
20
-0.8874015748031496
40
0.0177165354330709
0
CIRCLE
8
F.Fab
10
0.7559055118110236
20
-0.9874015748031496
40
0.0177165354330709
0
CIRCLE
8
F.Fab
10
0.7559055118110236
20
-1.0874015748031496
40
0.0177165354330709
0
CIRCLE
8
F.Fab
10
0.7559055118110236
20
-1.1874015748031497
40
0.0177165354330709
0
CIRCLE
8
F.Fab
10
0.7559055118110236
20
-1.2874015748031495
40
0.0177165354330709
0
CIRCLE
8
F.Fab
10
0.1574803149606299
20
-1.4173228346456692
40
0.0531495669291339
0
CIRCLE
8
F.Fab
10
3.3070866141732282
20
-1.4173228346456692
40
0.0531495669291339
0
CIRCLE
8
F.Fab
10
3.2598425196850394
20
-0.2874015748031496
40
0.0177165354330709
0
CIRCLE
8
F.Fab
10
3.2598425196850394
20
-0.3874015748031496
40
0.0177165354330709
0
CIRCLE
8
F.Fab
10
3.2598425196850394
20
-0.4874015748031496
40
0.0177165354330709
0
CIRCLE
8
F.Fab
10
3.2598425196850394
20
-0.5874015748031496
40
0.0177165354330709
0
CIRCLE
8
F.Fab
10
3.2598425196850394
20
-0.6874015748031496
40
0.0177165354330709
0
CIRCLE
8
F.Fab
10
3.2598425196850394
20
-0.7874015748031495
40
0.0177165354330709
0
CIRCLE
8
F.Fab
10
3.2598425196850394
20
-0.8874015748031496
40
0.0177165354330709
0
CIRCLE
8
F.Fab
10
3.2598425196850394
20
-0.9874015748031496
40
0.0177165354330709
0
CIRCLE
8
F.Fab
10
3.2598425196850394
20
-1.0874015748031496
40
0.0177165354330709
0
CIRCLE
8
F.Fab
10
3.2598425196850394
20
-1.1874015748031497
40
0.0177165354330709
0
CIRCLE
8
F.Fab
10
3.2598425196850394
20
-1.2874015748031495
40
0.0177165354330709
0
CIRCLE
8
F.Fab
10
0.2755905511811024
20
-0.6374015748031496
40
0.0196850393700787
0
CIRCLE
8
F.Fab
10
0.2755905511811024
20
-0.7374015748031496
40
0.0196850393700787
0
CIRCLE
8
F.Fab
10
0.2755905511811024
20
-0.8374015748031496
40
0.0196850393700787
0
CIRCLE
8
F.Fab
10
0.2755905511811024
20
-0.9374015748031496
40
0.0196850393700787
0
CIRCLE
8
F.Fab
10
0.5118110236220472
20
-0.7874015748031495
40
0.0295275590551181
0
CIRCLE
8
F.Fab
10
3.1102362204724407
20
-0.7874015748031495
40
0.0295275590551181
  0
ENDSEC
  0
EOF
